<svg width="21" height="33" viewBox="0 0 21 33" fill="none" xmlns="http://www.w3.org/2000/svg">
<g clip-path="url(#clip0_1_24080)">
<mask id="path-1-outside-1_1_24080" maskUnits="userSpaceOnUse" x="-0.982941" y="-0.991821" width="23" height="35" fill="black">
<rect fill="white" x="-0.982941" y="-0.991821" width="23" height="35"/>
<path d="M20.9957 3.17346C20.9957 3.17346 20.9957 3.16527 20.9957 3.16118V3.15299C20.9957 3.15299 20.9957 3.1448 20.9957 3.1407C20.9957 3.1407 20.9957 3.1407 20.9957 3.13661C20.9957 3.13661 20.9957 3.13661 20.9957 3.13251C20.9957 3.13251 20.9957 3.13251 20.9915 3.12842C20.9915 3.12842 20.9915 3.12842 20.9915 3.12432L19.7795 1.89998L17.9189 0.0245579C17.9189 0.0245579 17.9146 0.0245579 17.9104 0.0204631C17.9018 0.0163683 17.8933 0.0122735 17.8848 0.00817871C17.8805 0.00817871 17.872 0.00817871 17.8677 0.00817871C17.8677 0.00817871 17.8634 0.00817871 17.8592 0.00817871H3.14508C3.14508 0.00817871 3.14081 0.00817871 3.13655 0.00817871C3.12374 0.00817871 3.11094 0.0122735 3.09814 0.0245579C3.09387 0.0245579 3.08961 0.0286527 3.08534 0.0327475C3.08534 0.0327475 3.08107 0.0327475 3.0768 0.0409371C3.0768 0.0409371 3.06827 0.0409371 3.06827 0.0450319L1.23328 1.89588L0.0213268 3.12023C0.0213268 3.12023 0.0213268 3.12023 0.0213268 3.12432C0.0213268 3.12432 0.0213268 3.12432 0.0170593 3.12842C0.0170593 3.12842 0.0170593 3.12842 0.0170593 3.13251C0.0170593 3.13251 0.0170593 3.13251 0.0170593 3.13661C0.0170593 3.13661 0.0170593 3.1448 0.0170593 3.14889V3.15708C0.0170593 3.15708 0.0170593 3.16527 0.0170593 3.16937C0.0170593 3.16937 0.0170593 3.16937 0.0170593 3.17346V20.9367C0.0170593 20.9367 0.0170593 20.9408 0.0170593 20.9449C0.0170593 20.9449 0.0170593 20.949 0.0170593 20.9531V29.8224C0.0170593 29.8224 0.0170593 29.8224 0.0170593 29.8265C0.0170593 29.8265 0.0170593 29.8347 0.0170593 29.8388V29.847C0.0170593 29.847 0.0170593 29.8552 0.0170593 29.8593C0.0170593 29.8593 0.0170593 29.8593 0.0170593 29.8634C0.0170593 29.8634 0.0170593 29.8634 0.0170593 29.8675C0.0170593 29.8675 0.0170593 29.8675 0.0213268 29.8716C0.0213268 29.8716 0.0213268 29.8716 0.0213268 29.8757L1.23328 31.1L3.064 32.955L3.08107 32.9713C3.08107 32.9713 3.08961 32.9713 3.09387 32.9754C3.09387 32.9754 3.09387 32.9795 3.10241 32.9836C3.10668 32.9836 3.11094 32.9836 3.11521 32.9836C3.11521 32.9836 3.11521 32.9836 3.11948 32.9836C3.12374 32.9836 3.13228 32.9836 3.13655 32.9836H17.8506C17.8506 32.9836 17.8506 32.9836 17.8549 32.9836C17.8549 32.9836 17.8549 32.9836 17.8592 32.9836C17.8592 32.9836 17.8592 32.9836 17.8677 32.9795C17.8762 32.9795 17.8848 32.9795 17.8933 32.9713C17.8933 32.9713 17.8976 32.9713 17.9018 32.9672C17.9061 32.9672 17.9104 32.959 17.9189 32.955L19.7582 31.0918L20.9701 29.8675C20.9701 29.8675 20.9701 29.8675 20.9701 29.8634C20.9701 29.8634 20.9701 29.8634 20.9744 29.8593C20.9744 29.8593 20.9744 29.8593 20.9744 29.8552C20.9744 29.8552 20.9744 29.8552 20.9744 29.8511C20.9744 29.8511 20.9744 29.8429 20.9744 29.8388V29.8306C20.9744 29.8306 20.9744 29.8224 20.9744 29.8183C20.9744 29.8183 20.9744 29.8183 20.9744 29.8142V20.9449C20.9744 20.9449 20.9744 20.9408 20.9744 20.9367V20.9285V3.17756C20.9744 3.17756 20.9744 3.17755 20.9744 3.17346H20.9957ZM19.6686 30.9608L18.1622 30.7601L18.1878 30.5308L18.2048 30.3752L20.6714 29.9453L19.6686 30.9567V30.9608ZM13.7582 32.8362L13.6088 32.6929L13.0626 32.1687L16.9033 32.8362H13.7582ZM10.4125 32.8362H7.48079L8.23185 32.1155L10.2375 31.7675L10.4168 31.7347V32.8362H10.4125ZM0.328581 29.9494L2.79942 30.3793L2.82076 30.5923L2.83783 30.7642C2.17211 30.8502 1.82218 30.8994 1.33143 30.9649L0.328581 29.9535V29.9494ZM1.32716 2.0392L2.55618 2.20299L2.83356 2.23985L2.81649 2.39545L2.79515 2.62066L0.328581 3.05062L1.33143 2.0392H1.32716ZM12.8407 0.814855L12.7681 0.884466L10.5832 1.26528V0.163781H13.5192L12.8407 0.814855ZM20.6714 3.05062L18.2048 2.62066L18.1664 2.23985L18.4139 2.20709L19.6728 2.0392L20.6714 3.05062ZM20.8293 20.8302L20.0398 20.4945L19.6387 16.5839H20.8293V20.8302ZM20.7952 20.994L20.441 21.7475L20.2191 22.2184L20.0612 20.6787L20.2873 20.777L20.7952 20.994ZM10.293 31.5177L9.07254 31.3047L10.4125 30.019V31.5381L10.293 31.5177ZM8.1465 31.964L3.75106 32.7297L6.59316 31.5422L7.44238 31.1901L8.72261 31.4112L8.15931 31.9517L8.1465 31.964ZM3.00426 30.7397L2.97439 30.4244V30.408L3.05973 30.4244V30.7315C3.05973 30.7315 3.04266 30.7315 3.03413 30.7315C3.02559 30.7315 3.01706 30.7315 3.00426 30.7315V30.7397ZM0.708382 20.777L0.943091 20.6787L0.82787 21.8007L0.785196 22.2184L0.209093 20.9899L0.71265 20.777H0.708382ZM3.23043 0.479081L3.2731 0.577356L4.01137 2.23166C3.72545 2.1948 3.61023 2.17842 3.36699 2.14566C3.32431 2.14157 3.28164 2.13338 3.23043 2.12929V0.479081ZM3.49928 2.32584C3.49928 2.32584 3.51208 2.32584 3.51635 2.32584C3.59316 2.33403 3.66571 2.34631 3.74252 2.3545C3.82787 2.36678 3.92175 2.37907 4.05404 2.39545L3.22616 2.53877V2.28489C3.30298 2.29308 3.36272 2.30127 3.4182 2.30946C3.4438 2.30946 3.46941 2.31765 3.49074 2.31765L3.49928 2.32584ZM10.6814 1.47821L11.9232 1.69524L10.5832 2.981V1.46183L10.6771 1.47821H10.6814ZM13.2589 31.0754L12.128 31.272L10.8819 30.0763L11.7141 30.4285L13.2589 31.0795V31.0754ZM11.7141 2.57562L10.8819 2.92777L12.128 1.73209L13.2589 1.92864L11.7141 2.57971V2.57562ZM17.2148 30.6373L16.9417 30.6004L17.7695 30.4571V30.711L17.2105 30.6373H17.2148ZM2.23185 10.2861L3.05973 8.64821V13.2262L2.47936 12.9805L1.92887 12.7471L2.16784 10.4172L2.23185 10.2902V10.2861ZM17.7695 2.29308V2.54696L16.9417 2.40364L17.219 2.36678L17.7695 2.29308ZM16.5235 29.7405L11.6458 18.8525L11.8976 18.4307L17.7695 25.9406V29.7446H16.5235V29.7405ZM3.23043 25.9406L9.10241 18.4307L9.35419 18.8525L6.47794 25.2731L4.47652 29.7446H3.23043V25.9406ZM2.41535 13.132L3.05547 13.4064V16.4201H1.54906L1.90753 12.9191L2.41535 13.1361V13.132ZM4.47225 3.25945L6.47367 7.72688L9.34992 14.1475L9.09814 14.5693L3.23043 7.05943V3.25945H4.47652H4.47225ZM17.7695 7.05943L11.8976 14.5693L11.6458 14.1475L16.5235 3.25945H17.7695V7.06352V7.05943ZM9.4566 19.0285L10.3997 20.605L5.32574 29.0936L4.94167 29.7364H4.65575L5.33427 28.2214L9.45234 19.0244L9.4566 19.0285ZM4.58747 29.9043H4.84778L4.48932 30.5063L4.33143 30.4776L4.58747 29.9043ZM10.4125 20.9162V29.7446H5.13797L10.4125 20.9162ZM16.054 29.7405L15.2006 28.3074L10.6003 20.605L11.5434 19.0285L16.3357 29.7242L16.3442 29.7405H16.0583H16.054ZM11.4751 18.8074L10.4979 20.4412L9.52061 18.8074L9.18349 18.2423L8.62019 17.3005L8.1465 16.5061L8.62019 15.7117L9.18349 14.7699L9.52061 14.2049L10.4979 12.571L11.4751 14.2049L11.8122 14.7699L12.3755 15.7117L12.8492 16.5061L12.3755 17.3005L11.8122 18.2423L11.4751 18.8074ZM2.47936 20.0195L3.05973 19.7738V24.6835L2.48363 25.6498L1.92887 20.257L2.47936 20.0236V20.0195ZM9.00852 14.7249L8.50924 15.5561L7.74537 15.2286L7.26741 15.0238L3.76813 9.16825L3.23043 8.27149V7.33378L9.00852 14.7249ZM6.99857 18.0867L3.22616 24.3968V19.7001L6.99857 18.0867ZM3.23043 13.4801L7.14366 15.1548L7.89899 16.4201H3.23043V13.4801ZM7.89899 16.5839L7.14366 17.8492L6.02559 18.3283L3.22616 19.524V16.5839H7.89473H7.89899ZM7.40824 17.7346L8.04409 16.6658L8.41962 17.3005L7.40397 17.7346H7.40824ZM8.04835 16.3342L7.40824 15.2654L8.42389 15.6995L8.04835 16.3342ZM3.23043 24.7285L3.76386 23.8358L7.26741 17.9762L8.5135 17.4438L9.01279 18.2751L3.2347 25.6662V24.7285H3.23043ZM16.3272 3.28402L11.5391 13.9715L10.596 12.395L15.2432 4.61892L16.054 3.25945H16.34L16.3314 3.28402H16.3272ZM10.5832 12.0837V3.25945H15.8577L10.5832 12.0878V12.0837ZM10.4125 12.0837L5.14224 3.25945H10.4168V12.0878L10.4125 12.0837ZM4.48505 2.49372L4.84352 3.09566H4.5832L4.32716 2.52239L4.48505 2.49372ZM4.66002 3.25945H4.94594L5.30867 3.86548L10.404 12.395L9.46087 13.9715L5.33854 4.77862L4.65575 3.25945H4.66002ZM17.7695 24.3968L13.9971 18.0867L17.7695 19.7001V24.3968ZM12.7169 15.6421L13.5917 15.2695L12.9516 16.3382L12.5718 15.7036L12.7169 15.6421ZM12.9516 16.6658L13.5917 17.7346L12.5761 17.3005L12.9559 16.6658H12.9516ZM11.9915 18.2751L12.4865 17.4438L13.1778 17.7387L13.7326 17.9762L17.7695 24.7285V25.6662L11.9915 18.2751ZM17.7695 19.5199L14.936 18.3078L13.8563 17.8451L13.101 16.5798H17.7738V19.5199H17.7695ZM13.7368 15.0279L12.4907 15.5602L11.9957 14.729L17.7738 7.33787V8.27558L13.7368 15.032V15.0279ZM16.4125 3.09566H16.1522L16.5107 2.49372L16.6686 2.52239L16.5875 2.70256L16.4082 3.09566H16.4125ZM16.3229 2.48553L16.1735 2.73532L15.9559 3.09975H11.7354L16.3229 2.48963V2.48553ZM5.04409 3.09566L4.67709 2.48553C6.4182 2.71894 8.1465 2.94825 9.2603 3.09566H5.04409ZM3.05973 7.98895L2.50924 7.07171L2.56898 6.49434L3.05973 7.12085V7.99304V7.98895ZM6.99857 14.9133L3.22616 13.2999V8.60317L6.99857 14.9133ZM3.05973 16.5839V19.5977L2.48363 19.8434L1.9118 20.0891L1.55333 16.588H3.05973V16.5839ZM2.56898 26.5097L2.50924 25.9324L3.05973 25.0151V25.8873L2.66713 26.391L2.57325 26.5138L2.56898 26.5097ZM4.67709 30.5185L4.95447 30.0558L5.04409 29.9043H9.26457C8.15077 30.0517 6.4182 30.2851 4.67709 30.5144V30.5185ZM10.5832 20.9162L15.8577 29.7446H10.5832V20.9162ZM16.6686 30.4776L16.5107 30.5063L16.1522 29.9043H16.4125L16.5917 30.2974L16.6728 30.4776H16.6686ZM17.9402 24.6835V19.7738L18.7852 20.1341L19.0668 20.257L18.5121 25.6498L18.0213 24.8268L17.936 24.6875L17.9402 24.6835ZM17.7695 16.4201H13.101L13.8563 15.1548L17.7695 13.4801V16.4201ZM17.7695 13.2999L13.9971 14.9133L17.7695 8.60317V13.2999ZM16.596 3.09566L16.6643 2.94415L16.8392 2.55515L17.7653 2.71484V3.09566H16.5917H16.596ZM9.89188 3.01376C9.57609 2.97281 9.14935 2.91549 8.65433 2.84997C7.68135 2.71894 6.42673 2.55105 5.13797 2.37907L7.42104 1.98187L8.20198 2.30536L9.89188 3.00967V3.01376ZM3.23043 2.71075L4.15646 2.55105L4.39971 3.09566H3.23043V2.71484V2.71075ZM2.89757 8.04627L3.04693 8.30015L2.21478 9.94626L2.47936 7.35425L2.8933 8.04627H2.89757ZM2.28733 25.4246L0.926021 22.5214L1.12232 20.605L1.7667 20.3307L2.28733 25.4287V25.4246ZM4.39971 29.9043L4.15646 30.4489L3.23043 30.2892V29.9084H4.39971V29.9043ZM3.23043 30.453L4.05831 30.5963L3.23043 30.7069V30.453ZM7.42104 31.0181L5.13797 30.6209C5.58605 30.5595 6.02559 30.5022 6.45234 30.4448C6.53342 30.4326 6.61023 30.4244 6.68705 30.4121C6.76813 30.3998 6.84494 30.3916 6.92602 30.3793C7.13086 30.3507 7.33143 30.3261 7.52346 30.3015C8.5135 30.1705 9.35419 30.0558 9.88761 29.9862L8.65006 30.5022L7.41677 31.0181H7.42104ZM15.9559 29.9043L16.1735 30.2688L16.3229 30.5185L11.7354 29.9084H15.9559V29.9043ZM13.5576 31.0222L11.0953 29.9862L15.8577 30.6209L13.5576 31.0222ZM16.788 30.7438L17.1892 31.6364L16.6429 30.7233L16.788 30.7438ZM17.7695 30.2892L16.8435 30.4489L16.6686 30.064L16.596 29.9084H17.7695V30.2892ZM18.4267 26.5097L17.9402 25.8873V25.0151L18.4865 25.9324L18.4395 26.3746L18.4267 26.5138V26.5097ZM19.2333 20.3266L19.8777 20.6009L20.074 22.5173L18.7126 25.4205L19.2333 20.3266ZM19.1223 19.7369L19.0882 20.085L17.9402 19.5936V16.5798H19.4466L19.1223 19.7328V19.7369ZM18.8321 10.4131L19.0711 12.743L18.7895 12.8659L17.9445 13.2262V8.6523L18.7468 10.2452L18.8321 10.4172V10.4131ZM18.5163 7.35016L18.7809 9.94217L17.9488 8.29606L18.5121 7.35016H18.5163ZM18.4865 7.07171L17.9402 7.98895V7.11675L18.4267 6.49434L18.4395 6.62947L18.4865 7.07171ZM18.0939 3.25945L18.4011 6.24866L18.2304 6.46978L17.9402 6.8424V3.25945H18.0939ZM16.788 2.25622L16.6429 2.2767L17.1892 1.36356L17.1081 1.54373L16.788 2.25622ZM13.5576 1.97778L15.8577 2.37907L11.0953 3.01376L13.1607 2.14566L13.5576 1.97778ZM7.72403 1.92864L8.8677 1.728L10.1181 2.92777L7.72403 1.92864ZM4.35703 2.2767C4.35703 2.2767 4.32716 2.2767 4.31436 2.2726C4.28875 2.2726 4.25461 2.26441 4.21194 2.26032L3.8108 1.36356L4.35703 2.2767ZM3.05973 6.8424L2.59458 6.24866L2.90184 3.25945H3.05973V6.8424ZM2.41962 6.29779L2.36414 6.82602L0.849207 4.29134L1.97154 5.72862L2.41962 6.29779ZM1.74537 12.8454L1.45518 15.6667L1.13939 12.5874L1.74537 12.8454ZM1.74537 20.1546L1.3485 20.3266L1.13939 20.4167L1.45518 17.3374L1.74537 20.1587V20.1546ZM2.41962 26.7022L2.06116 27.1608L0.849207 28.7086L2.36414 26.174L2.41962 26.7022ZM2.90184 29.7405L2.59458 26.7513L3.05973 26.1576V29.7405H2.90184ZM4.21194 30.7438L4.27595 30.7356L4.35703 30.7233L3.8108 31.6364L3.95589 31.317L4.21194 30.7438ZM7.72403 31.0713L10.1181 30.0722L8.8677 31.272L7.72403 31.0713ZM17.9402 26.1576L18.2048 26.4974L18.4011 26.7513L18.0939 29.7405H17.9402V26.1576ZM19.2503 20.1546L19.5405 17.3374L19.8563 20.4167L19.2503 20.1546ZM19.4509 16.4201H17.9445V13.4064L19.0925 12.915L19.1309 13.2794L19.4552 16.4201H19.4509ZM18.5548 6.0562L18.2688 3.25945H20.7439L18.559 6.0562H18.5548ZM18.0469 2.75989L18.0811 3.09566H17.9445V2.74351H17.953L18.0469 2.76398V2.75989ZM17.9402 2.57562V2.26851L17.9915 2.26032L18.0256 2.5879L17.9402 2.57152V2.57562ZM16.9843 2.23166L17.7695 0.479081V2.12929L16.9843 2.23166ZM16.404 2.30946L13.8392 1.86312L17.6501 0.262056L16.4296 2.30946H16.404ZM7.13939 1.86312L4.59601 2.30536H4.5704L3.36699 0.286625L6.30724 1.51507L7.13939 1.86312ZM3.05973 2.74351V3.09566H2.91891L2.95305 2.75989L3.04693 2.74351H3.05547H3.05973ZM2.44096 6.0562L0.294442 3.30859L0.256035 3.25945H2.73114L2.44522 6.0562H2.44096ZM1.9502 10.843L1.92887 11.0519L1.76244 12.6734L1.15646 12.4154L1.38264 11.9691L1.9502 10.843ZM2.44096 26.9438L2.72687 29.7405H0.256035L2.44096 26.9438ZM2.95305 30.2401L2.91891 29.9043H3.05973V30.2565H3.04693L2.95305 30.2401ZM4.01137 30.7683L3.26457 32.439L3.23043 32.5168V30.8707L4.01564 30.7642L4.01137 30.7683ZM3.36699 32.7134L4.5704 30.6987H4.59601L7.13939 31.1369L6.30724 31.4849L3.36699 32.7134ZM13.8392 31.141L16.404 30.6946H16.4296L16.6942 31.1369L17.6543 32.742L13.8435 31.141H13.8392ZM17.2831 31.4358L16.9843 30.7683L17.7695 30.8748V32.525L17.2831 31.4358ZM17.9402 30.7315V30.4244L18.0256 30.408L17.9915 30.7397L17.9402 30.7315ZM17.9402 30.2565V29.9043H18.0768L18.0427 30.2401L17.9488 30.2565H17.9402ZM20.1508 28.7086L18.5804 26.7022L18.5889 26.5998L18.6316 26.174L18.8407 26.5261L20.1465 28.7086H20.1508ZM19.8435 12.4154L19.2375 12.6734L19.0498 10.843L19.8051 12.3376L19.8435 12.4154ZM18.6358 6.82602L18.5932 6.40426L18.5804 6.29779L20.1508 4.29134L18.8279 6.50253L18.6358 6.82602ZM18.2518 3.09566L18.2219 2.80493V2.79264L19.963 3.09566H18.2475H18.2518ZM17.9402 2.10472V1.75666L17.9744 2.10062H17.9402V2.10472ZM12.5548 1.08921L12.2774 1.35537L12.0683 1.55601L10.9758 1.36765L11.2404 1.32261L12.5548 1.0933V1.08921ZM10.4125 1.46183V2.981L9.07254 1.69524L10.2888 1.48231L10.4125 1.46183ZM8.72261 1.58877L7.44238 1.80989L6.71692 1.50688L3.75532 0.270246L8.1465 1.03597L8.72261 1.58877ZM3.05973 2.26851V2.57562L2.97439 2.592L3.00852 2.26441C3.00852 2.26441 3.02986 2.26441 3.0384 2.26441C3.04693 2.26441 3.05547 2.26441 3.064 2.26441L3.05973 2.26851ZM2.74821 3.09566H1.03697L2.78235 2.79264L2.75248 3.09566H2.74821ZM2.33427 7.10856L1.99714 10.3721L1.93313 10.4991L1.09672 12.1615L0.209093 3.55018L2.33427 7.10856ZM0.887614 22.849L2.32574 25.9078L0.209093 29.4498L0.294442 28.6104L0.887614 22.8449V22.849ZM2.74821 29.9043L2.77808 30.2073L1.03271 29.9043H2.74394H2.74821ZM3.05973 31.2638L3.02133 30.9035C3.02133 30.9035 3.04693 30.9035 3.05973 30.8994V31.2638ZM8.92744 31.4481L10.0199 31.6405L8.44096 31.9149L8.92744 31.4481ZM12.2731 31.4112L13.5363 31.1901L13.5747 31.2065L17.155 32.7134L12.8492 31.964L12.2731 31.4112ZM17.9402 30.8994H17.9744L17.9402 31.2474V30.8994ZM18.2219 30.2114L18.2518 29.9084H19.9673L18.2219 30.2114ZM18.2688 29.7405L18.5548 26.9438L20.7397 29.7405H18.2646H18.2688ZM18.67 25.9078L20.0868 22.8899L20.1081 22.849L20.7013 28.6145L20.7866 29.4539L18.67 25.9119V25.9078ZM19.5448 15.6667L19.2546 12.8454L19.4893 12.7471L19.8606 12.5874L19.6131 15.0238L19.5491 15.6667H19.5448ZM19.9033 12.1615L19.0412 10.4581L18.9986 10.3721L18.6614 7.10856L20.7866 3.55018L20.6927 4.46332L19.899 12.1615H19.9033ZM13.7454 1.71981L13.5363 1.8058L12.2731 1.58468L12.8492 1.03188L17.155 0.28253L13.7454 1.71571V1.71981ZM10.0199 1.36356L9.90042 1.38403L8.92744 1.55192L8.71834 1.35127L8.44096 1.08511L10.0028 1.35537H10.0199V1.36356ZM3.05973 2.10472C3.05973 2.10472 3.03413 2.10472 3.02133 2.10062L3.05973 1.74028V2.10472ZM0.170687 14.3646L0.985765 12.7553L1.3613 16.4201H0.170687V14.3646ZM1.3613 16.5839L0.96016 20.4945L0.554755 20.6665L0.170687 20.8302V16.5839H1.3613ZM10.5832 31.5381V30.019L11.9232 31.3047L10.6728 31.5218L10.5832 31.5381ZM19.6387 16.4201L20.0099 12.8003V12.7553L20.8293 14.3646V16.4201H19.6387ZM18.1451 2.07605L17.9658 0.311194L19.5277 1.89179L18.1493 2.07605H18.1451ZM0.938823 12.3212L0.170687 11.9937V4.84004L0.938823 12.3212ZM0.926021 12.4932L0.170687 13.9878V12.1738L0.926021 12.4973V12.4932ZM0.746789 22.546L0.170687 28.1558V21.3175L0.746789 22.5419V22.546ZM12.0683 31.4481L12.5548 31.9149L10.9758 31.6405L12.0683 31.4481ZM18.1451 30.9239L19.5235 31.1082L17.9658 32.6888L18.1451 30.928V30.9239ZM20.2489 22.546L20.825 21.3175V28.1558L20.2489 22.546ZM20.8293 12.1738V13.9878L20.074 12.4932L20.8293 12.1697V12.1738ZM20.8293 11.9937L20.0612 12.3212L20.8293 4.84004V11.9937ZM16.6301 0.212919L13.0626 0.835329L13.1351 0.765717L13.7582 0.163781H16.9075L16.6301 0.212919ZM10.4125 1.26528L8.22759 0.884466L7.47652 0.163781H10.4125V1.26528ZM7.23754 0.163781L7.93313 0.835329L4.09245 0.163781H7.23754ZM3.02986 0.348047L2.85063 2.07605L1.47225 1.89179L3.03413 0.311194V0.348047H3.02986ZM2.85063 30.9239L3.02986 32.6888L1.46798 31.1082C1.89899 31.0509 2.24039 31.0058 2.84636 30.9239H2.85063ZM7.23754 32.8362H4.09245L7.93313 32.1687L7.23754 32.8362ZM10.5832 31.7347L10.8222 31.7756L12.7639 32.1155L12.8449 32.1933L13.5107 32.8321H10.5747V31.7306L10.5832 31.7347Z"/>
</mask>
<path d="M20.9957 3.17346C20.9957 3.17346 20.9957 3.16527 20.9957 3.16118V3.15299C20.9957 3.15299 20.9957 3.1448 20.9957 3.1407C20.9957 3.1407 20.9957 3.1407 20.9957 3.13661C20.9957 3.13661 20.9957 3.13661 20.9957 3.13251C20.9957 3.13251 20.9957 3.13251 20.9915 3.12842C20.9915 3.12842 20.9915 3.12842 20.9915 3.12432L19.7795 1.89998L17.9189 0.0245579C17.9189 0.0245579 17.9146 0.0245579 17.9104 0.0204631C17.9018 0.0163683 17.8933 0.0122735 17.8848 0.00817871C17.8805 0.00817871 17.872 0.00817871 17.8677 0.00817871C17.8677 0.00817871 17.8634 0.00817871 17.8592 0.00817871H3.14508C3.14508 0.00817871 3.14081 0.00817871 3.13655 0.00817871C3.12374 0.00817871 3.11094 0.0122735 3.09814 0.0245579C3.09387 0.0245579 3.08961 0.0286527 3.08534 0.0327475C3.08534 0.0327475 3.08107 0.0327475 3.0768 0.0409371C3.0768 0.0409371 3.06827 0.0409371 3.06827 0.0450319L1.23328 1.89588L0.0213268 3.12023C0.0213268 3.12023 0.0213268 3.12023 0.0213268 3.12432C0.0213268 3.12432 0.0213268 3.12432 0.0170593 3.12842C0.0170593 3.12842 0.0170593 3.12842 0.0170593 3.13251C0.0170593 3.13251 0.0170593 3.13251 0.0170593 3.13661C0.0170593 3.13661 0.0170593 3.1448 0.0170593 3.14889V3.15708C0.0170593 3.15708 0.0170593 3.16527 0.0170593 3.16937C0.0170593 3.16937 0.0170593 3.16937 0.0170593 3.17346V20.9367C0.0170593 20.9367 0.0170593 20.9408 0.0170593 20.9449C0.0170593 20.9449 0.0170593 20.949 0.0170593 20.9531V29.8224C0.0170593 29.8224 0.0170593 29.8224 0.0170593 29.8265C0.0170593 29.8265 0.0170593 29.8347 0.0170593 29.8388V29.847C0.0170593 29.847 0.0170593 29.8552 0.0170593 29.8593C0.0170593 29.8593 0.0170593 29.8593 0.0170593 29.8634C0.0170593 29.8634 0.0170593 29.8634 0.0170593 29.8675C0.0170593 29.8675 0.0170593 29.8675 0.0213268 29.8716C0.0213268 29.8716 0.0213268 29.8716 0.0213268 29.8757L1.23328 31.1L3.064 32.955L3.08107 32.9713C3.08107 32.9713 3.08961 32.9713 3.09387 32.9754C3.09387 32.9754 3.09387 32.9795 3.10241 32.9836C3.10668 32.9836 3.11094 32.9836 3.11521 32.9836C3.11521 32.9836 3.11521 32.9836 3.11948 32.9836C3.12374 32.9836 3.13228 32.9836 3.13655 32.9836H17.8506C17.8506 32.9836 17.8506 32.9836 17.8549 32.9836C17.8549 32.9836 17.8549 32.9836 17.8592 32.9836C17.8592 32.9836 17.8592 32.9836 17.8677 32.9795C17.8762 32.9795 17.8848 32.9795 17.8933 32.9713C17.8933 32.9713 17.8976 32.9713 17.9018 32.9672C17.9061 32.9672 17.9104 32.959 17.9189 32.955L19.7582 31.0918L20.9701 29.8675C20.9701 29.8675 20.9701 29.8675 20.9701 29.8634C20.9701 29.8634 20.9701 29.8634 20.9744 29.8593C20.9744 29.8593 20.9744 29.8593 20.9744 29.8552C20.9744 29.8552 20.9744 29.8552 20.9744 29.8511C20.9744 29.8511 20.9744 29.8429 20.9744 29.8388V29.8306C20.9744 29.8306 20.9744 29.8224 20.9744 29.8183C20.9744 29.8183 20.9744 29.8183 20.9744 29.8142V20.9449C20.9744 20.9449 20.9744 20.9408 20.9744 20.9367V20.9285V3.17756C20.9744 3.17756 20.9744 3.17755 20.9744 3.17346H20.9957ZM19.6686 30.9608L18.1622 30.7601L18.1878 30.5308L18.2048 30.3752L20.6714 29.9453L19.6686 30.9567V30.9608ZM13.7582 32.8362L13.6088 32.6929L13.0626 32.1687L16.9033 32.8362H13.7582ZM10.4125 32.8362H7.48079L8.23185 32.1155L10.2375 31.7675L10.4168 31.7347V32.8362H10.4125ZM0.328581 29.9494L2.79942 30.3793L2.82076 30.5923L2.83783 30.7642C2.17211 30.8502 1.82218 30.8994 1.33143 30.9649L0.328581 29.9535V29.9494ZM1.32716 2.0392L2.55618 2.20299L2.83356 2.23985L2.81649 2.39545L2.79515 2.62066L0.328581 3.05062L1.33143 2.0392H1.32716ZM12.8407 0.814855L12.7681 0.884466L10.5832 1.26528V0.163781H13.5192L12.8407 0.814855ZM20.6714 3.05062L18.2048 2.62066L18.1664 2.23985L18.4139 2.20709L19.6728 2.0392L20.6714 3.05062ZM20.8293 20.8302L20.0398 20.4945L19.6387 16.5839H20.8293V20.8302ZM20.7952 20.994L20.441 21.7475L20.2191 22.2184L20.0612 20.6787L20.2873 20.777L20.7952 20.994ZM10.293 31.5177L9.07254 31.3047L10.4125 30.019V31.5381L10.293 31.5177ZM8.1465 31.964L3.75106 32.7297L6.59316 31.5422L7.44238 31.1901L8.72261 31.4112L8.15931 31.9517L8.1465 31.964ZM3.00426 30.7397L2.97439 30.4244V30.408L3.05973 30.4244V30.7315C3.05973 30.7315 3.04266 30.7315 3.03413 30.7315C3.02559 30.7315 3.01706 30.7315 3.00426 30.7315V30.7397ZM0.708382 20.777L0.943091 20.6787L0.82787 21.8007L0.785196 22.2184L0.209093 20.9899L0.71265 20.777H0.708382ZM3.23043 0.479081L3.2731 0.577356L4.01137 2.23166C3.72545 2.1948 3.61023 2.17842 3.36699 2.14566C3.32431 2.14157 3.28164 2.13338 3.23043 2.12929V0.479081ZM3.49928 2.32584C3.49928 2.32584 3.51208 2.32584 3.51635 2.32584C3.59316 2.33403 3.66571 2.34631 3.74252 2.3545C3.82787 2.36678 3.92175 2.37907 4.05404 2.39545L3.22616 2.53877V2.28489C3.30298 2.29308 3.36272 2.30127 3.4182 2.30946C3.4438 2.30946 3.46941 2.31765 3.49074 2.31765L3.49928 2.32584ZM10.6814 1.47821L11.9232 1.69524L10.5832 2.981V1.46183L10.6771 1.47821H10.6814ZM13.2589 31.0754L12.128 31.272L10.8819 30.0763L11.7141 30.4285L13.2589 31.0795V31.0754ZM11.7141 2.57562L10.8819 2.92777L12.128 1.73209L13.2589 1.92864L11.7141 2.57971V2.57562ZM17.2148 30.6373L16.9417 30.6004L17.7695 30.4571V30.711L17.2105 30.6373H17.2148ZM2.23185 10.2861L3.05973 8.64821V13.2262L2.47936 12.9805L1.92887 12.7471L2.16784 10.4172L2.23185 10.2902V10.2861ZM17.7695 2.29308V2.54696L16.9417 2.40364L17.219 2.36678L17.7695 2.29308ZM16.5235 29.7405L11.6458 18.8525L11.8976 18.4307L17.7695 25.9406V29.7446H16.5235V29.7405ZM3.23043 25.9406L9.10241 18.4307L9.35419 18.8525L6.47794 25.2731L4.47652 29.7446H3.23043V25.9406ZM2.41535 13.132L3.05547 13.4064V16.4201H1.54906L1.90753 12.9191L2.41535 13.1361V13.132ZM4.47225 3.25945L6.47367 7.72688L9.34992 14.1475L9.09814 14.5693L3.23043 7.05943V3.25945H4.47652H4.47225ZM17.7695 7.05943L11.8976 14.5693L11.6458 14.1475L16.5235 3.25945H17.7695V7.06352V7.05943ZM9.4566 19.0285L10.3997 20.605L5.32574 29.0936L4.94167 29.7364H4.65575L5.33427 28.2214L9.45234 19.0244L9.4566 19.0285ZM4.58747 29.9043H4.84778L4.48932 30.5063L4.33143 30.4776L4.58747 29.9043ZM10.4125 20.9162V29.7446H5.13797L10.4125 20.9162ZM16.054 29.7405L15.2006 28.3074L10.6003 20.605L11.5434 19.0285L16.3357 29.7242L16.3442 29.7405H16.0583H16.054ZM11.4751 18.8074L10.4979 20.4412L9.52061 18.8074L9.18349 18.2423L8.62019 17.3005L8.1465 16.5061L8.62019 15.7117L9.18349 14.7699L9.52061 14.2049L10.4979 12.571L11.4751 14.2049L11.8122 14.7699L12.3755 15.7117L12.8492 16.5061L12.3755 17.3005L11.8122 18.2423L11.4751 18.8074ZM2.47936 20.0195L3.05973 19.7738V24.6835L2.48363 25.6498L1.92887 20.257L2.47936 20.0236V20.0195ZM9.00852 14.7249L8.50924 15.5561L7.74537 15.2286L7.26741 15.0238L3.76813 9.16825L3.23043 8.27149V7.33378L9.00852 14.7249ZM6.99857 18.0867L3.22616 24.3968V19.7001L6.99857 18.0867ZM3.23043 13.4801L7.14366 15.1548L7.89899 16.4201H3.23043V13.4801ZM7.89899 16.5839L7.14366 17.8492L6.02559 18.3283L3.22616 19.524V16.5839H7.89473H7.89899ZM7.40824 17.7346L8.04409 16.6658L8.41962 17.3005L7.40397 17.7346H7.40824ZM8.04835 16.3342L7.40824 15.2654L8.42389 15.6995L8.04835 16.3342ZM3.23043 24.7285L3.76386 23.8358L7.26741 17.9762L8.5135 17.4438L9.01279 18.2751L3.2347 25.6662V24.7285H3.23043ZM16.3272 3.28402L11.5391 13.9715L10.596 12.395L15.2432 4.61892L16.054 3.25945H16.34L16.3314 3.28402H16.3272ZM10.5832 12.0837V3.25945H15.8577L10.5832 12.0878V12.0837ZM10.4125 12.0837L5.14224 3.25945H10.4168V12.0878L10.4125 12.0837ZM4.48505 2.49372L4.84352 3.09566H4.5832L4.32716 2.52239L4.48505 2.49372ZM4.66002 3.25945H4.94594L5.30867 3.86548L10.404 12.395L9.46087 13.9715L5.33854 4.77862L4.65575 3.25945H4.66002ZM17.7695 24.3968L13.9971 18.0867L17.7695 19.7001V24.3968ZM12.7169 15.6421L13.5917 15.2695L12.9516 16.3382L12.5718 15.7036L12.7169 15.6421ZM12.9516 16.6658L13.5917 17.7346L12.5761 17.3005L12.9559 16.6658H12.9516ZM11.9915 18.2751L12.4865 17.4438L13.1778 17.7387L13.7326 17.9762L17.7695 24.7285V25.6662L11.9915 18.2751ZM17.7695 19.5199L14.936 18.3078L13.8563 17.8451L13.101 16.5798H17.7738V19.5199H17.7695ZM13.7368 15.0279L12.4907 15.5602L11.9957 14.729L17.7738 7.33787V8.27558L13.7368 15.032V15.0279ZM16.4125 3.09566H16.1522L16.5107 2.49372L16.6686 2.52239L16.5875 2.70256L16.4082 3.09566H16.4125ZM16.3229 2.48553L16.1735 2.73532L15.9559 3.09975H11.7354L16.3229 2.48963V2.48553ZM5.04409 3.09566L4.67709 2.48553C6.4182 2.71894 8.1465 2.94825 9.2603 3.09566H5.04409ZM3.05973 7.98895L2.50924 7.07171L2.56898 6.49434L3.05973 7.12085V7.99304V7.98895ZM6.99857 14.9133L3.22616 13.2999V8.60317L6.99857 14.9133ZM3.05973 16.5839V19.5977L2.48363 19.8434L1.9118 20.0891L1.55333 16.588H3.05973V16.5839ZM2.56898 26.5097L2.50924 25.9324L3.05973 25.0151V25.8873L2.66713 26.391L2.57325 26.5138L2.56898 26.5097ZM4.67709 30.5185L4.95447 30.0558L5.04409 29.9043H9.26457C8.15077 30.0517 6.4182 30.2851 4.67709 30.5144V30.5185ZM10.5832 20.9162L15.8577 29.7446H10.5832V20.9162ZM16.6686 30.4776L16.5107 30.5063L16.1522 29.9043H16.4125L16.5917 30.2974L16.6728 30.4776H16.6686ZM17.9402 24.6835V19.7738L18.7852 20.1341L19.0668 20.257L18.5121 25.6498L18.0213 24.8268L17.936 24.6875L17.9402 24.6835ZM17.7695 16.4201H13.101L13.8563 15.1548L17.7695 13.4801V16.4201ZM17.7695 13.2999L13.9971 14.9133L17.7695 8.60317V13.2999ZM16.596 3.09566L16.6643 2.94415L16.8392 2.55515L17.7653 2.71484V3.09566H16.5917H16.596ZM9.89188 3.01376C9.57609 2.97281 9.14935 2.91549 8.65433 2.84997C7.68135 2.71894 6.42673 2.55105 5.13797 2.37907L7.42104 1.98187L8.20198 2.30536L9.89188 3.00967V3.01376ZM3.23043 2.71075L4.15646 2.55105L4.39971 3.09566H3.23043V2.71484V2.71075ZM2.89757 8.04627L3.04693 8.30015L2.21478 9.94626L2.47936 7.35425L2.8933 8.04627H2.89757ZM2.28733 25.4246L0.926021 22.5214L1.12232 20.605L1.7667 20.3307L2.28733 25.4287V25.4246ZM4.39971 29.9043L4.15646 30.4489L3.23043 30.2892V29.9084H4.39971V29.9043ZM3.23043 30.453L4.05831 30.5963L3.23043 30.7069V30.453ZM7.42104 31.0181L5.13797 30.6209C5.58605 30.5595 6.02559 30.5022 6.45234 30.4448C6.53342 30.4326 6.61023 30.4244 6.68705 30.4121C6.76813 30.3998 6.84494 30.3916 6.92602 30.3793C7.13086 30.3507 7.33143 30.3261 7.52346 30.3015C8.5135 30.1705 9.35419 30.0558 9.88761 29.9862L8.65006 30.5022L7.41677 31.0181H7.42104ZM15.9559 29.9043L16.1735 30.2688L16.3229 30.5185L11.7354 29.9084H15.9559V29.9043ZM13.5576 31.0222L11.0953 29.9862L15.8577 30.6209L13.5576 31.0222ZM16.788 30.7438L17.1892 31.6364L16.6429 30.7233L16.788 30.7438ZM17.7695 30.2892L16.8435 30.4489L16.6686 30.064L16.596 29.9084H17.7695V30.2892ZM18.4267 26.5097L17.9402 25.8873V25.0151L18.4865 25.9324L18.4395 26.3746L18.4267 26.5138V26.5097ZM19.2333 20.3266L19.8777 20.6009L20.074 22.5173L18.7126 25.4205L19.2333 20.3266ZM19.1223 19.7369L19.0882 20.085L17.9402 19.5936V16.5798H19.4466L19.1223 19.7328V19.7369ZM18.8321 10.4131L19.0711 12.743L18.7895 12.8659L17.9445 13.2262V8.6523L18.7468 10.2452L18.8321 10.4172V10.4131ZM18.5163 7.35016L18.7809 9.94217L17.9488 8.29606L18.5121 7.35016H18.5163ZM18.4865 7.07171L17.9402 7.98895V7.11675L18.4267 6.49434L18.4395 6.62947L18.4865 7.07171ZM18.0939 3.25945L18.4011 6.24866L18.2304 6.46978L17.9402 6.8424V3.25945H18.0939ZM16.788 2.25622L16.6429 2.2767L17.1892 1.36356L17.1081 1.54373L16.788 2.25622ZM13.5576 1.97778L15.8577 2.37907L11.0953 3.01376L13.1607 2.14566L13.5576 1.97778ZM7.72403 1.92864L8.8677 1.728L10.1181 2.92777L7.72403 1.92864ZM4.35703 2.2767C4.35703 2.2767 4.32716 2.2767 4.31436 2.2726C4.28875 2.2726 4.25461 2.26441 4.21194 2.26032L3.8108 1.36356L4.35703 2.2767ZM3.05973 6.8424L2.59458 6.24866L2.90184 3.25945H3.05973V6.8424ZM2.41962 6.29779L2.36414 6.82602L0.849207 4.29134L1.97154 5.72862L2.41962 6.29779ZM1.74537 12.8454L1.45518 15.6667L1.13939 12.5874L1.74537 12.8454ZM1.74537 20.1546L1.3485 20.3266L1.13939 20.4167L1.45518 17.3374L1.74537 20.1587V20.1546ZM2.41962 26.7022L2.06116 27.1608L0.849207 28.7086L2.36414 26.174L2.41962 26.7022ZM2.90184 29.7405L2.59458 26.7513L3.05973 26.1576V29.7405H2.90184ZM4.21194 30.7438L4.27595 30.7356L4.35703 30.7233L3.8108 31.6364L3.95589 31.317L4.21194 30.7438ZM7.72403 31.0713L10.1181 30.0722L8.8677 31.272L7.72403 31.0713ZM17.9402 26.1576L18.2048 26.4974L18.4011 26.7513L18.0939 29.7405H17.9402V26.1576ZM19.2503 20.1546L19.5405 17.3374L19.8563 20.4167L19.2503 20.1546ZM19.4509 16.4201H17.9445V13.4064L19.0925 12.915L19.1309 13.2794L19.4552 16.4201H19.4509ZM18.5548 6.0562L18.2688 3.25945H20.7439L18.559 6.0562H18.5548ZM18.0469 2.75989L18.0811 3.09566H17.9445V2.74351H17.953L18.0469 2.76398V2.75989ZM17.9402 2.57562V2.26851L17.9915 2.26032L18.0256 2.5879L17.9402 2.57152V2.57562ZM16.9843 2.23166L17.7695 0.479081V2.12929L16.9843 2.23166ZM16.404 2.30946L13.8392 1.86312L17.6501 0.262056L16.4296 2.30946H16.404ZM7.13939 1.86312L4.59601 2.30536H4.5704L3.36699 0.286625L6.30724 1.51507L7.13939 1.86312ZM3.05973 2.74351V3.09566H2.91891L2.95305 2.75989L3.04693 2.74351H3.05547H3.05973ZM2.44096 6.0562L0.294442 3.30859L0.256035 3.25945H2.73114L2.44522 6.0562H2.44096ZM1.9502 10.843L1.92887 11.0519L1.76244 12.6734L1.15646 12.4154L1.38264 11.9691L1.9502 10.843ZM2.44096 26.9438L2.72687 29.7405H0.256035L2.44096 26.9438ZM2.95305 30.2401L2.91891 29.9043H3.05973V30.2565H3.04693L2.95305 30.2401ZM4.01137 30.7683L3.26457 32.439L3.23043 32.5168V30.8707L4.01564 30.7642L4.01137 30.7683ZM3.36699 32.7134L4.5704 30.6987H4.59601L7.13939 31.1369L6.30724 31.4849L3.36699 32.7134ZM13.8392 31.141L16.404 30.6946H16.4296L16.6942 31.1369L17.6543 32.742L13.8435 31.141H13.8392ZM17.2831 31.4358L16.9843 30.7683L17.7695 30.8748V32.525L17.2831 31.4358ZM17.9402 30.7315V30.4244L18.0256 30.408L17.9915 30.7397L17.9402 30.7315ZM17.9402 30.2565V29.9043H18.0768L18.0427 30.2401L17.9488 30.2565H17.9402ZM20.1508 28.7086L18.5804 26.7022L18.5889 26.5998L18.6316 26.174L18.8407 26.5261L20.1465 28.7086H20.1508ZM19.8435 12.4154L19.2375 12.6734L19.0498 10.843L19.8051 12.3376L19.8435 12.4154ZM18.6358 6.82602L18.5932 6.40426L18.5804 6.29779L20.1508 4.29134L18.8279 6.50253L18.6358 6.82602ZM18.2518 3.09566L18.2219 2.80493V2.79264L19.963 3.09566H18.2475H18.2518ZM17.9402 2.10472V1.75666L17.9744 2.10062H17.9402V2.10472ZM12.5548 1.08921L12.2774 1.35537L12.0683 1.55601L10.9758 1.36765L11.2404 1.32261L12.5548 1.0933V1.08921ZM10.4125 1.46183V2.981L9.07254 1.69524L10.2888 1.48231L10.4125 1.46183ZM8.72261 1.58877L7.44238 1.80989L6.71692 1.50688L3.75532 0.270246L8.1465 1.03597L8.72261 1.58877ZM3.05973 2.26851V2.57562L2.97439 2.592L3.00852 2.26441C3.00852 2.26441 3.02986 2.26441 3.0384 2.26441C3.04693 2.26441 3.05547 2.26441 3.064 2.26441L3.05973 2.26851ZM2.74821 3.09566H1.03697L2.78235 2.79264L2.75248 3.09566H2.74821ZM2.33427 7.10856L1.99714 10.3721L1.93313 10.4991L1.09672 12.1615L0.209093 3.55018L2.33427 7.10856ZM0.887614 22.849L2.32574 25.9078L0.209093 29.4498L0.294442 28.6104L0.887614 22.8449V22.849ZM2.74821 29.9043L2.77808 30.2073L1.03271 29.9043H2.74394H2.74821ZM3.05973 31.2638L3.02133 30.9035C3.02133 30.9035 3.04693 30.9035 3.05973 30.8994V31.2638ZM8.92744 31.4481L10.0199 31.6405L8.44096 31.9149L8.92744 31.4481ZM12.2731 31.4112L13.5363 31.1901L13.5747 31.2065L17.155 32.7134L12.8492 31.964L12.2731 31.4112ZM17.9402 30.8994H17.9744L17.9402 31.2474V30.8994ZM18.2219 30.2114L18.2518 29.9084H19.9673L18.2219 30.2114ZM18.2688 29.7405L18.5548 26.9438L20.7397 29.7405H18.2646H18.2688ZM18.67 25.9078L20.0868 22.8899L20.1081 22.849L20.7013 28.6145L20.7866 29.4539L18.67 25.9119V25.9078ZM19.5448 15.6667L19.2546 12.8454L19.4893 12.7471L19.8606 12.5874L19.6131 15.0238L19.5491 15.6667H19.5448ZM19.9033 12.1615L19.0412 10.4581L18.9986 10.3721L18.6614 7.10856L20.7866 3.55018L20.6927 4.46332L19.899 12.1615H19.9033ZM13.7454 1.71981L13.5363 1.8058L12.2731 1.58468L12.8492 1.03188L17.155 0.28253L13.7454 1.71571V1.71981ZM10.0199 1.36356L9.90042 1.38403L8.92744 1.55192L8.71834 1.35127L8.44096 1.08511L10.0028 1.35537H10.0199V1.36356ZM3.05973 2.10472C3.05973 2.10472 3.03413 2.10472 3.02133 2.10062L3.05973 1.74028V2.10472ZM0.170687 14.3646L0.985765 12.7553L1.3613 16.4201H0.170687V14.3646ZM1.3613 16.5839L0.96016 20.4945L0.554755 20.6665L0.170687 20.8302V16.5839H1.3613ZM10.5832 31.5381V30.019L11.9232 31.3047L10.6728 31.5218L10.5832 31.5381ZM19.6387 16.4201L20.0099 12.8003V12.7553L20.8293 14.3646V16.4201H19.6387ZM18.1451 2.07605L17.9658 0.311194L19.5277 1.89179L18.1493 2.07605H18.1451ZM0.938823 12.3212L0.170687 11.9937V4.84004L0.938823 12.3212ZM0.926021 12.4932L0.170687 13.9878V12.1738L0.926021 12.4973V12.4932ZM0.746789 22.546L0.170687 28.1558V21.3175L0.746789 22.5419V22.546ZM12.0683 31.4481L12.5548 31.9149L10.9758 31.6405L12.0683 31.4481ZM18.1451 30.9239L19.5235 31.1082L17.9658 32.6888L18.1451 30.928V30.9239ZM20.2489 22.546L20.825 21.3175V28.1558L20.2489 22.546ZM20.8293 12.1738V13.9878L20.074 12.4932L20.8293 12.1697V12.1738ZM20.8293 11.9937L20.0612 12.3212L20.8293 4.84004V11.9937ZM16.6301 0.212919L13.0626 0.835329L13.1351 0.765717L13.7582 0.163781H16.9075L16.6301 0.212919ZM10.4125 1.26528L8.22759 0.884466L7.47652 0.163781H10.4125V1.26528ZM7.23754 0.163781L7.93313 0.835329L4.09245 0.163781H7.23754ZM3.02986 0.348047L2.85063 2.07605L1.47225 1.89179L3.03413 0.311194V0.348047H3.02986ZM2.85063 30.9239L3.02986 32.6888L1.46798 31.1082C1.89899 31.0509 2.24039 31.0058 2.84636 30.9239H2.85063ZM7.23754 32.8362H4.09245L7.93313 32.1687L7.23754 32.8362ZM10.5832 31.7347L10.8222 31.7756L12.7639 32.1155L12.8449 32.1933L13.5107 32.8321H10.5747V31.7306L10.5832 31.7347Z" fill="black"/>
<path d="M20.9957 3.17346C20.9957 3.17346 20.9957 3.16527 20.9957 3.16118V3.15299C20.9957 3.15299 20.9957 3.1448 20.9957 3.1407C20.9957 3.1407 20.9957 3.1407 20.9957 3.13661C20.9957 3.13661 20.9957 3.13661 20.9957 3.13251C20.9957 3.13251 20.9957 3.13251 20.9915 3.12842C20.9915 3.12842 20.9915 3.12842 20.9915 3.12432L19.7795 1.89998L17.9189 0.0245579C17.9189 0.0245579 17.9146 0.0245579 17.9104 0.0204631C17.9018 0.0163683 17.8933 0.0122735 17.8848 0.00817871C17.8805 0.00817871 17.872 0.00817871 17.8677 0.00817871C17.8677 0.00817871 17.8634 0.00817871 17.8592 0.00817871H3.14508C3.14508 0.00817871 3.14081 0.00817871 3.13655 0.00817871C3.12374 0.00817871 3.11094 0.0122735 3.09814 0.0245579C3.09387 0.0245579 3.08961 0.0286527 3.08534 0.0327475C3.08534 0.0327475 3.08107 0.0327475 3.0768 0.0409371C3.0768 0.0409371 3.06827 0.0409371 3.06827 0.0450319L1.23328 1.89588L0.0213268 3.12023C0.0213268 3.12023 0.0213268 3.12023 0.0213268 3.12432C0.0213268 3.12432 0.0213268 3.12432 0.0170593 3.12842C0.0170593 3.12842 0.0170593 3.12842 0.0170593 3.13251C0.0170593 3.13251 0.0170593 3.13251 0.0170593 3.13661C0.0170593 3.13661 0.0170593 3.1448 0.0170593 3.14889V3.15708C0.0170593 3.15708 0.0170593 3.16527 0.0170593 3.16937C0.0170593 3.16937 0.0170593 3.16937 0.0170593 3.17346V20.9367C0.0170593 20.9367 0.0170593 20.9408 0.0170593 20.9449C0.0170593 20.9449 0.0170593 20.949 0.0170593 20.9531V29.8224C0.0170593 29.8224 0.0170593 29.8224 0.0170593 29.8265C0.0170593 29.8265 0.0170593 29.8347 0.0170593 29.8388V29.847C0.0170593 29.847 0.0170593 29.8552 0.0170593 29.8593C0.0170593 29.8593 0.0170593 29.8593 0.0170593 29.8634C0.0170593 29.8634 0.0170593 29.8634 0.0170593 29.8675C0.0170593 29.8675 0.0170593 29.8675 0.0213268 29.8716C0.0213268 29.8716 0.0213268 29.8716 0.0213268 29.8757L1.23328 31.1L3.064 32.955L3.08107 32.9713C3.08107 32.9713 3.08961 32.9713 3.09387 32.9754C3.09387 32.9754 3.09387 32.9795 3.10241 32.9836C3.10668 32.9836 3.11094 32.9836 3.11521 32.9836C3.11521 32.9836 3.11521 32.9836 3.11948 32.9836C3.12374 32.9836 3.13228 32.9836 3.13655 32.9836H17.8506C17.8506 32.9836 17.8506 32.9836 17.8549 32.9836C17.8549 32.9836 17.8549 32.9836 17.8592 32.9836C17.8592 32.9836 17.8592 32.9836 17.8677 32.9795C17.8762 32.9795 17.8848 32.9795 17.8933 32.9713C17.8933 32.9713 17.8976 32.9713 17.9018 32.9672C17.9061 32.9672 17.9104 32.959 17.9189 32.955L19.7582 31.0918L20.9701 29.8675C20.9701 29.8675 20.9701 29.8675 20.9701 29.8634C20.9701 29.8634 20.9701 29.8634 20.9744 29.8593C20.9744 29.8593 20.9744 29.8593 20.9744 29.8552C20.9744 29.8552 20.9744 29.8552 20.9744 29.8511C20.9744 29.8511 20.9744 29.8429 20.9744 29.8388V29.8306C20.9744 29.8306 20.9744 29.8224 20.9744 29.8183C20.9744 29.8183 20.9744 29.8183 20.9744 29.8142V20.9449C20.9744 20.9449 20.9744 20.9408 20.9744 20.9367V20.9285V3.17756C20.9744 3.17756 20.9744 3.17755 20.9744 3.17346H20.9957ZM19.6686 30.9608L18.1622 30.7601L18.1878 30.5308L18.2048 30.3752L20.6714 29.9453L19.6686 30.9567V30.9608ZM13.7582 32.8362L13.6088 32.6929L13.0626 32.1687L16.9033 32.8362H13.7582ZM10.4125 32.8362H7.48079L8.23185 32.1155L10.2375 31.7675L10.4168 31.7347V32.8362H10.4125ZM0.328581 29.9494L2.79942 30.3793L2.82076 30.5923L2.83783 30.7642C2.17211 30.8502 1.82218 30.8994 1.33143 30.9649L0.328581 29.9535V29.9494ZM1.32716 2.0392L2.55618 2.20299L2.83356 2.23985L2.81649 2.39545L2.79515 2.62066L0.328581 3.05062L1.33143 2.0392H1.32716ZM12.8407 0.814855L12.7681 0.884466L10.5832 1.26528V0.163781H13.5192L12.8407 0.814855ZM20.6714 3.05062L18.2048 2.62066L18.1664 2.23985L18.4139 2.20709L19.6728 2.0392L20.6714 3.05062ZM20.8293 20.8302L20.0398 20.4945L19.6387 16.5839H20.8293V20.8302ZM20.7952 20.994L20.441 21.7475L20.2191 22.2184L20.0612 20.6787L20.2873 20.777L20.7952 20.994ZM10.293 31.5177L9.07254 31.3047L10.4125 30.019V31.5381L10.293 31.5177ZM8.1465 31.964L3.75106 32.7297L6.59316 31.5422L7.44238 31.1901L8.72261 31.4112L8.15931 31.9517L8.1465 31.964ZM3.00426 30.7397L2.97439 30.4244V30.408L3.05973 30.4244V30.7315C3.05973 30.7315 3.04266 30.7315 3.03413 30.7315C3.02559 30.7315 3.01706 30.7315 3.00426 30.7315V30.7397ZM0.708382 20.777L0.943091 20.6787L0.82787 21.8007L0.785196 22.2184L0.209093 20.9899L0.71265 20.777H0.708382ZM3.23043 0.479081L3.2731 0.577356L4.01137 2.23166C3.72545 2.1948 3.61023 2.17842 3.36699 2.14566C3.32431 2.14157 3.28164 2.13338 3.23043 2.12929V0.479081ZM3.49928 2.32584C3.49928 2.32584 3.51208 2.32584 3.51635 2.32584C3.59316 2.33403 3.66571 2.34631 3.74252 2.3545C3.82787 2.36678 3.92175 2.37907 4.05404 2.39545L3.22616 2.53877V2.28489C3.30298 2.29308 3.36272 2.30127 3.4182 2.30946C3.4438 2.30946 3.46941 2.31765 3.49074 2.31765L3.49928 2.32584ZM10.6814 1.47821L11.9232 1.69524L10.5832 2.981V1.46183L10.6771 1.47821H10.6814ZM13.2589 31.0754L12.128 31.272L10.8819 30.0763L11.7141 30.4285L13.2589 31.0795V31.0754ZM11.7141 2.57562L10.8819 2.92777L12.128 1.73209L13.2589 1.92864L11.7141 2.57971V2.57562ZM17.2148 30.6373L16.9417 30.6004L17.7695 30.4571V30.711L17.2105 30.6373H17.2148ZM2.23185 10.2861L3.05973 8.64821V13.2262L2.47936 12.9805L1.92887 12.7471L2.16784 10.4172L2.23185 10.2902V10.2861ZM17.7695 2.29308V2.54696L16.9417 2.40364L17.219 2.36678L17.7695 2.29308ZM16.5235 29.7405L11.6458 18.8525L11.8976 18.4307L17.7695 25.9406V29.7446H16.5235V29.7405ZM3.23043 25.9406L9.10241 18.4307L9.35419 18.8525L6.47794 25.2731L4.47652 29.7446H3.23043V25.9406ZM2.41535 13.132L3.05547 13.4064V16.4201H1.54906L1.90753 12.9191L2.41535 13.1361V13.132ZM4.47225 3.25945L6.47367 7.72688L9.34992 14.1475L9.09814 14.5693L3.23043 7.05943V3.25945H4.47652H4.47225ZM17.7695 7.05943L11.8976 14.5693L11.6458 14.1475L16.5235 3.25945H17.7695V7.06352V7.05943ZM9.4566 19.0285L10.3997 20.605L5.32574 29.0936L4.94167 29.7364H4.65575L5.33427 28.2214L9.45234 19.0244L9.4566 19.0285ZM4.58747 29.9043H4.84778L4.48932 30.5063L4.33143 30.4776L4.58747 29.9043ZM10.4125 20.9162V29.7446H5.13797L10.4125 20.9162ZM16.054 29.7405L15.2006 28.3074L10.6003 20.605L11.5434 19.0285L16.3357 29.7242L16.3442 29.7405H16.0583H16.054ZM11.4751 18.8074L10.4979 20.4412L9.52061 18.8074L9.18349 18.2423L8.62019 17.3005L8.1465 16.5061L8.62019 15.7117L9.18349 14.7699L9.52061 14.2049L10.4979 12.571L11.4751 14.2049L11.8122 14.7699L12.3755 15.7117L12.8492 16.5061L12.3755 17.3005L11.8122 18.2423L11.4751 18.8074ZM2.47936 20.0195L3.05973 19.7738V24.6835L2.48363 25.6498L1.92887 20.257L2.47936 20.0236V20.0195ZM9.00852 14.7249L8.50924 15.5561L7.74537 15.2286L7.26741 15.0238L3.76813 9.16825L3.23043 8.27149V7.33378L9.00852 14.7249ZM6.99857 18.0867L3.22616 24.3968V19.7001L6.99857 18.0867ZM3.23043 13.4801L7.14366 15.1548L7.89899 16.4201H3.23043V13.4801ZM7.89899 16.5839L7.14366 17.8492L6.02559 18.3283L3.22616 19.524V16.5839H7.89473H7.89899ZM7.40824 17.7346L8.04409 16.6658L8.41962 17.3005L7.40397 17.7346H7.40824ZM8.04835 16.3342L7.40824 15.2654L8.42389 15.6995L8.04835 16.3342ZM3.23043 24.7285L3.76386 23.8358L7.26741 17.9762L8.5135 17.4438L9.01279 18.2751L3.2347 25.6662V24.7285H3.23043ZM16.3272 3.28402L11.5391 13.9715L10.596 12.395L15.2432 4.61892L16.054 3.25945H16.34L16.3314 3.28402H16.3272ZM10.5832 12.0837V3.25945H15.8577L10.5832 12.0878V12.0837ZM10.4125 12.0837L5.14224 3.25945H10.4168V12.0878L10.4125 12.0837ZM4.48505 2.49372L4.84352 3.09566H4.5832L4.32716 2.52239L4.48505 2.49372ZM4.66002 3.25945H4.94594L5.30867 3.86548L10.404 12.395L9.46087 13.9715L5.33854 4.77862L4.65575 3.25945H4.66002ZM17.7695 24.3968L13.9971 18.0867L17.7695 19.7001V24.3968ZM12.7169 15.6421L13.5917 15.2695L12.9516 16.3382L12.5718 15.7036L12.7169 15.6421ZM12.9516 16.6658L13.5917 17.7346L12.5761 17.3005L12.9559 16.6658H12.9516ZM11.9915 18.2751L12.4865 17.4438L13.1778 17.7387L13.7326 17.9762L17.7695 24.7285V25.6662L11.9915 18.2751ZM17.7695 19.5199L14.936 18.3078L13.8563 17.8451L13.101 16.5798H17.7738V19.5199H17.7695ZM13.7368 15.0279L12.4907 15.5602L11.9957 14.729L17.7738 7.33787V8.27558L13.7368 15.032V15.0279ZM16.4125 3.09566H16.1522L16.5107 2.49372L16.6686 2.52239L16.5875 2.70256L16.4082 3.09566H16.4125ZM16.3229 2.48553L16.1735 2.73532L15.9559 3.09975H11.7354L16.3229 2.48963V2.48553ZM5.04409 3.09566L4.67709 2.48553C6.4182 2.71894 8.1465 2.94825 9.2603 3.09566H5.04409ZM3.05973 7.98895L2.50924 7.07171L2.56898 6.49434L3.05973 7.12085V7.99304V7.98895ZM6.99857 14.9133L3.22616 13.2999V8.60317L6.99857 14.9133ZM3.05973 16.5839V19.5977L2.48363 19.8434L1.9118 20.0891L1.55333 16.588H3.05973V16.5839ZM2.56898 26.5097L2.50924 25.9324L3.05973 25.0151V25.8873L2.66713 26.391L2.57325 26.5138L2.56898 26.5097ZM4.67709 30.5185L4.95447 30.0558L5.04409 29.9043H9.26457C8.15077 30.0517 6.4182 30.2851 4.67709 30.5144V30.5185ZM10.5832 20.9162L15.8577 29.7446H10.5832V20.9162ZM16.6686 30.4776L16.5107 30.5063L16.1522 29.9043H16.4125L16.5917 30.2974L16.6728 30.4776H16.6686ZM17.9402 24.6835V19.7738L18.7852 20.1341L19.0668 20.257L18.5121 25.6498L18.0213 24.8268L17.936 24.6875L17.9402 24.6835ZM17.7695 16.4201H13.101L13.8563 15.1548L17.7695 13.4801V16.4201ZM17.7695 13.2999L13.9971 14.9133L17.7695 8.60317V13.2999ZM16.596 3.09566L16.6643 2.94415L16.8392 2.55515L17.7653 2.71484V3.09566H16.5917H16.596ZM9.89188 3.01376C9.57609 2.97281 9.14935 2.91549 8.65433 2.84997C7.68135 2.71894 6.42673 2.55105 5.13797 2.37907L7.42104 1.98187L8.20198 2.30536L9.89188 3.00967V3.01376ZM3.23043 2.71075L4.15646 2.55105L4.39971 3.09566H3.23043V2.71484V2.71075ZM2.89757 8.04627L3.04693 8.30015L2.21478 9.94626L2.47936 7.35425L2.8933 8.04627H2.89757ZM2.28733 25.4246L0.926021 22.5214L1.12232 20.605L1.7667 20.3307L2.28733 25.4287V25.4246ZM4.39971 29.9043L4.15646 30.4489L3.23043 30.2892V29.9084H4.39971V29.9043ZM3.23043 30.453L4.05831 30.5963L3.23043 30.7069V30.453ZM7.42104 31.0181L5.13797 30.6209C5.58605 30.5595 6.02559 30.5022 6.45234 30.4448C6.53342 30.4326 6.61023 30.4244 6.68705 30.4121C6.76813 30.3998 6.84494 30.3916 6.92602 30.3793C7.13086 30.3507 7.33143 30.3261 7.52346 30.3015C8.5135 30.1705 9.35419 30.0558 9.88761 29.9862L8.65006 30.5022L7.41677 31.0181H7.42104ZM15.9559 29.9043L16.1735 30.2688L16.3229 30.5185L11.7354 29.9084H15.9559V29.9043ZM13.5576 31.0222L11.0953 29.9862L15.8577 30.6209L13.5576 31.0222ZM16.788 30.7438L17.1892 31.6364L16.6429 30.7233L16.788 30.7438ZM17.7695 30.2892L16.8435 30.4489L16.6686 30.064L16.596 29.9084H17.7695V30.2892ZM18.4267 26.5097L17.9402 25.8873V25.0151L18.4865 25.9324L18.4395 26.3746L18.4267 26.5138V26.5097ZM19.2333 20.3266L19.8777 20.6009L20.074 22.5173L18.7126 25.4205L19.2333 20.3266ZM19.1223 19.7369L19.0882 20.085L17.9402 19.5936V16.5798H19.4466L19.1223 19.7328V19.7369ZM18.8321 10.4131L19.0711 12.743L18.7895 12.8659L17.9445 13.2262V8.6523L18.7468 10.2452L18.8321 10.4172V10.4131ZM18.5163 7.35016L18.7809 9.94217L17.9488 8.29606L18.5121 7.35016H18.5163ZM18.4865 7.07171L17.9402 7.98895V7.11675L18.4267 6.49434L18.4395 6.62947L18.4865 7.07171ZM18.0939 3.25945L18.4011 6.24866L18.2304 6.46978L17.9402 6.8424V3.25945H18.0939ZM16.788 2.25622L16.6429 2.2767L17.1892 1.36356L17.1081 1.54373L16.788 2.25622ZM13.5576 1.97778L15.8577 2.37907L11.0953 3.01376L13.1607 2.14566L13.5576 1.97778ZM7.72403 1.92864L8.8677 1.728L10.1181 2.92777L7.72403 1.92864ZM4.35703 2.2767C4.35703 2.2767 4.32716 2.2767 4.31436 2.2726C4.28875 2.2726 4.25461 2.26441 4.21194 2.26032L3.8108 1.36356L4.35703 2.2767ZM3.05973 6.8424L2.59458 6.24866L2.90184 3.25945H3.05973V6.8424ZM2.41962 6.29779L2.36414 6.82602L0.849207 4.29134L1.97154 5.72862L2.41962 6.29779ZM1.74537 12.8454L1.45518 15.6667L1.13939 12.5874L1.74537 12.8454ZM1.74537 20.1546L1.3485 20.3266L1.13939 20.4167L1.45518 17.3374L1.74537 20.1587V20.1546ZM2.41962 26.7022L2.06116 27.1608L0.849207 28.7086L2.36414 26.174L2.41962 26.7022ZM2.90184 29.7405L2.59458 26.7513L3.05973 26.1576V29.7405H2.90184ZM4.21194 30.7438L4.27595 30.7356L4.35703 30.7233L3.8108 31.6364L3.95589 31.317L4.21194 30.7438ZM7.72403 31.0713L10.1181 30.0722L8.8677 31.272L7.72403 31.0713ZM17.9402 26.1576L18.2048 26.4974L18.4011 26.7513L18.0939 29.7405H17.9402V26.1576ZM19.2503 20.1546L19.5405 17.3374L19.8563 20.4167L19.2503 20.1546ZM19.4509 16.4201H17.9445V13.4064L19.0925 12.915L19.1309 13.2794L19.4552 16.4201H19.4509ZM18.5548 6.0562L18.2688 3.25945H20.7439L18.559 6.0562H18.5548ZM18.0469 2.75989L18.0811 3.09566H17.9445V2.74351H17.953L18.0469 2.76398V2.75989ZM17.9402 2.57562V2.26851L17.9915 2.26032L18.0256 2.5879L17.9402 2.57152V2.57562ZM16.9843 2.23166L17.7695 0.479081V2.12929L16.9843 2.23166ZM16.404 2.30946L13.8392 1.86312L17.6501 0.262056L16.4296 2.30946H16.404ZM7.13939 1.86312L4.59601 2.30536H4.5704L3.36699 0.286625L6.30724 1.51507L7.13939 1.86312ZM3.05973 2.74351V3.09566H2.91891L2.95305 2.75989L3.04693 2.74351H3.05547H3.05973ZM2.44096 6.0562L0.294442 3.30859L0.256035 3.25945H2.73114L2.44522 6.0562H2.44096ZM1.9502 10.843L1.92887 11.0519L1.76244 12.6734L1.15646 12.4154L1.38264 11.9691L1.9502 10.843ZM2.44096 26.9438L2.72687 29.7405H0.256035L2.44096 26.9438ZM2.95305 30.2401L2.91891 29.9043H3.05973V30.2565H3.04693L2.95305 30.2401ZM4.01137 30.7683L3.26457 32.439L3.23043 32.5168V30.8707L4.01564 30.7642L4.01137 30.7683ZM3.36699 32.7134L4.5704 30.6987H4.59601L7.13939 31.1369L6.30724 31.4849L3.36699 32.7134ZM13.8392 31.141L16.404 30.6946H16.4296L16.6942 31.1369L17.6543 32.742L13.8435 31.141H13.8392ZM17.2831 31.4358L16.9843 30.7683L17.7695 30.8748V32.525L17.2831 31.4358ZM17.9402 30.7315V30.4244L18.0256 30.408L17.9915 30.7397L17.9402 30.7315ZM17.9402 30.2565V29.9043H18.0768L18.0427 30.2401L17.9488 30.2565H17.9402ZM20.1508 28.7086L18.5804 26.7022L18.5889 26.5998L18.6316 26.174L18.8407 26.5261L20.1465 28.7086H20.1508ZM19.8435 12.4154L19.2375 12.6734L19.0498 10.843L19.8051 12.3376L19.8435 12.4154ZM18.6358 6.82602L18.5932 6.40426L18.5804 6.29779L20.1508 4.29134L18.8279 6.50253L18.6358 6.82602ZM18.2518 3.09566L18.2219 2.80493V2.79264L19.963 3.09566H18.2475H18.2518ZM17.9402 2.10472V1.75666L17.9744 2.10062H17.9402V2.10472ZM12.5548 1.08921L12.2774 1.35537L12.0683 1.55601L10.9758 1.36765L11.2404 1.32261L12.5548 1.0933V1.08921ZM10.4125 1.46183V2.981L9.07254 1.69524L10.2888 1.48231L10.4125 1.46183ZM8.72261 1.58877L7.44238 1.80989L6.71692 1.50688L3.75532 0.270246L8.1465 1.03597L8.72261 1.58877ZM3.05973 2.26851V2.57562L2.97439 2.592L3.00852 2.26441C3.00852 2.26441 3.02986 2.26441 3.0384 2.26441C3.04693 2.26441 3.05547 2.26441 3.064 2.26441L3.05973 2.26851ZM2.74821 3.09566H1.03697L2.78235 2.79264L2.75248 3.09566H2.74821ZM2.33427 7.10856L1.99714 10.3721L1.93313 10.4991L1.09672 12.1615L0.209093 3.55018L2.33427 7.10856ZM0.887614 22.849L2.32574 25.9078L0.209093 29.4498L0.294442 28.6104L0.887614 22.8449V22.849ZM2.74821 29.9043L2.77808 30.2073L1.03271 29.9043H2.74394H2.74821ZM3.05973 31.2638L3.02133 30.9035C3.02133 30.9035 3.04693 30.9035 3.05973 30.8994V31.2638ZM8.92744 31.4481L10.0199 31.6405L8.44096 31.9149L8.92744 31.4481ZM12.2731 31.4112L13.5363 31.1901L13.5747 31.2065L17.155 32.7134L12.8492 31.964L12.2731 31.4112ZM17.9402 30.8994H17.9744L17.9402 31.2474V30.8994ZM18.2219 30.2114L18.2518 29.9084H19.9673L18.2219 30.2114ZM18.2688 29.7405L18.5548 26.9438L20.7397 29.7405H18.2646H18.2688ZM18.67 25.9078L20.0868 22.8899L20.1081 22.849L20.7013 28.6145L20.7866 29.4539L18.67 25.9119V25.9078ZM19.5448 15.6667L19.2546 12.8454L19.4893 12.7471L19.8606 12.5874L19.6131 15.0238L19.5491 15.6667H19.5448ZM19.9033 12.1615L19.0412 10.4581L18.9986 10.3721L18.6614 7.10856L20.7866 3.55018L20.6927 4.46332L19.899 12.1615H19.9033ZM13.7454 1.71981L13.5363 1.8058L12.2731 1.58468L12.8492 1.03188L17.155 0.28253L13.7454 1.71571V1.71981ZM10.0199 1.36356L9.90042 1.38403L8.92744 1.55192L8.71834 1.35127L8.44096 1.08511L10.0028 1.35537H10.0199V1.36356ZM3.05973 2.10472C3.05973 2.10472 3.03413 2.10472 3.02133 2.10062L3.05973 1.74028V2.10472ZM0.170687 14.3646L0.985765 12.7553L1.3613 16.4201H0.170687V14.3646ZM1.3613 16.5839L0.96016 20.4945L0.554755 20.6665L0.170687 20.8302V16.5839H1.3613ZM10.5832 31.5381V30.019L11.9232 31.3047L10.6728 31.5218L10.5832 31.5381ZM19.6387 16.4201L20.0099 12.8003V12.7553L20.8293 14.3646V16.4201H19.6387ZM18.1451 2.07605L17.9658 0.311194L19.5277 1.89179L18.1493 2.07605H18.1451ZM0.938823 12.3212L0.170687 11.9937V4.84004L0.938823 12.3212ZM0.926021 12.4932L0.170687 13.9878V12.1738L0.926021 12.4973V12.4932ZM0.746789 22.546L0.170687 28.1558V21.3175L0.746789 22.5419V22.546ZM12.0683 31.4481L12.5548 31.9149L10.9758 31.6405L12.0683 31.4481ZM18.1451 30.9239L19.5235 31.1082L17.9658 32.6888L18.1451 30.928V30.9239ZM20.2489 22.546L20.825 21.3175V28.1558L20.2489 22.546ZM20.8293 12.1738V13.9878L20.074 12.4932L20.8293 12.1697V12.1738ZM20.8293 11.9937L20.0612 12.3212L20.8293 4.84004V11.9937ZM16.6301 0.212919L13.0626 0.835329L13.1351 0.765717L13.7582 0.163781H16.9075L16.6301 0.212919ZM10.4125 1.26528L8.22759 0.884466L7.47652 0.163781H10.4125V1.26528ZM7.23754 0.163781L7.93313 0.835329L4.09245 0.163781H7.23754ZM3.02986 0.348047L2.85063 2.07605L1.47225 1.89179L3.03413 0.311194V0.348047H3.02986ZM2.85063 30.9239L3.02986 32.6888L1.46798 31.1082C1.89899 31.0509 2.24039 31.0058 2.84636 30.9239H2.85063ZM7.23754 32.8362H4.09245L7.93313 32.1687L7.23754 32.8362ZM10.5832 31.7347L10.8222 31.7756L12.7639 32.1155L12.8449 32.1933L13.5107 32.8321H10.5747V31.7306L10.5832 31.7347Z" stroke="black" stroke-width="0.2" mask="url(#path-1-outside-1_1_24080)"/>
</g>
<defs>
<clipPath id="clip0_1_24080">
<rect width="21" height="33" fill="white"/>
</clipPath>
</defs>
</svg>
