<svg width="717" height="107" viewBox="0 0 717 107" fill="none" xmlns="http://www.w3.org/2000/svg">
<circle cx="360" cy="5" r="5" fill="black"/>
<line x1="360.25" y1="17" x2="360.25" y2="77" stroke="black" stroke-width="0.5"/>
<g clip-path="url(#clip0_8_15624)">
<path d="M5.94057 84.8483H710.752" stroke="black" stroke-width="0.75" stroke-miterlimit="10"/>
<path d="M12.4786 84.8483C12.4786 88.2811 9.67904 91.0682 6.23077 91.0682C2.78251 91.0682 -0.0170708 88.2811 -0.0170708 84.8483C-0.0170708 81.4154 2.78251 78.6284 6.23077 78.6284C9.67904 78.6284 12.4786 81.4154 12.4786 84.8483Z" fill="black"/>
<path d="M717 84.8483C717 88.2811 714.2 91.0682 710.752 91.0682C707.304 91.0682 704.504 88.2811 704.504 84.8483C704.504 81.4154 707.304 78.6284 710.752 78.6284C714.2 78.6284 717 81.4154 717 84.8483Z" fill="black"/>
<path d="M366.404 76.793C362.734 81.1265 358.534 84.5764 353.328 86.9386C348.121 89.3008 342.932 90.4904 337.52 91.2211C323.966 93.0225 310.002 91.561 296.653 89.0459C269.306 83.8966 243.12 73.6321 215.414 70.1822C200.494 68.3299 185.148 68.3468 170.774 73.1732C170.331 73.3262 170.553 74.0569 171.013 73.955C184.738 70.811 198.856 70.1992 212.836 71.7117C226.817 73.2242 241.174 76.725 255.052 80.4808C281.375 87.6013 308.91 96.2684 336.547 93.0225C347.711 91.714 361.061 87.5674 366.967 77.2009C367.189 76.827 366.694 76.4531 366.404 76.793Z" fill="black"/>
<path d="M317.906 91.493C278.302 101.112 237.606 96.4724 198.326 87.6863C178.183 83.1828 158.279 77.7107 138.238 72.7654C128.644 70.4032 118.999 68.007 109.269 66.2735C99.5388 64.5401 90.1328 63.6734 80.6245 65.2879C65.1073 67.922 47.7465 79.9879 48.6171 97.373C48.6342 97.7979 49.317 97.7639 49.3512 97.3561C50.9387 81.3305 64.9366 70.0123 80.1465 67.2082C89.8597 65.4068 99.829 66.3925 109.474 68.1429C119.119 69.8933 129.071 72.3405 138.784 74.7367C176.903 84.1515 214.936 95.4357 254.335 98.0358C275.656 99.4463 297.438 98.3757 318.128 92.7506C318.93 92.5297 318.742 91.2721 317.906 91.459V91.493Z" fill="black"/>
<path d="M50.9387 97.3221C50.9387 98.3927 50.0681 99.2764 48.9756 99.2764C47.8831 99.2764 47.0125 98.4097 47.0125 97.3221C47.0125 96.2344 47.8831 95.3677 48.9756 95.3677C50.0681 95.3677 50.9387 96.2344 50.9387 97.3221Z" fill="black"/>
<path d="M75.0595 104.137C75.0595 105.207 74.1889 106.091 73.0964 106.091C72.0039 106.091 71.1333 105.224 71.1333 104.137C71.1333 103.049 72.0039 102.182 73.0964 102.182C74.1889 102.182 75.0595 103.049 75.0595 104.137Z" fill="black"/>
<path d="M121.748 60.9543C121.748 62.025 120.877 62.9087 119.785 62.9087C118.692 62.9087 117.821 62.042 117.821 60.9543C117.821 59.8667 118.692 59 119.785 59C120.877 59 121.748 59.8667 121.748 60.9543Z" fill="black"/>
<path d="M173.369 74.1249C173.369 75.4674 172.277 76.5551 170.945 76.5551C169.614 76.5551 168.504 75.4674 168.504 74.1249C168.504 72.7823 169.597 71.6947 170.945 71.6947C172.294 71.6947 173.369 72.7823 173.369 74.1249Z" fill="black"/>
<path d="M91.0205 72.3575C88.1356 71.7967 84.6361 73.887 82.3487 75.4674C79.5662 77.3708 77.1763 79.886 75.4009 82.741C73.4037 85.9019 72.1575 89.4537 71.6112 93.1585C71.065 96.8632 71.065 100.959 72.3453 104.324C72.4989 104.698 73.1647 104.613 73.1647 104.188C73.1647 102.471 72.8745 100.789 72.9257 99.0555C72.9769 97.3221 73.0622 95.6056 73.3183 93.8722C73.8304 90.2695 75.0083 86.6667 76.9373 83.5737C78.559 80.9566 80.6757 78.6624 83.1851 76.861C84.4654 75.9433 85.8481 75.1446 87.2821 74.4818C88.5794 73.887 89.9792 73.5471 91.1571 72.7314C91.3278 72.6124 91.2083 72.3915 91.0376 72.3575H91.0205Z" fill="black"/>
<path d="M147.866 75.6884C145.544 74.4818 142.983 73.751 140.577 72.7484C138.17 71.7457 135.78 70.6071 133.458 69.3835C131.136 68.1599 128.866 66.7664 126.664 65.3049C124.462 63.8434 122.311 62.076 120.006 60.6824C119.682 60.4955 119.255 60.8694 119.528 61.1753C121.253 63.1296 123.54 64.7441 125.674 66.2396C127.808 67.7351 130.181 69.1456 132.536 70.4201C134.892 71.6947 137.367 72.8503 139.877 73.87C142.386 74.8896 145.015 75.9603 147.729 76.2322C148.053 76.2662 148.105 75.8583 147.849 75.7224L147.866 75.6884Z" fill="black"/>
<path d="M200.546 66.3415C200.494 66.2056 200.494 66.2056 200.546 66.3415C200.597 66.6134 200.699 66.8514 200.87 67.0553C201.007 67.2252 201.211 67.3782 201.399 67.5141C201.689 67.7351 201.98 67.956 202.287 68.1599C202.867 68.5678 203.482 68.9077 204.096 69.2645C204.387 69.4345 204.677 69.6044 204.984 69.7744C205.394 70.0123 205.82 70.1992 206.247 70.4032C206.384 70.4711 206.537 70.5391 206.674 70.6071C206.759 70.6581 206.862 70.6921 206.964 70.743C207.254 70.862 207.562 70.879 207.869 70.845C207.459 70.845 207.937 70.879 207.988 70.879C208.398 70.913 208.722 70.811 209.081 70.6241L208.603 70.709C208.774 70.709 208.927 70.709 209.098 70.6921C209.593 70.6241 209.866 70.0633 209.678 69.6214C209.61 69.4685 209.525 69.3325 209.439 69.1966L209.644 69.6384C209.61 69.0436 209.371 68.6867 208.996 68.2449L209.337 68.9926C209.166 68.3299 208.876 67.956 208.313 67.5821C208.176 67.4971 208.057 67.4122 207.92 67.3272C207.852 67.2932 207.784 67.2422 207.715 67.2082C207.869 67.3952 207.835 67.3782 207.647 67.1742C207.289 66.8344 206.793 66.6474 206.367 66.4095C206.094 66.2566 205.803 66.1206 205.53 65.9676C204.967 65.6787 204.421 65.3898 203.84 65.1349C203.55 65.016 203.26 64.897 202.97 64.7781C202.679 64.6591 202.389 64.5741 202.065 64.5741C201.98 64.5741 201.109 64.7781 201.502 64.6761C200.682 64.863 200.358 65.5768 200.597 66.3415H200.546Z" fill="black"/>
<path d="M206.759 74.2099C206.828 74.7197 207.186 74.9746 207.63 75.1955L206.981 74.5667C207.51 75.7224 209.081 75.6204 210.156 75.5524C211.095 75.5014 212.034 75.4165 212.956 75.2125C213.946 74.9916 214.953 74.7537 215.875 74.3458C216.37 74.1249 216.797 73.802 217.189 73.5131C217.616 73.1902 217.975 72.9863 218.231 72.4765L217.923 72.8843C218.299 72.5444 218.726 72.2895 218.982 71.8477C219.187 71.5078 219.033 71.1169 218.623 71.0489C218.111 70.947 217.616 71.0999 217.104 71.1169L217.633 71.1679C217.036 70.93 216.336 71.1169 215.704 71.1679L216.472 71.2529C215.636 70.964 214.68 71.2359 213.844 71.4568C213.092 71.6437 212.341 71.7967 211.59 71.9326C210.839 72.0686 210.156 72.2385 209.422 72.3575C208.552 72.4934 207.306 72.6974 206.964 73.6321L207.596 72.9863C207.118 73.2582 206.708 73.6151 206.793 74.2099H206.759Z" fill="black"/>
<path d="M219.682 69.1286C219.682 69.1286 219.784 69.2305 219.818 69.2815C219.682 69.0266 219.716 69.0946 219.938 69.4515C220.074 69.6044 220.228 69.7234 220.399 69.8423C220.621 69.9953 220.843 70.1482 221.064 70.3012C221.474 70.5901 221.867 70.913 222.294 71.2019C222.72 71.4908 223.13 71.7797 223.574 72.0516C223.813 72.1875 224.035 72.3405 224.274 72.4934C224.444 72.5954 224.649 72.7314 224.837 72.8163C225.196 72.9693 225.52 72.9523 225.913 72.9353L225.196 72.8673C225.383 72.9523 225.554 73.0373 225.759 73.0882C226.186 73.1902 226.51 73.0543 226.868 72.8333L226.117 73.0543C226.459 73.0882 226.817 73.1052 227.073 72.8333C227.329 72.5614 227.295 72.2215 227.227 71.8816L227.176 72.4085C227.483 71.7797 227.107 71.2359 226.749 70.726L227.039 71.3548C226.903 70.4541 226.203 69.9443 225.571 69.3835C225.161 69.0266 224.735 68.7377 224.291 68.4488C223.762 68.1089 223.181 67.854 222.601 67.5991C222.345 67.4801 222.106 67.3782 221.85 67.2762C221.645 67.1912 221.474 67.1233 221.252 67.0893C220.808 67.0893 220.723 67.0893 221.03 67.0893C220.962 67.0893 220.877 67.0893 220.808 67.0723C219.767 66.9703 218.914 68.2959 219.682 69.1286Z" fill="black"/>
<path d="M230.624 78.2205C232.212 78.1865 233.765 78.0166 235.353 77.8296C236.087 77.7447 236.821 77.6597 237.538 77.5747C237.828 77.5407 238.067 77.4218 238.357 77.3708C238.101 77.4388 238.664 77.3198 238.664 77.3198C239.193 77.2179 239.552 77.0649 239.996 76.776L239.381 77.0479C239.774 76.9459 240.167 76.861 240.542 76.725C241.43 76.4191 241.191 75.2295 240.491 74.8896C240.303 74.7877 240.098 74.7367 239.893 74.6517C239.689 74.5667 239.535 74.4308 239.33 74.3458C239.091 74.2609 238.801 74.2269 238.562 74.1759C238.562 74.1759 238.016 74.0569 238.272 74.1249C237.725 73.9889 237.316 73.955 236.769 73.955C236.24 73.955 235.728 73.9719 235.199 74.0059C233.441 74.0909 231.699 74.5498 230.163 75.3825C229.566 75.7054 229.19 76.3002 229.293 76.9969C229.395 77.5917 229.975 78.2545 230.624 78.2375V78.2205Z" fill="black"/>
<path d="M241.498 71.1849C241.498 71.1849 241.327 71.7797 241.361 71.9156C241.361 71.9496 241.43 72.0856 241.396 71.9836C241.379 72.1366 241.396 72.2725 241.447 72.4085C241.464 72.4934 241.498 72.5784 241.549 72.6634C241.6 72.7654 241.652 72.8673 241.72 72.9693C241.754 73.0373 241.754 73.0543 241.754 72.9863C241.754 72.8333 241.788 72.9353 241.856 73.2752C241.925 73.4451 242.044 73.5981 242.147 73.751C242.3 73.972 242.454 74.1929 242.591 74.3968L242.283 73.717C242.437 74.3968 242.915 74.9236 243.325 75.4844C243.632 75.8923 243.939 76.2832 244.246 76.674C244.554 77.0649 244.878 77.4558 245.236 77.8127C245.407 77.9826 245.578 78.1525 245.749 78.3225C246.022 78.5944 246.244 78.8153 246.602 78.9683C246.824 79.0532 247.063 79.1042 247.285 79.1552L246.466 78.8323C247.165 79.2912 247.934 79.767 248.753 79.2572C249.214 78.9853 249.436 78.4924 249.419 77.9656C249.419 77.7277 249.35 77.4898 249.248 77.2688C249.248 77.2518 249.043 76.912 249.06 76.912C249.026 76.929 249.163 77.2179 249.06 76.9799C248.924 76.5891 248.838 76.3342 248.582 76.0283C248.429 75.8413 248.275 75.6544 248.121 75.4844C247.729 75.0086 247.268 74.6007 246.824 74.1759C246.483 73.853 246.124 73.5301 245.766 73.2242C245.561 73.0543 245.373 72.8843 245.168 72.7144C245.083 72.6294 244.98 72.5614 244.895 72.4765C244.724 72.3235 244.588 72.2895 244.383 72.1366C244.571 72.2555 244.4 72.1366 244.315 72.0686C244.229 72.0006 244.127 71.9156 244.042 71.8477C243.922 71.7457 243.803 71.6777 243.666 71.5928C243.512 71.4908 243.478 71.4738 243.564 71.5418L243.444 71.4568C243.325 71.3718 243.205 71.2869 243.086 71.2189C242.898 71.0999 242.727 71.0659 242.505 71.0149C242.181 70.93 241.959 70.947 241.6 71.1169H241.754C241.754 71.1169 241.669 71.0829 241.635 71.0659C241.549 71.0149 241.43 71.0999 241.481 71.2019L241.498 71.1849Z" fill="black"/>
<path d="M145.664 70.0293C145.715 70.1992 145.664 70.3352 145.664 70.5221C145.664 70.726 145.715 70.93 145.749 71.1339L145.783 70.76C145.681 71.0999 145.732 71.3718 145.817 71.7117L145.868 71.1849C145.629 72.0006 146.142 72.4595 146.466 73.1222C146.739 73.6661 147.098 74.2099 147.507 74.6687C147.917 75.1276 148.395 75.5864 148.89 75.9943C149.112 76.1642 149.334 76.3342 149.556 76.4871C149.726 76.6061 149.914 76.759 150.119 76.827C150.409 76.9459 150.665 76.912 150.973 76.895L150.324 76.827C150.665 76.9459 150.99 77.0649 151.348 77.1329C151.707 77.2009 152.133 76.9459 152.287 76.64C152.475 76.2662 152.424 75.9093 152.202 75.5694C152.048 75.3485 151.877 75.1446 151.724 74.9236L151.98 75.4844C151.911 75.2125 151.843 74.9406 151.655 74.7197C151.519 74.5498 151.331 74.4138 151.177 74.2778C151.075 74.1929 150.973 74.0909 150.87 74.0059C150.768 73.904 150.648 73.819 150.819 73.9719C150.546 73.734 150.307 73.4621 150.034 73.2242C149.982 73.1732 149.931 73.1392 149.88 73.0882C150.017 73.2242 150.034 73.2242 149.914 73.1222C149.829 73.0373 149.743 72.9523 149.658 72.8673C149.419 72.6294 149.146 72.4085 148.907 72.1706C149.146 72.4255 148.822 72.0856 148.787 72.0516C148.685 71.9496 148.583 71.8477 148.48 71.7457C148.395 71.6777 148.378 71.6607 148.429 71.7457C148.48 71.8137 148.48 71.8137 148.395 71.7117C148.344 71.6607 148.292 71.6097 148.258 71.5588C148.156 71.4568 148.071 71.3548 147.968 71.2529C147.661 70.913 147.388 70.5901 146.91 70.5561L147.388 70.743C147.115 70.5391 146.876 70.3692 146.534 70.3012L146.893 70.4371C146.756 70.3182 146.62 70.1992 146.449 70.1143C146.278 70.0293 146.124 69.9613 146.005 69.8084C145.851 69.6044 145.578 69.8084 145.646 70.0293H145.664Z" fill="black"/>
<path d="M119.75 74.9746C120.194 75.2635 120.604 75.4844 121.15 75.5014C121.662 75.5354 122.209 75.5184 122.721 75.4674C123.608 75.3825 124.53 75.1785 125.384 74.9916C126.34 74.7877 127.244 74.5667 128.149 74.2099C128.559 74.0399 128.9 73.802 129.276 73.5981C129.754 73.3432 130.3 73.0543 130.317 72.4255L130.146 72.8673C130.146 72.8673 130.266 72.7314 130.317 72.6464C130.522 72.3575 130.488 71.9156 130.181 71.7117C130.044 71.6267 129.89 71.5418 129.754 71.4738L130.249 71.9496C130.01 71.4058 129.515 71.2869 128.986 71.2189C128.508 71.1509 128.252 71.0659 127.739 71.0659C127.227 71.0659 126.698 71.0659 126.169 71.1169C125.708 71.1849 125.247 71.2699 124.786 71.3548C123.933 71.4908 123.062 71.6947 122.226 71.8986C121.713 72.0176 121.236 72.2215 120.758 72.4085C120.484 72.5104 120.262 72.6464 120.041 72.8333C119.904 72.9353 119.785 73.0712 119.665 73.1902C119.494 73.5301 119.443 73.6151 119.528 73.4281C119.204 73.887 119.255 74.6177 119.767 74.9576L119.75 74.9746Z" fill="black"/>
<path d="M104.182 63.0446C104.182 63.0446 104.25 63.1976 104.301 63.2656C104.25 63.1296 104.267 63.2146 104.37 63.5035C104.438 63.6394 104.506 63.7584 104.592 63.8774C104.677 64.0133 104.694 64.0303 104.626 63.9453C104.865 64.3192 105.121 64.6081 105.428 64.931C105.991 65.5258 106.572 66.0866 107.221 66.5964C107.801 67.0553 108.381 67.4801 109.03 67.854C109.423 68.0919 109.832 68.3129 110.242 68.5338C110.925 68.8737 111.591 68.8907 112.222 68.4318L110.771 68.6527C111.454 68.8397 112.273 69.1796 112.871 68.5848L112.427 68.7887C112.598 68.7717 112.751 68.7377 112.922 68.6697C113.195 68.5508 113.383 68.2109 113.332 67.922C113.298 67.752 113.229 67.5991 113.161 67.4461L113.246 67.939C113.332 67.5481 113.195 67.1403 112.922 66.8344C112.82 66.7154 112.7 66.6134 112.581 66.5115C112.751 66.6644 112.461 66.3925 112.444 66.3925L112.751 67.4461C112.888 66.2735 111.83 65.7297 111.01 65.1689C110.413 64.778 109.832 64.3872 109.235 63.9963C108.637 63.6054 108.074 63.2486 107.494 62.8917C106.76 62.4328 106.043 61.889 105.155 61.923L105.701 61.974C105.582 61.923 105.462 61.889 105.343 61.838C104.643 61.5661 103.858 62.3309 104.199 63.0276L104.182 63.0446Z" fill="black"/>
<path d="M96.7392 70.1992C97.5927 70.0463 98.395 69.7234 99.1803 69.3835C99.8802 69.0776 100.597 68.8397 101.314 68.5848C102.031 68.3298 102.782 68.1089 103.448 67.854C103.823 67.7011 104.319 67.5651 104.626 67.3272C104.814 67.1063 104.865 67.0723 104.762 67.1912C104.848 67.1572 104.933 67.1063 105.018 67.0723C105.206 66.9703 105.343 66.8853 105.462 66.6984C105.582 66.5115 105.616 66.2226 105.462 66.0526C105.326 65.9167 105.206 65.8147 105.001 65.7637C104.899 65.7297 104.779 65.7127 104.66 65.6957C104.592 65.6957 104.438 65.6617 104.592 65.6957C104.421 65.6278 104.284 65.5258 104.097 65.5088C103.977 65.5088 103.858 65.5088 103.738 65.4918C103.55 65.4918 103.346 65.4918 103.158 65.4918C102.27 65.4918 101.365 65.6787 100.512 65.8997C98.7877 66.3415 96.8587 67.0893 95.6637 68.4488C94.998 69.2135 95.8345 70.3862 96.7563 70.2332L96.7392 70.1992Z" fill="black"/>
<path d="M81.1366 62.8237L81.1708 62.9257L81.1025 62.4668C81.1025 62.7897 81.1025 63.0786 81.2732 63.3675C81.3586 63.5035 81.4439 63.6564 81.5634 63.7924C81.7853 64.0813 82.0926 64.3192 82.3657 64.5571C82.8949 65.016 83.4924 65.3729 84.1069 65.7127C84.7215 66.0526 85.336 66.2566 86.0188 66.4095C86.309 66.4775 86.6163 66.4945 86.9065 66.5115C87.4528 66.5455 87.9307 66.5115 88.3063 66.0526L87.7771 66.3755C88.1014 66.3075 88.4087 66.2566 88.6648 66.0356C88.8526 65.8657 88.8867 65.6108 88.7331 65.4068C88.5624 65.1859 88.3575 65.0839 88.1185 64.931L88.3746 65.2539C88.2209 64.7781 87.8113 64.6421 87.4016 64.4552C87.1455 64.3362 86.8894 64.2002 86.6334 64.0813C86.1383 63.8434 85.6262 63.6394 85.1312 63.3845C85.0799 63.3675 85.0287 63.3335 84.9946 63.3165C85.1312 63.3845 85.1312 63.4015 84.9946 63.3165C84.8751 63.2486 84.7556 63.1806 84.619 63.0956C84.3801 62.9427 84.1411 62.7897 83.9021 62.6368C83.6631 62.4838 83.4412 62.2969 83.2193 62.1269C83.0998 62.042 82.9803 61.974 82.8608 61.906C82.7071 61.7871 82.5194 61.7191 82.3145 61.7021C82.2804 61.7021 82.2292 61.7021 82.2121 61.7021C81.4951 61.3792 80.8976 62.1779 81.1366 62.8237Z" fill="black"/>
<path d="M76.3227 71.9156C76.5276 71.7287 76.6983 71.6267 76.9543 71.4398L76.5617 71.6097C76.6983 71.5758 76.8178 71.5418 76.9373 71.4738C77.0056 71.4398 77.0738 71.3888 77.108 71.3378C77.1933 71.2529 77.2104 71.2359 77.1592 71.2869C77.0738 71.3718 77.2275 71.2359 77.2445 71.2189C77.3299 71.1339 77.2445 71.1849 77.1933 71.2189C77.4153 71.0829 77.5689 70.913 77.7396 70.726C77.8249 70.6411 77.8932 70.5391 77.9786 70.4541C77.9786 70.4541 78.1664 70.2502 78.0469 70.3862C77.9274 70.5051 78.0469 70.3862 78.081 70.3522C78.1664 70.2672 78.2517 70.1822 78.3371 70.1142C78.4395 70.0293 78.5248 69.9443 78.6273 69.8593L78.8492 69.6214L78.7297 69.7404C78.7297 69.7404 78.8321 69.6384 78.8663 69.6044C79.2077 69.2645 79.5661 68.9586 79.9417 68.6697C80.488 68.2619 81.3244 67.837 81.3415 67.0893L81.1196 67.6841C81.1196 67.6841 81.222 67.5821 81.2732 67.5311C81.0854 67.752 81.2391 67.5651 81.2903 67.5311C81.5975 67.2252 81.7341 66.9193 81.7 66.4605L81.6488 66.9193C81.6488 66.9193 81.7 66.8174 81.7341 66.7664C81.956 66.3075 81.5463 65.8827 81.1366 65.7977C81.0684 65.7977 81.0001 65.7637 80.9318 65.7637L81.3586 65.9337C80.9489 65.5768 80.4197 65.6957 79.9588 65.8147L80.6075 65.8827C80.1124 65.6448 79.6174 65.8487 79.1906 66.1036C78.9004 66.2735 78.6273 66.4605 78.3541 66.6644C77.8932 67.0383 77.4665 67.4631 77.0568 67.905C76.6812 68.2959 76.4081 68.7717 76.152 69.2475C75.9813 69.5534 75.7765 69.8593 75.7253 70.1992C75.6911 70.3862 75.7765 70.0633 75.7423 70.1992C75.7423 70.2672 75.7082 70.3182 75.6911 70.3862C75.6228 70.6751 75.6058 70.913 75.6911 71.2019L75.6228 70.777C75.6228 71.0999 75.6228 71.3208 75.6228 71.5927C75.6228 71.9326 76.0325 72.2555 76.3398 71.9836L76.3227 71.9156Z" fill="black"/>
<path d="M63.4003 69.4175L63.5027 69.5025L63.0247 68.7207V68.8227C63.1101 69.3155 63.4856 69.7914 63.9636 69.9613C64.6635 70.2162 65.3634 70.4201 66.1145 70.4541C66.8144 70.4881 67.5143 70.4711 68.2142 70.4371C68.9141 70.4032 69.5628 70.2162 70.2114 69.9613C70.3992 69.8933 70.5699 69.8084 70.7406 69.7064C70.9113 69.6214 71.0479 69.5025 71.1674 69.3325C71.0479 69.4515 71.0479 69.4515 71.1674 69.3325C71.4917 69.0776 71.7649 68.8227 71.9356 68.4318L71.6966 68.7717C71.9185 68.6188 72.0892 68.4318 72.2429 68.2109C72.4989 67.871 72.2429 67.4631 71.8844 67.3952C71.5942 67.3272 71.3381 67.3272 71.0479 67.3442L71.6624 67.4971C71.3893 67.3442 71.1503 67.2422 70.826 67.1912C70.6382 67.1572 70.4504 67.1233 70.2456 67.0893L70.9113 67.3442C70.4163 67.0213 70.0237 67.0043 69.4433 67.0213C68.9824 67.0383 69.7676 67.0213 69.3238 67.0213C69.1872 67.0213 69.0506 67.0213 68.9141 67.0213C68.5215 67.0213 68.163 67.0723 67.7704 67.1063C67.6338 67.1063 67.4972 67.1233 67.3607 67.1403C67.2924 67.1403 66.8485 67.2082 67.2582 67.1403C66.6266 67.2252 65.9438 67.0723 65.2951 67.1063C65.1585 67.1063 65.022 67.1063 64.9025 67.1233C65.1415 67.1233 65.0049 67.1233 64.8513 67.1233C64.2026 67.1233 63.6051 67.1912 63.2296 67.82L64.0148 67.3442L63.8953 67.3782C62.9223 67.6501 62.598 68.7717 63.4003 69.4515V69.4175Z" fill="black"/>
<path d="M249.658 100.568C249.76 100.568 249.846 100.585 249.948 100.602L249.555 100.449C250.204 100.806 250.87 100.789 251.587 100.704C252.235 100.636 252.85 100.517 253.482 100.398C254.113 100.279 254.694 100.177 255.291 99.9902C255.957 99.7862 256.827 99.5653 257.118 98.8516L256.879 99.1744C257.066 99.0215 257.169 98.8516 257.322 98.6986C257.527 98.4777 257.357 98.1548 257.135 98.0528C257.288 98.1208 257.032 97.9848 256.981 97.9509C256.879 97.8999 256.776 97.8659 256.657 97.8319L256.981 98.0698C256.452 97.526 255.667 97.577 254.95 97.628C254.301 97.6959 253.686 97.8149 253.055 97.9339C252.423 98.0528 251.843 98.1718 251.245 98.3417C250.545 98.5287 249.811 98.7326 249.35 99.3104L249.675 99.0555C249.589 99.1065 249.504 99.1575 249.419 99.2084C248.821 99.5483 248.89 100.466 249.641 100.568H249.658Z" fill="black"/>
<path d="M241.652 93.1585C241.686 93.2774 241.703 93.2944 241.652 93.1755C241.669 93.3114 241.72 93.4304 241.788 93.5323C241.874 93.6853 241.976 93.8212 242.078 93.9572C242.283 94.2291 242.522 94.45 242.778 94.671C243.188 95.0108 243.598 95.3507 244.042 95.6226C244.263 95.7586 244.485 95.8946 244.724 96.0305C245.015 96.2004 245.322 96.4214 245.629 96.5403C246.005 96.6423 246.107 96.6593 245.919 96.6083C245.817 96.5743 245.834 96.5743 245.953 96.6253C246.09 96.6763 246.227 96.7273 246.38 96.7782C246.909 96.9822 247.336 96.9822 247.831 96.6423L247.029 96.8802C247.592 96.9992 248.207 97.1691 248.616 96.6423L247.985 96.9142C248.36 96.9822 248.668 97.0332 249.026 96.9142C249.214 96.8632 249.282 96.5913 249.214 96.4384C249.043 96.0985 248.753 95.9115 248.463 95.6566L248.736 96.2854C248.873 95.6566 248.19 95.2318 247.78 94.8749L248.224 95.8776C248.224 95.2998 248.019 94.9429 247.558 94.62C247.456 94.552 247.353 94.467 247.234 94.3821C247.183 94.3481 247.148 94.3141 247.097 94.2801C247.285 94.433 247.234 94.3651 246.944 94.1102C246.534 93.8212 246.073 93.5833 245.646 93.3114C245.219 93.0395 244.776 92.7846 244.332 92.5127C243.768 92.1558 243.222 91.9179 242.573 91.8499C241.839 91.7649 241.43 92.4957 241.652 93.1245V93.1585Z" fill="black"/>
<path d="M228.183 98.5287C229.156 99.5993 230.744 99.2424 232.024 99.1574C232.604 99.1235 233.185 99.0385 233.765 98.9875C234.499 98.9195 235.233 98.8346 235.865 98.3927L235.199 98.6816C235.762 98.5287 236.462 98.4607 236.787 97.8829L236.343 98.2398C236.804 98.0528 237.282 97.8659 237.521 97.39L237.077 97.7469C237.35 97.6619 237.623 97.611 237.862 97.475C238.118 97.3221 238.118 96.9822 237.862 96.8462C237.606 96.7273 237.333 96.6933 237.06 96.6253L237.435 96.8292C237.196 96.4554 236.684 96.3364 236.291 96.2174L236.752 96.5573C236.428 96.1155 235.984 96.0645 235.472 95.9625C235.182 95.9115 234.858 95.8266 234.482 95.8096C233.697 95.7756 232.911 95.8606 232.126 95.9285C231.46 95.9795 230.778 96.0985 230.129 96.2174C229.702 96.3024 229.31 96.4384 228.917 96.6423C228.473 96.8802 228.234 97.1521 228.029 97.577C227.893 97.8659 227.961 98.2907 228.183 98.5287Z" fill="black"/>
<path d="M265.568 102.794C265.653 102.794 265.738 102.76 265.824 102.743L265.363 102.692C266.216 103.083 267.206 102.658 268.009 102.284C268.64 101.978 269.306 101.741 269.938 101.435C270.279 101.265 270.62 101.112 270.945 100.942C271.269 100.772 271.628 100.568 271.798 100.466C272.003 100.347 272.225 100.262 272.43 100.126C272.601 100.007 272.686 99.8712 272.806 99.7522C273.045 99.5143 273.318 99.3104 273.54 99.0385C273.71 98.8346 273.608 98.4777 273.352 98.3927C273.027 98.2737 272.686 98.2398 272.345 98.1718C272.003 98.1038 271.559 98.0528 271.116 98.1718C270.962 98.1888 270.928 98.2058 271.047 98.2058C270.877 98.1888 270.723 98.2058 270.569 98.2398C270.382 98.2737 270.211 98.3247 270.023 98.3757C269.596 98.4947 269.152 98.6306 268.743 98.7836C268.043 99.0215 267.36 99.3954 266.711 99.7353C266.541 99.8202 266.37 99.9052 266.216 100.007C265.892 100.194 265.738 100.398 265.482 100.653C265.551 100.568 265.533 100.585 265.431 100.704C265.329 100.806 265.209 100.908 265.124 101.01C264.953 101.248 264.885 101.537 264.868 101.826L265.021 101.418C265.021 101.418 264.919 101.554 264.851 101.622C264.424 102.131 264.953 102.93 265.585 102.811L265.568 102.794Z" fill="black"/>
<path d="M275.366 93.6513V93.7363C275.4 93.8382 275.417 93.8552 275.417 93.7703C275.417 93.6513 275.417 93.6853 275.417 93.8552C275.417 94.0082 275.434 94.1441 275.503 94.2801C275.554 94.416 275.622 94.552 275.69 94.688C275.878 95.0618 276.134 95.3507 276.407 95.6566C276.937 96.2174 277.5 96.7273 278.166 97.1351C278.524 97.3561 278.9 97.543 279.292 97.6959C279.651 97.8489 280.078 98.0528 280.47 98.0868C280.538 98.0868 280.624 98.0868 280.692 98.0868C280.914 98.0868 280.931 98.0868 280.726 98.0868C280.726 98.0868 280.914 98.1208 280.931 98.1208C281.17 98.1718 281.392 98.1378 281.631 98.1548C281.477 98.1548 281.614 98.1718 281.699 98.1718C281.836 98.1718 281.972 98.1888 282.109 98.1718C282.228 98.1718 282.331 98.1208 282.433 98.0868C282.297 98.1208 282.57 98.0528 282.57 98.0528C283.184 97.9169 283.355 97.1691 282.877 96.7782C282.724 96.6593 282.741 96.6083 282.553 96.4723C282.519 96.4554 282.211 96.2684 282.348 96.3364C282.297 96.3024 282.228 96.2684 282.177 96.2344C282.058 96.1495 281.938 96.0645 281.802 95.9795C281.751 95.9455 281.682 95.8945 281.631 95.8776C281.546 95.8266 281.563 95.8436 281.682 95.9455L281.443 95.7076C281.324 95.6056 281.187 95.5547 281.068 95.4697C281.187 95.5377 281.221 95.5547 281.068 95.4697C280.948 95.4017 280.795 95.3167 280.675 95.2318C280.402 95.0618 280.163 94.8749 279.89 94.7049C279.378 94.3651 278.866 94.0252 278.371 93.6683C278.046 93.4304 277.756 93.1925 277.415 93.0055C277.261 92.9206 277.671 93.1585 277.398 92.9885C277.278 92.9205 277.176 92.8526 277.039 92.7846C276.902 92.7166 276.783 92.7166 276.663 92.6656C276.92 92.7846 276.646 92.6147 276.612 92.5977C276.015 92.3088 275.212 92.9375 275.366 93.6003V93.6513Z" fill="black"/>
<path d="M352.713 77.1499C357.851 86.1568 368.794 90.5074 378.541 92.3257C391.378 94.7219 404.898 93.7533 417.718 91.7309C446.055 87.2615 472.958 76.4531 501.381 72.4085C517.171 70.1652 533.15 70.3692 548.735 73.9549C549.196 74.0569 549.367 73.3092 548.923 73.1562C523.061 64.4891 494.433 70.726 468.879 77.5068C442.061 84.6443 414.662 93.8042 386.513 91.663C380.333 91.1871 374.12 90.0315 368.35 87.7543C362.58 85.4771 357.459 81.6873 353.293 76.759C353.054 76.4701 352.508 76.759 352.713 77.1159V77.1499Z" fill="black"/>
<path d="M401.467 92.7336C438.834 102.896 478.626 98.5457 515.959 90.6433C535.42 86.5307 554.641 81.3814 573.914 76.5211C583.525 74.0909 593.153 71.7287 602.849 69.6384C612.545 67.5481 622.326 65.8317 632.193 66.3755C642.06 66.9193 650.817 69.6554 658.243 75.6714C664.918 81.0756 669.51 88.8249 670.363 97.407C670.397 97.8149 671.08 97.7979 671.097 97.39C671.831 82.673 658.772 71.0319 645.645 66.8853C627.089 61.0223 606.741 66.7324 588.492 71.0829C549.11 80.4808 510.121 92.6996 469.561 96.0815C446.875 97.9848 424.085 96.9312 401.928 91.544C401.125 91.3571 400.63 92.5297 401.45 92.7506L401.467 92.7336Z" fill="black"/>
<path d="M668.776 97.3221C668.776 98.3927 669.646 99.2764 670.739 99.2764C671.831 99.2764 672.702 98.4097 672.702 97.3221C672.702 96.2344 671.831 95.3677 670.739 95.3677C669.646 95.3677 668.776 96.2344 668.776 97.3221Z" fill="black"/>
<path d="M644.655 104.137C644.655 105.207 645.525 106.091 646.618 106.091C647.71 106.091 648.581 105.224 648.581 104.137C648.581 103.049 647.71 102.182 646.618 102.182C645.525 102.182 644.655 103.049 644.655 104.137Z" fill="black"/>
<path d="M597.967 60.9543C597.967 62.025 598.837 62.9087 599.93 62.9087C601.022 62.9087 601.893 62.042 601.893 60.9543C601.893 59.8667 601.022 59 599.93 59C598.837 59 597.967 59.8667 597.967 60.9543Z" fill="black"/>
<path d="M548.786 76.5551C550.134 76.5551 551.227 75.467 551.227 74.1249C551.227 72.7827 550.134 71.6947 548.786 71.6947C547.438 71.6947 546.345 72.7827 546.345 74.1249C546.345 75.467 547.438 76.5551 548.786 76.5551Z" fill="black"/>
<path d="M628.591 72.7484C629.701 73.5301 631.032 73.853 632.279 74.4138C633.712 75.0596 635.095 75.8413 636.392 76.759C638.902 78.5434 641.053 80.8206 642.692 83.4208C644.535 86.3608 645.713 89.7256 646.293 93.1415C646.601 94.9599 646.72 96.7952 646.771 98.6306C646.823 100.466 646.567 102.284 646.567 104.103C646.567 104.562 647.198 104.783 647.386 104.307C648.683 100.925 648.649 96.6423 648.12 93.1075C647.591 89.5727 646.293 85.8679 644.313 82.724C642.521 79.8859 640.131 77.3708 637.348 75.4674C635.061 73.904 631.579 71.8137 628.694 72.3915C628.523 72.4255 628.455 72.6634 628.608 72.7654L628.591 72.7484Z" fill="black"/>
<path d="M571.985 76.1982C574.631 75.9263 577.175 74.9066 579.633 73.921C582.21 72.8843 584.737 71.7117 587.195 70.3862C589.482 69.1456 591.719 67.803 593.87 66.3415C596.021 64.88 598.427 63.1636 600.203 61.1583C600.425 60.9034 600.083 60.4615 599.776 60.6314C597.642 61.923 595.713 63.5375 593.631 64.914C591.292 66.4605 588.919 67.939 586.444 69.2645C584.139 70.5051 581.767 71.6437 579.343 72.6634C576.918 73.683 574.238 74.4648 571.848 75.6884C571.575 75.8243 571.695 76.2152 572.002 76.1982H571.985Z" fill="black"/>
<path d="M518.196 64.6761C518.349 64.7101 518.349 64.7101 518.213 64.6761C517.957 64.5741 517.683 64.5401 517.393 64.5911C517.171 64.6251 516.932 64.7441 516.71 64.812C516.369 64.931 516.028 65.0839 515.686 65.2199C515.038 65.5088 514.423 65.8487 513.791 66.1716C513.484 66.3245 513.194 66.4945 512.887 66.6474C512.46 66.8683 512.101 67.1403 511.709 67.3952C511.572 67.4801 511.453 67.5651 511.316 67.6501C511.231 67.7011 511.145 67.769 511.06 67.82C510.821 68.007 510.65 68.2449 510.548 68.5168C510.804 68.2279 510.48 68.5508 510.446 68.6018C510.207 68.9246 510.138 69.2645 510.121 69.6554L510.292 69.1966C510.207 69.3325 510.121 69.4685 510.053 69.6214C509.848 70.0973 510.207 70.6071 510.685 70.6581C510.941 70.6921 511.163 70.828 511.436 70.862C511.709 70.896 511.982 70.828 512.255 70.777L511.401 70.6921C512.067 70.896 512.562 70.828 513.194 70.5221C513.331 70.4541 513.484 70.3862 513.621 70.3182C513.689 70.2842 513.757 70.2502 513.826 70.2162C513.587 70.2672 513.604 70.2502 513.894 70.1822C514.543 69.9783 515.174 69.5025 515.755 69.1456C516.386 68.7717 517.001 68.4148 517.598 67.99C517.854 67.803 518.11 67.6331 518.349 67.4292C518.588 67.2252 518.81 67.0553 518.964 66.7834C519.066 66.6134 519.1 66.4435 519.169 66.2565C519.425 65.4408 518.964 64.812 518.179 64.6251L518.196 64.6761Z" fill="black"/>
<path d="M512.955 73.9889C512.921 73.6151 512.682 73.3092 512.357 73.1222L512.733 73.5981C512.409 72.6974 511.128 72.4934 510.309 72.3745C509.541 72.2555 508.79 72.0856 508.039 71.9326C507.68 71.8647 507.322 71.7967 506.946 71.7287C506.775 71.6947 506.622 71.6607 506.451 71.6267C506.656 71.6777 506.161 71.5588 506.127 71.5418C505.171 71.2869 504.129 70.981 503.173 71.3038L503.925 71.1849C503.276 71.1339 502.661 70.964 502.047 71.2019L502.576 71.1169C502.064 71.0999 501.603 70.964 501.091 71.0659C500.801 71.1169 500.545 71.4738 500.715 71.7797C501.005 72.2725 501.449 72.5614 501.876 72.9353L501.552 72.5444C501.791 73.0373 502.183 73.2582 502.61 73.5641C502.866 73.751 503.088 73.9719 503.412 74.1419C503.583 74.2269 503.771 74.3118 503.959 74.3968C504.898 74.8217 505.905 75.0256 506.912 75.2465C507.834 75.4504 508.756 75.5354 509.694 75.5864C510.787 75.6374 512.255 75.6884 512.784 74.5328L512.153 75.1785C512.648 74.9406 513.006 74.5667 512.955 73.9889Z" fill="black"/>
<path d="M498.855 67.0893C498.855 67.0893 498.701 67.0893 498.633 67.1063C498.923 67.0893 498.855 67.0893 498.411 67.1063C498.206 67.1403 498.018 67.2252 497.83 67.3102C497.574 67.4122 497.318 67.5141 497.079 67.6331C496.499 67.888 495.936 68.1599 495.406 68.4998C494.962 68.7887 494.519 69.0776 494.126 69.4345C493.921 69.6214 493.716 69.7914 493.512 69.9783C493.068 70.4031 492.795 70.794 492.692 71.4398L492.948 70.777C492.59 71.3038 492.282 71.8137 492.59 72.4595L492.504 71.9326C492.436 72.2555 492.419 72.5954 492.692 72.8503C492.965 73.1052 493.341 73.0712 493.682 73.0373L492.914 72.8503C493.255 73.0882 493.631 73.1732 494.058 73.0543C494.263 73.0033 494.433 72.9013 494.621 72.8163L493.921 72.9353C494.587 72.9693 494.98 72.7993 495.526 72.4425C495.748 72.2895 495.987 72.1366 496.226 72.0006L496.055 72.1026C496.055 72.1026 496.192 72.0176 496.26 71.9836C496.448 71.8647 496.635 71.7457 496.823 71.6267C497.045 71.4738 497.267 71.3208 497.506 71.1679C497.933 70.896 498.308 70.5731 498.735 70.2672C498.957 70.1142 499.179 69.9613 499.401 69.8083C499.589 69.6894 499.708 69.6214 499.862 69.4175C500.067 69.0266 500.101 68.9756 499.981 69.2475C500.033 69.1966 500.084 69.1456 500.118 69.0946C500.459 68.7207 500.408 68.0749 500.169 67.6841C499.896 67.2252 499.401 67.0383 498.889 67.0893H498.855Z" fill="black"/>
<path d="M489.483 75.3315C488.766 74.9406 487.827 74.5837 486.871 74.3458C486.052 74.1589 485.232 74.0059 484.396 73.9719C484.003 73.955 483.628 73.938 483.235 73.938C483.013 73.938 482.791 73.938 482.552 73.938C482.364 73.938 482.16 73.938 481.972 73.938C481.767 74.0059 481.562 74.0569 481.357 74.1249C481.613 74.0739 481.05 74.1589 481.05 74.1589C480.811 74.2099 480.521 74.2439 480.299 74.3458C480.504 74.2608 479.787 74.6347 479.838 74.6177C479.616 74.7197 479.394 74.7707 479.172 74.8896C478.438 75.2635 478.37 76.4361 479.223 76.725C479.377 76.776 479.565 76.844 479.736 76.861C479.94 76.895 479.992 76.9289 480.213 77.0479C480.487 77.1839 480.76 77.2348 481.067 77.2858C481.169 77.2858 481.255 77.3198 481.357 77.3368C481.562 77.3708 481.613 77.3708 481.511 77.3708C482.177 77.6087 483.201 77.6427 484.02 77.7447C484.788 77.8466 485.557 77.9316 486.308 78.0336C486.683 78.0846 487.076 78.1016 487.451 78.1355C488.015 78.1865 488.373 78.1695 488.783 78.1865C489.534 78.1865 490.217 77.8126 490.388 77.0479C490.558 76.2832 490.166 75.6714 489.483 75.2975V75.3315Z" fill="black"/>
<path d="M478.046 71.0659L477.926 71.1339H478.063C477.841 71.0149 477.636 70.913 477.38 70.964C477.209 70.9979 477.107 71.0149 477.329 71.0319C476.885 71.0149 476.578 71.2359 476.236 71.4568C476.048 71.5758 475.878 71.6437 475.622 71.8307C475.519 71.8986 475.434 71.9836 475.348 72.0516C475.314 72.0856 474.973 72.2895 475.212 72.1536C474.734 72.4255 474.324 72.8333 473.897 73.1902C473.522 73.5131 473.146 73.853 472.788 74.1929C472.361 74.6007 471.934 75.0086 471.542 75.4504C471.371 75.6544 471.2 75.8413 471.03 76.0452C470.893 76.2322 470.756 76.4191 470.688 76.64C470.654 76.742 470.637 76.827 470.62 76.9289C470.552 77.2178 470.552 77.2348 470.586 76.9459C470.552 76.912 470.244 77.7957 470.244 77.8126C470.176 78.3225 470.432 78.8493 470.825 79.1552C471.644 79.818 472.566 79.1892 473.283 78.7303L472.498 79.0872C472.959 78.9852 473.385 78.8323 473.727 78.4924C473.914 78.3055 474.102 78.1185 474.29 77.9316C474.734 77.4898 475.126 77.0309 475.502 76.5551C475.809 76.1642 476.117 75.7733 476.424 75.3655C476.56 75.1785 476.714 74.9746 476.851 74.7877C476.936 74.6687 477.021 74.5667 477.107 74.4478C477.277 74.1759 477.346 73.904 477.431 73.5811L477.158 74.2948C477.294 74.0909 477.431 73.904 477.568 73.7C477.687 73.5301 477.807 73.3432 477.875 73.1562C477.824 73.2752 477.909 73.0373 477.926 73.0033C477.977 72.9013 478.046 72.7993 478.097 72.6974C478.216 72.4764 478.267 72.2895 478.302 72.0346C478.302 71.8307 478.302 71.8477 478.302 72.0516L478.353 71.8307C478.37 71.6607 478.165 71.2529 478.216 71.1509C478.268 71.0489 478.131 70.981 478.046 71.0319V71.0659Z" fill="black"/>
<path d="M573.692 69.8083C573.573 69.9613 573.402 70.0293 573.231 70.1142C573.061 70.1992 572.941 70.3352 572.788 70.4541L573.129 70.3012C572.787 70.3522 572.549 70.5561 572.292 70.76L572.753 70.5561C572.275 70.6071 572.002 70.964 571.712 71.2868C571.627 71.3888 571.524 71.4908 571.422 71.5927C571.507 71.4908 571.507 71.5078 571.422 71.5927L571.541 71.5418C571.422 71.6777 571.183 71.7627 571.046 71.9156C570.944 72.0176 570.859 72.1026 570.756 72.2045C570.568 72.3745 570.381 72.5444 570.193 72.7314C569.834 73.1052 569.442 73.4451 569.066 73.802C568.878 73.9889 568.691 74.1589 568.486 74.3288C568.332 74.4648 568.144 74.6007 568.008 74.7877C567.82 75.0426 567.786 75.2805 567.718 75.5864L567.957 74.9916C567.803 75.1955 567.632 75.3995 567.479 75.6204C567.035 76.2832 567.547 77.3198 568.417 77.1329C568.759 77.0649 569.1 76.9289 569.442 76.81L568.81 76.912C569.1 76.912 569.39 76.912 569.664 76.793C569.851 76.708 570.039 76.5551 570.21 76.4361C570.432 76.2832 570.654 76.1132 570.876 75.9433C571.371 75.5524 571.797 75.1106 572.207 74.6517C572.6 74.2269 573.009 73.683 573.231 73.1562C573.112 73.4281 573.3 73.0373 573.317 72.9863C573.385 72.8673 573.453 72.7484 573.522 72.6294C573.743 72.2555 574.017 71.8477 573.88 71.3718L573.829 71.8986C573.88 71.7117 573.931 71.5248 573.965 71.3208C573.982 71.1509 573.965 71.0149 574 70.896C574.051 70.6071 573.965 70.2842 574.068 70.0123C574.136 69.7914 573.846 69.6044 573.692 69.8083Z" fill="black"/>
<path d="M600.169 73.4111C600.271 73.5641 600.22 73.4791 600.015 73.1562C599.896 73.0373 599.759 72.9183 599.64 72.7993C599.435 72.6464 599.23 72.5274 598.991 72.4255C598.513 72.2215 598.001 72.0346 597.489 71.9156C596.601 71.7117 595.713 71.5078 594.826 71.3548L593.528 71.1339C593.101 71.0659 592.658 71.0829 592.214 71.0829C591.616 71.0829 591.241 71.1849 590.746 71.2359C590.182 71.3038 589.704 71.4398 589.448 72.0006L589.926 71.5078C589.79 71.5758 589.653 71.6607 589.517 71.7457C589.192 71.9496 589.226 72.4085 589.414 72.6804C589.465 72.7654 589.517 72.8333 589.585 72.9013L589.397 72.4764C589.431 73.0712 589.943 73.3262 590.404 73.5641C590.78 73.768 591.121 74.0229 591.548 74.1929C592.487 74.5667 593.443 74.7707 594.433 74.9916C595.269 75.1785 596.157 75.3315 597.011 75.4504C597.437 75.5014 597.881 75.4844 598.325 75.4844C599.025 75.4844 599.452 75.2805 599.998 74.9236C600.51 74.5837 600.476 73.836 600.152 73.3941L600.169 73.4111Z" fill="black"/>
<path d="M614.354 61.872C614.235 61.923 614.115 61.974 613.979 62.008L614.525 61.923C613.672 61.872 612.938 62.4668 612.255 62.9087C612.494 62.7557 612.033 63.0446 611.999 63.0616C611.76 63.1976 611.538 63.3335 611.299 63.4865C611.009 63.6734 610.735 63.8774 610.445 64.0643C609.865 64.4382 609.284 64.812 608.721 65.2029C608.431 65.3898 608.158 65.5768 607.868 65.7807C607.253 66.2226 606.895 66.7664 606.98 67.5481L607.492 66.1886C606.98 66.6984 606.314 67.1742 606.502 68.007L606.553 67.4971C606.468 67.6501 606.417 67.786 606.382 67.973C606.314 68.2789 606.553 68.5848 606.826 68.7037C606.997 68.7717 607.168 68.7887 607.338 68.8057L606.69 68.4488C607.048 68.8057 607.424 68.9926 607.953 68.9077C608.192 68.8737 608.414 68.7887 608.636 68.7207L607.543 68.4658C608.55 69.1966 609.609 68.4998 610.496 67.956C611.213 67.5141 611.879 67.0723 612.545 66.5454C613.211 66.0186 613.757 65.4748 614.32 64.88C614.44 64.7441 614.559 64.6251 614.679 64.4891C614.867 64.2852 614.952 64.1153 615.106 63.8774C615.054 63.9793 615.071 63.9623 615.157 63.8264C615.225 63.7074 615.293 63.5715 615.362 63.4525C615.43 63.1296 615.447 63.0616 615.43 63.2146C615.464 63.1466 615.498 63.0616 615.532 62.9936C615.908 62.2459 615.003 61.6001 614.337 61.855L614.354 61.872Z" fill="black"/>
<path d="M624.051 68.3808C622.992 67.1572 621.388 66.5624 619.885 66.0526C619.134 65.7977 618.315 65.6448 617.53 65.5258C617.171 65.4748 616.83 65.4578 616.471 65.4578C615.959 65.4578 615.43 65.4238 615.02 65.7807L615.447 65.5938C615.071 65.6957 614.645 65.6787 614.354 65.9676C614.201 66.1206 614.081 66.3925 614.201 66.5964C614.303 66.7664 614.389 66.8853 614.559 66.9873C614.593 67.0043 615.071 67.2592 614.935 67.1572C615.054 67.2932 615.191 67.3952 615.362 67.4631C615.447 67.4971 615.549 67.5311 615.635 67.5651C615.823 67.6331 616.01 67.7181 616.181 67.803C616.898 68.1089 617.666 68.2959 618.383 68.5848C619.1 68.8737 619.868 69.1116 620.585 69.4175C621.388 69.7574 622.173 70.0633 623.026 70.2162C623.999 70.3862 624.648 69.0946 624.033 68.3808H624.051Z" fill="black"/>
<path d="M637.451 61.7191L637.366 61.7531L637.826 61.6851C637.553 61.6851 637.297 61.6681 637.058 61.7701C636.888 61.855 636.683 61.974 636.546 62.076C636.307 62.2289 636.085 62.4158 635.846 62.5688C635.607 62.7217 635.368 62.8747 635.129 63.0276C635.01 63.0956 635.01 63.1126 635.129 63.0276C635.061 63.0616 635.01 63.0956 634.942 63.1296C634.822 63.1976 634.685 63.2656 634.566 63.3335C634.054 63.5884 633.525 63.8094 633.013 64.0643C632.756 64.1832 632.5 64.3192 632.244 64.4382C631.835 64.6251 631.442 64.778 631.305 65.2539L631.732 64.812C631.442 64.982 631.169 65.1179 630.964 65.3898C630.81 65.5938 630.879 65.8657 631.066 66.0186C631.323 66.2396 631.664 66.2905 631.988 66.3585L631.442 66.0696C631.8 66.5455 632.278 66.5285 632.825 66.4945C633.132 66.4945 633.422 66.4605 633.729 66.3925C634.395 66.2565 635.027 66.0016 635.624 65.6787C636.222 65.3559 636.785 65.033 637.28 64.6081C637.519 64.4042 637.741 64.2002 637.946 63.9963C638.117 63.8264 638.253 63.6734 638.373 63.4695C638.458 63.3335 638.543 63.1976 638.578 63.0276V62.7727C638.834 62.093 638.117 61.4132 637.451 61.7021V61.7191Z" fill="black"/>
<path d="M644.108 71.6267C644.108 71.5418 644.108 71.4398 644.108 71.3548C644.108 71.3208 644.108 71.2699 644.108 71.2359C644.108 71.1509 644.108 71.1849 644.108 71.3378L644.16 71.1509C644.16 71.0659 644.16 70.981 644.16 70.896C644.16 70.828 644.16 70.743 644.16 70.6751L644.108 71.1169C644.228 70.743 644.108 70.4881 644.074 70.1312C644.023 69.8253 643.852 69.5364 643.699 69.2815C643.409 68.7717 643.101 68.2449 642.709 67.82C642.316 67.3952 641.872 66.9873 641.428 66.6134C640.814 66.1206 639.926 65.4748 639.141 65.8657H640.08C639.516 65.6957 638.902 65.4918 638.39 65.9167L638.799 65.7297C638.799 65.7297 638.68 65.7467 638.612 65.7637C638.168 65.8657 637.861 66.3245 638.065 66.7664C638.1 66.8174 638.117 66.8683 638.151 66.9363L638.083 66.4945C638.031 67.0553 638.356 67.3612 638.697 67.7351L638.441 67.1742C638.441 67.7181 638.936 68.024 639.329 68.3299C639.551 68.4998 639.773 68.6527 639.994 68.8227C640.216 68.9926 640.404 69.1626 640.609 69.3325C640.66 69.3665 640.694 69.4345 640.763 69.4685C640.507 69.3155 640.66 69.3835 640.763 69.4685C640.916 69.6214 641.053 69.7744 641.224 69.9273C641.326 70.0123 641.411 70.1142 641.514 70.1822C641.411 70.1142 641.36 70.0293 641.48 70.1652C641.531 70.2162 641.582 70.2672 641.616 70.3012C641.804 70.4881 641.975 70.6921 642.145 70.896C642.282 71.0489 642.418 71.1509 642.572 71.2699C642.401 71.1339 642.572 71.2869 642.623 71.3208L642.794 71.4738C642.999 71.5927 643.067 71.6267 642.965 71.5588C642.862 71.4908 643.05 71.6267 643.05 71.6267C643.118 71.6777 643.221 71.7117 643.289 71.7627C643.289 71.7627 643.426 71.8986 643.494 71.9666C643.733 72.1875 644.194 71.9666 644.194 71.6607L644.108 71.6267Z" fill="black"/>
<path d="M656.041 67.4122L655.921 67.3782L656.433 67.752C655.973 67.0213 655.051 67.0893 654.3 67.0723C653.924 67.0723 653.549 67.1063 653.156 67.1233C652.695 67.1403 653.514 67.1233 653.053 67.1233C652.917 67.1233 652.78 67.1233 652.644 67.1233C652.098 67.1233 651.551 67.0213 650.988 67.0043C650.732 67.0043 650.476 67.0043 650.237 67.0043C649.639 66.9873 649.264 67.0383 648.752 67.3782L649.383 67.0893C648.974 67.1742 648.564 67.1742 648.205 67.3952L648.632 67.3272C648.342 67.3272 648.086 67.3272 647.813 67.3952C647.42 67.4801 647.267 67.905 647.488 68.2279C647.659 68.4488 647.83 68.6188 648.052 68.7887L647.796 68.4658C648.001 68.9247 648.393 69.2136 648.786 69.5195L648.342 68.9756C648.632 69.4515 648.922 69.7234 649.434 69.9273C649.691 70.0293 649.947 70.1142 650.203 70.1992C650.817 70.3862 651.432 70.4371 652.08 70.4541C652.729 70.4711 653.344 70.4541 653.975 70.4032C654.607 70.3522 655.221 70.1142 655.819 69.9103C656.314 69.7234 656.604 69.2136 656.69 68.7207V68.6357C656.553 68.9077 656.399 69.1796 656.263 69.4515L656.365 69.3665C656.98 68.8567 656.929 67.6331 656.058 67.3952L656.041 67.4122Z" fill="black"/>
<path d="M470.415 99.2934C470.091 99.1065 469.817 98.8685 469.476 98.6986C469.203 98.5626 468.913 98.4947 468.605 98.4097C467.906 98.2228 467.206 98.0698 466.489 97.9339C465.823 97.8149 465.174 97.6789 464.509 97.628C464.167 97.594 463.809 97.611 463.467 97.6619C463.126 97.7129 462.853 97.9169 462.545 98.0698C462.306 98.1888 462.204 98.5117 462.392 98.7326C462.545 98.9025 462.665 99.0725 462.853 99.2254L462.597 98.9195C462.853 99.5483 463.655 99.8032 464.252 99.9732C464.918 100.177 465.618 100.296 466.301 100.432C466.915 100.551 467.513 100.653 468.128 100.721C468.486 100.772 468.827 100.789 469.186 100.772C469.51 100.755 469.8 100.636 470.108 100.585C470.671 100.517 470.961 99.6163 470.415 99.3104V99.2934Z" fill="black"/>
<path d="M477.09 91.9009C476.424 91.9689 475.895 92.2408 475.331 92.5977C475.519 92.4787 475.314 92.5977 475.229 92.6486C475.126 92.6996 475.041 92.7676 474.939 92.8186C474.648 92.9885 474.341 93.1755 474.051 93.3624C473.949 93.4304 473.863 93.4814 473.761 93.5493C473.727 93.5663 473.385 93.7873 473.522 93.7023C473.658 93.6173 473.317 93.8212 473.283 93.8382C473.112 93.9402 472.941 94.0252 472.788 94.1441C472.651 94.2121 472.532 94.3311 472.446 94.45C472.549 94.3481 472.566 94.3311 472.498 94.3991C472.395 94.467 472.293 94.552 472.19 94.637C471.815 94.9089 471.49 95.1978 471.473 95.6906L471.883 94.9599C471.473 95.3167 470.842 95.7416 470.978 96.3704L471.217 95.7246C470.927 95.9625 470.654 96.1495 470.483 96.4893C470.398 96.6593 470.517 96.8972 470.688 96.9482C471.064 97.0672 471.388 96.9822 471.764 96.9142L471.115 96.6763C471.525 97.2031 472.207 96.9992 472.754 96.8802L471.917 96.6763C472.412 97.0162 472.856 96.9482 473.385 96.7613C473.522 96.7103 473.658 96.6423 473.812 96.6083L473.914 96.5743C473.693 96.6763 473.761 96.6763 474.136 96.5233C474.683 96.2854 475.212 95.9115 475.707 95.5887C476.646 94.9939 477.687 94.1951 478.063 93.1245C478.285 92.4617 477.772 91.8159 477.073 91.9009H477.09Z" fill="black"/>
<path d="M491.651 97.543C491.258 96.7443 490.405 96.3874 489.568 96.2344C488.868 96.0985 488.168 95.9795 487.468 95.9285C486.717 95.8606 485.966 95.8096 485.198 95.8266C484.805 95.8266 484.447 95.9285 484.14 95.9795C483.628 96.0475 483.218 96.1665 482.911 96.6083L483.628 96.1665C483.15 96.3024 482.518 96.4044 482.245 96.8632L482.603 96.6423C482.33 96.6933 482.074 96.7273 481.818 96.8632C481.613 96.9652 481.511 97.3221 481.75 97.458C481.989 97.594 482.228 97.6619 482.484 97.7299L482.177 97.441C482.416 97.9169 482.928 98.1038 483.389 98.2907L482.791 97.7129C483.03 98.1378 483.372 98.4607 483.867 98.5287L484.037 98.5796C483.935 98.4267 484.037 98.4777 484.362 98.7326C484.566 98.8006 484.805 98.8345 485.027 98.8855C485.727 99.0215 486.427 99.0725 487.127 99.1404C487.827 99.2084 488.476 99.2424 489.158 99.2934C489.602 99.3274 490.012 99.2934 490.456 99.1914C490.951 99.0725 491.224 98.8855 491.565 98.5287C491.787 98.2907 491.804 97.8489 491.668 97.56L491.651 97.543Z" fill="black"/>
<path d="M454.864 101.571C454.864 101.571 454.744 101.435 454.693 101.367L454.881 101.758C454.847 101.469 454.778 101.18 454.59 100.942C454.488 100.84 454.369 100.738 454.266 100.636C454.147 100.534 454.13 100.517 454.215 100.568C453.976 100.313 453.754 100.126 453.447 99.9562C453.276 99.8712 453.122 99.7692 452.952 99.6843C452.286 99.3444 451.62 98.9705 450.92 98.7326C450.562 98.6136 450.203 98.4947 449.845 98.4097C449.589 98.3417 449.333 98.2567 449.094 98.2228C448.94 98.1718 448.769 98.1718 448.616 98.2058C448.735 98.1888 448.718 98.1718 448.565 98.1548C448.394 98.1038 448.189 98.0868 448.018 98.0868C447.745 98.0868 447.54 98.1718 447.353 98.1888C447.028 98.2228 446.687 98.2907 446.38 98.4097C446.123 98.5117 446.055 98.8685 446.226 99.0725C446.482 99.3784 446.806 99.5823 447.079 99.8882C447.353 100.194 447.831 100.415 448.257 100.636L447.745 100.262C448.223 100.721 448.855 100.976 449.452 101.265C449.947 101.503 450.425 101.724 450.92 101.928C451.415 102.131 451.842 102.369 452.32 102.573C452.525 102.658 452.73 102.726 452.952 102.743C453.361 102.794 452.73 102.658 453.14 102.76C453.635 102.879 453.959 102.896 454.42 102.675L453.976 102.743C453.976 102.743 454.147 102.777 454.232 102.794C454.898 102.913 455.307 102.046 454.898 101.571H454.864Z" fill="black"/>
<path d="M443.068 92.6656C443.068 92.6656 442.812 92.8016 442.948 92.7336C443.085 92.6656 442.709 92.8186 442.675 92.8186C442.539 92.8866 442.419 92.9715 442.3 93.0565C442.385 93.0055 442.419 92.9885 442.3 93.0565C441.958 93.2434 441.668 93.4984 441.361 93.7363C440.849 94.1102 440.319 94.467 439.79 94.8069C439.739 94.8409 439.654 94.8749 439.62 94.9259C439.671 94.8579 439.841 94.7899 439.671 94.8919C439.449 95.0278 439.278 95.1638 439.073 95.3167C438.937 95.4187 439.295 95.1978 439.073 95.3167C439.005 95.3507 438.954 95.3847 438.886 95.4187C438.681 95.5377 438.459 95.6396 438.271 95.7756C438.134 95.8776 437.861 96.1665 438.083 95.9455C438.169 95.8776 438.186 95.8776 438.083 95.9455C437.981 96.0135 437.878 96.0645 437.776 96.1325C437.776 96.1325 437.537 96.3194 437.605 96.2514C437.674 96.1835 437.469 96.3364 437.452 96.3364C437.349 96.3874 437.247 96.4384 437.144 96.5233C437.042 96.6083 436.991 96.6763 436.905 96.7613C436.991 96.6763 436.803 96.8632 436.803 96.8632C436.291 97.2881 436.598 98.0018 437.178 98.1208C437.196 98.1208 437.417 98.1888 437.349 98.1718C437.349 98.1718 437.588 98.2398 437.656 98.2398C437.776 98.2398 437.895 98.2398 438.015 98.2398C438.015 98.2398 438.305 98.2228 438.186 98.2398C438.134 98.2398 438.134 98.2398 438.186 98.2398C438.305 98.2398 438.425 98.2398 438.544 98.2398C438.612 98.2398 438.681 98.2228 438.749 98.2058C438.834 98.2058 438.92 98.1888 439.005 98.1548C439.107 98.1548 439.073 98.1378 438.903 98.1548H439.261C439.637 98.1038 440.08 97.8999 440.439 97.7469C440.473 97.7469 440.678 97.662 440.678 97.645L440.507 97.6959L440.866 97.594C441.088 97.492 441.344 97.3051 441.549 97.1861C442.197 96.7952 442.709 96.3194 443.221 95.7756C443.512 95.4867 443.785 95.1808 443.973 94.8239C444.041 94.688 444.126 94.535 444.194 94.3821C444.246 94.2631 444.297 94.1271 444.297 93.9912C444.246 94.0932 444.246 94.1102 444.263 94.0252C444.263 93.9742 444.297 93.9232 444.297 93.8722C444.382 93.5154 444.365 93.1585 444.075 92.8866C443.819 92.6486 443.409 92.5467 443.068 92.7166V92.6656Z" fill="black"/>
</g>
<rect x="360.019" y="93.9386" width="4.83364" height="4.83364" transform="rotate(45 360.019 93.9386)" fill="black"/>
<defs>
<clipPath id="clip0_8_15624">
<rect width="717" height="47.0911" fill="white" transform="translate(0 59)"/>
</clipPath>
</defs>
</svg>
