<svg width="61" height="30" viewBox="0 0 61 30" fill="none" xmlns="http://www.w3.org/2000/svg">
<path d="M12.07 5.4C11.67 5.46 11.36 5.53 11.14 5.61C10.28 5.83 9.42 6.08 8.56 6.36C7.72 6.62 6.88 6.93 6.04 7.29C5.64 7.47 5.25 7.67 4.87 7.89C4.49 8.09 4.1 8.3 3.7 8.52C3.62 8.58 3.53 8.64 3.43 8.7C3.33 8.74 3.23 8.72 3.13 8.64C2.95 8.5 3.01 8.28 3.31 7.98C3.61 7.74 3.93 7.52 4.27 7.32C5.03 6.9 5.8 6.54 6.58 6.24C7.38 5.92 8.19 5.64 9.01 5.4C9.57 5.22 10.13 5.06 10.69 4.92C11.25 4.76 11.82 4.6 12.4 4.44C12.56 4.4 12.69 4.34 12.79 4.26C12.91 4.18 13.01 4.06 13.09 3.9C13.35 3.5 13.6 3.11 13.84 2.73C14.08 2.35 14.33 1.96 14.59 1.56C14.61 1.48 14.63 1.42 14.65 1.38C14.69 1.34 14.72 1.3 14.74 1.26C14.82 1.16 14.89 1.08 14.95 1.02C15.03 0.939999 15.13 0.949999 15.25 1.05C15.31 1.09 15.35 1.16 15.37 1.26C15.39 1.36 15.39 1.45 15.37 1.53C15.29 1.71 15.2 1.89 15.1 2.07C15.02 2.23 14.93 2.41 14.83 2.61C14.59 3.03 14.32 3.51 14.02 4.05C14.16 4.01 14.27 3.99 14.35 3.99C14.43 3.99 14.52 3.98 14.62 3.96C15.62 3.76 16.61 3.6 17.59 3.48C18.57 3.34 19.57 3.28 20.59 3.3C20.97 3.3 21.36 3.33 21.76 3.39C22.16 3.43 22.56 3.48 22.96 3.54C23.38 3.62 23.79 3.79 24.19 4.05C24.61 4.29 24.9 4.62 25.06 5.04C25.24 5.44 25.28 5.87 25.18 6.33C25.12 6.69 25 7.03 24.82 7.35C24.66 7.65 24.47 7.94 24.25 8.22C23.83 8.72 23.38 9.17 22.9 9.57C22.42 9.97 21.92 10.34 21.4 10.68C20.2 11.52 18.94 12.23 17.62 12.81C16.32 13.37 14.98 13.86 13.6 14.28C12.84 14.5 12.08 14.7 11.32 14.88C10.56 15.06 9.79 15.2 9.01 15.3C8.71 15.34 8.42 15.36 8.14 15.36C7.86 15.36 7.56 15.38 7.24 15.42C7.28 15.52 7.31 15.6 7.33 15.66C7.35 15.72 7.37 15.79 7.39 15.87C7.73 16.59 8.13 17.27 8.59 17.91C9.05 18.55 9.54 19.17 10.06 19.77C11.5 21.47 13.07 22.96 14.77 24.24C16.49 25.52 18.38 26.6 20.44 27.48C21.24 27.84 22.05 28.11 22.87 28.29C23.71 28.49 24.56 28.64 25.42 28.74C25.88 28.8 26.33 28.83 26.77 28.83C27.23 28.85 27.68 28.88 28.12 28.92C28.28 28.92 28.4 28.94 28.48 28.98C28.24 29.12 27.98 29.21 27.7 29.25C27.42 29.31 27.15 29.36 26.89 29.4C25.85 29.58 24.83 29.59 23.83 29.43C22.85 29.29 21.88 29.03 20.92 28.65C17.78 27.49 14.97 25.8 12.49 23.58C11.59 22.78 10.74 21.95 9.94 21.09C9.14 20.21 8.41 19.27 7.75 18.27C7.53 17.91 7.32 17.54 7.12 17.16C6.92 16.78 6.71 16.41 6.49 16.05C6.45 15.97 6.41 15.89 6.37 15.81C6.35 15.73 6.32 15.65 6.28 15.57C5.42 16.71 4.57 17.82 3.73 18.9C2.89 19.98 1.93 20.98 0.85 21.9C1.51 20.66 2.25 19.49 3.07 18.39C3.89 17.29 4.7 16.17 5.5 15.03C5.42 14.95 5.35 14.89 5.29 14.85C5.23 14.81 5.17 14.76 5.11 14.7C5.05 14.62 4.98 14.55 4.9 14.49C4.82 14.43 4.76 14.35 4.72 14.25C4.62 14.09 4.59 13.94 4.63 13.8C4.67 13.66 4.74 13.55 4.84 13.47C5.04 13.35 5.27 13.42 5.53 13.68C5.65 13.84 5.76 13.97 5.86 14.07C5.94 13.93 6.02 13.81 6.1 13.71C6.18 13.59 6.3 13.55 6.46 13.59C6.52 13.59 6.57 13.56 6.61 13.5C6.65 13.42 6.68 13.36 6.7 13.32C7.56 12.06 8.42 10.81 9.28 9.57C10.14 8.33 11 7.07 11.86 5.79C11.9 5.75 11.93 5.7 11.95 5.64C11.97 5.58 12.01 5.5 12.07 5.4ZM7.15 14.43C7.55 14.49 7.92 14.51 8.26 14.49C8.62 14.45 8.98 14.4 9.34 14.34C10.58 14.14 11.78 13.87 12.94 13.53C14.12 13.17 15.29 12.76 16.45 12.3C17.59 11.84 18.67 11.31 19.69 10.71C20.71 10.09 21.68 9.37 22.6 8.55C22.94 8.27 23.24 7.97 23.5 7.65C23.78 7.33 24.01 6.95 24.19 6.51C24.35 6.07 24.36 5.69 24.22 5.37C24.08 5.03 23.8 4.78 23.38 4.62C22.8 4.44 22.23 4.32 21.67 4.26C20.35 4.16 19.06 4.19 17.8 4.35C16.54 4.49 15.27 4.68 13.99 4.92C13.61 4.98 13.3 5.17 13.06 5.49C12.1 6.93 11.15 8.36 10.21 9.78C9.27 11.18 8.32 12.59 7.36 14.01L7.15 14.43ZM30.2317 12.99C30.3317 12.95 30.4217 12.92 30.5017 12.9C30.5817 12.86 30.6717 12.82 30.7717 12.78C31.0117 12.74 31.1817 12.81 31.2817 12.99C31.3817 13.23 31.3217 13.4 31.1017 13.5C30.3617 13.88 29.5917 14.17 28.7917 14.37C27.9917 14.57 27.1917 14.69 26.3917 14.73C26.1117 14.75 25.8117 14.75 25.4917 14.73C25.1917 14.71 24.9117 14.64 24.6517 14.52C24.4117 14.4 24.2317 14.23 24.1117 14.01C23.9917 13.77 23.9817 13.45 24.0817 13.05C24.2217 12.65 24.3517 12.37 24.4717 12.21C24.5917 12.05 24.8217 11.88 25.1617 11.7C25.5217 11.54 25.8917 11.43 26.2717 11.37C26.6717 11.29 27.0517 11.25 27.4117 11.25C27.7517 11.29 27.9517 11.46 28.0117 11.76C28.0717 12.08 27.9617 12.32 27.6817 12.48C27.4817 12.6 27.2717 12.71 27.0517 12.81C26.8317 12.89 26.6017 12.97 26.3617 13.05C26.1817 13.09 25.9917 13.12 25.7917 13.14C25.5917 13.16 25.3917 13.17 25.1917 13.17C24.8917 13.17 24.7217 13.24 24.6817 13.38C24.6617 13.5 24.7217 13.63 24.8617 13.77C25.0617 13.97 25.4117 14.08 25.9117 14.1C26.4117 14.1 26.9417 14.06 27.5017 13.98C28.0817 13.88 28.6217 13.74 29.1217 13.56C29.6417 13.38 30.0117 13.19 30.2317 12.99ZM27.2017 12.12C27.3417 11.94 27.3417 11.85 27.2017 11.85C27.0817 11.83 26.8917 11.86 26.6317 11.94C26.3917 12.02 26.1117 12.14 25.7917 12.3C25.4717 12.46 25.1917 12.62 24.9517 12.78C25.2517 12.82 25.6417 12.78 26.1217 12.66C26.6017 12.52 26.9617 12.34 27.2017 12.12ZM38.8677 13.38C38.6477 13.6 38.3077 13.83 37.8477 14.07C37.4077 14.31 36.9577 14.48 36.4977 14.58C36.0577 14.68 35.6677 14.67 35.3277 14.55C34.9877 14.43 34.8177 14.11 34.8177 13.59C34.8177 13.43 34.8277 13.27 34.8477 13.11C34.8677 12.93 34.8977 12.74 34.9377 12.54C34.4177 12.86 33.9077 13.18 33.4077 13.5C32.9277 13.8 32.4277 14.09 31.9077 14.37C31.7877 14.47 31.6477 14.53 31.4877 14.55C31.3477 14.57 31.2077 14.59 31.0677 14.61C30.6277 14.67 30.3177 14.54 30.1377 14.22C29.9577 13.9 29.9877 13.57 30.2277 13.23C30.3277 13.11 30.4177 13 30.4977 12.9C30.5777 12.8 30.6777 12.7 30.7977 12.6C31.3177 12.14 31.8877 11.8 32.5077 11.58C33.1277 11.36 33.7977 11.28 34.5177 11.34C34.7777 11.38 34.9877 11.3 35.1477 11.1C35.2877 10.96 35.4177 10.82 35.5377 10.68C35.6777 10.54 35.8177 10.4 35.9577 10.26C35.9977 10.2 36.0477 10.14 36.1077 10.08C36.1677 10.02 36.2277 9.98 36.2877 9.96C36.3477 9.94 36.4177 9.93 36.4977 9.93C36.5977 9.93 36.6777 9.95 36.7377 9.99C36.8377 10.13 36.8777 10.28 36.8577 10.44C36.8377 10.6 36.7577 10.8 36.6177 11.04C36.5577 11.16 36.4377 11.41 36.2577 11.79C36.0777 12.15 35.9377 12.51 35.8377 12.87C35.7577 13.23 35.7577 13.53 35.8377 13.77C35.9177 13.99 36.1877 14.03 36.6477 13.89C36.8877 13.83 37.1477 13.73 37.4277 13.59C37.7077 13.43 37.9877 13.28 38.2677 13.14C38.3477 13.1 38.4277 13.06 38.5077 13.02C38.5877 12.96 38.6777 12.94 38.7777 12.96C38.8777 13 38.9477 13.07 38.9877 13.17C39.0477 13.25 39.0077 13.32 38.8677 13.38ZM30.9777 13.74C31.5577 13.64 32.1677 13.42 32.8077 13.08C33.4477 12.72 33.9677 12.34 34.3677 11.94C33.7677 11.98 33.1377 12.16 32.4777 12.48C31.8177 12.8 31.3177 13.22 30.9777 13.74ZM40.5379 18.27C40.7379 18.17 40.8979 18.1 41.0179 18.06C41.1579 18.02 41.2679 17.95 41.3479 17.85C41.7479 17.55 42.1479 17.24 42.5479 16.92C42.9479 16.6 43.3379 16.27 43.7179 15.93C44.1579 15.53 44.6279 15.12 45.1279 14.7C45.6279 14.26 46.0879 13.83 46.5079 13.41C46.7279 13.21 46.9179 13.08 47.0779 13.02C47.2579 12.94 47.3779 12.93 47.4379 12.99C47.5179 13.05 47.5179 13.16 47.4379 13.32C47.3779 13.48 47.2279 13.68 46.9879 13.92C46.1679 14.76 45.3379 15.58 44.4979 16.38C43.6779 17.16 42.7879 17.88 41.8279 18.54C41.6879 18.64 41.5379 18.73 41.3779 18.81C41.2379 18.89 41.0879 18.95 40.9279 18.99C40.5879 19.11 40.2879 19.08 40.0279 18.9C39.7879 18.72 39.6979 18.45 39.7579 18.09C39.7979 17.85 39.8479 17.62 39.9079 17.4C39.9679 17.16 40.0479 16.93 40.1479 16.71C40.4279 16.11 40.7179 15.5 41.0179 14.88C41.3179 14.26 41.6179 13.65 41.9179 13.05C41.9579 12.97 41.9879 12.9 42.0079 12.84C42.0279 12.78 42.0379 12.7 42.0379 12.6C41.9379 12.68 41.8479 12.75 41.7679 12.81C41.7079 12.87 41.6379 12.93 41.5579 12.99C40.8979 13.53 40.2479 14.03 39.6079 14.49C39.5079 14.53 39.3979 14.58 39.2779 14.64C39.1579 14.68 39.0379 14.71 38.9179 14.73C38.6579 14.77 38.4479 14.72 38.2879 14.58C38.1279 14.44 38.0579 14.25 38.0779 14.01C38.0979 13.87 38.1379 13.73 38.1979 13.59C38.2579 13.45 38.3179 13.31 38.3779 13.17C38.6579 12.81 38.9779 12.51 39.3379 12.27C39.7179 12.01 40.1279 11.8 40.5679 11.64C40.8879 11.5 41.1879 11.43 41.4679 11.43C41.7079 11.39 41.9179 11.32 42.0979 11.22C42.2979 11.1 42.4779 10.96 42.6379 10.8C43.2579 10.1 43.8179 9.38 44.3179 8.64C44.8379 7.88 45.3579 7.11 45.8779 6.33C45.9179 6.27 45.9579 6.2 45.9979 6.12C46.0379 6.04 46.0879 5.97 46.1479 5.91C46.4479 5.53 46.7079 5.4 46.9279 5.52C47.1879 5.66 47.1879 5.97 46.9279 6.45C46.7879 6.63 46.6479 6.82 46.5079 7.02C46.3879 7.22 46.2779 7.41 46.1779 7.59C45.2779 8.97 44.4179 10.35 43.5979 11.73C42.7979 13.09 42.0479 14.49 41.3479 15.93C41.1679 16.27 41.0079 16.62 40.8679 16.98C40.7279 17.34 40.6179 17.77 40.5379 18.27ZM39.0679 13.77C39.8679 13.45 40.4179 13.03 40.7179 12.51C40.3779 12.61 40.0579 12.77 39.7579 12.99C39.4579 13.19 39.2279 13.45 39.0679 13.77ZM53.054 12.99C53.154 12.95 53.244 12.92 53.324 12.9C53.404 12.86 53.494 12.82 53.594 12.78C53.834 12.74 54.004 12.81 54.104 12.99C54.204 13.23 54.144 13.4 53.924 13.5C53.184 13.88 52.414 14.17 51.614 14.37C50.814 14.57 50.014 14.69 49.214 14.73C48.934 14.75 48.634 14.75 48.314 14.73C48.014 14.71 47.734 14.64 47.474 14.52C47.234 14.4 47.054 14.23 46.934 14.01C46.814 13.77 46.804 13.45 46.904 13.05C47.044 12.65 47.174 12.37 47.294 12.21C47.414 12.05 47.644 11.88 47.984 11.7C48.344 11.54 48.714 11.43 49.094 11.37C49.494 11.29 49.874 11.25 50.234 11.25C50.574 11.29 50.774 11.46 50.834 11.76C50.894 12.08 50.784 12.32 50.504 12.48C50.304 12.6 50.094 12.71 49.874 12.81C49.654 12.89 49.424 12.97 49.184 13.05C49.004 13.09 48.814 13.12 48.614 13.14C48.414 13.16 48.214 13.17 48.014 13.17C47.714 13.17 47.544 13.24 47.504 13.38C47.484 13.5 47.544 13.63 47.684 13.77C47.884 13.97 48.234 14.08 48.734 14.1C49.234 14.1 49.764 14.06 50.324 13.98C50.904 13.88 51.444 13.74 51.944 13.56C52.464 13.38 52.834 13.19 53.054 12.99ZM50.024 12.12C50.164 11.94 50.164 11.85 50.024 11.85C49.904 11.83 49.714 11.86 49.454 11.94C49.214 12.02 48.934 12.14 48.614 12.3C48.294 12.46 48.014 12.62 47.774 12.78C48.074 12.82 48.464 12.78 48.944 12.66C49.424 12.52 49.784 12.34 50.024 12.12ZM58.6 13.95C58.36 13.93 58.17 13.87 58.03 13.77C57.89 13.67 57.77 13.54 57.67 13.38C57.59 13.22 57.52 13.05 57.46 12.87C57.42 12.69 57.38 12.51 57.34 12.33C57.22 12.05 57.05 11.91 56.83 11.91C56.61 11.91 56.38 11.98 56.14 12.12C55.92 12.24 55.71 12.4 55.51 12.6C55.31 12.8 55.15 12.95 55.03 13.05C54.33 13.63 53.79 14.28 53.41 15C53.35 15.16 53.26 15.29 53.14 15.39C53 15.49 52.87 15.56 52.75 15.6C52.63 15.62 52.53 15.6 52.45 15.54C52.35 15.48 52.3 15.36 52.3 15.18C52.3 15.08 52.32 15 52.36 14.94C52.4 14.88 52.44 14.81 52.48 14.73C52.86 14.05 53.23 13.37 53.59 12.69C53.95 12.01 54.32 11.33 54.7 10.65C54.8 10.45 54.93 10.27 55.09 10.11C55.13 10.07 55.18 10.04 55.24 10.02C55.32 10 55.38 10.01 55.42 10.05C55.56 10.13 55.61 10.24 55.57 10.38C55.57 10.52 55.53 10.69 55.45 10.89C55.31 11.15 55.18 11.41 55.06 11.67C54.94 11.93 54.83 12.2 54.73 12.48C54.89 12.36 54.99 12.28 55.03 12.24C55.23 12.08 55.41 11.93 55.57 11.79C55.75 11.63 55.93 11.49 56.11 11.37C56.35 11.17 56.62 11.05 56.92 11.01C57.52 10.87 57.91 11.09 58.09 11.67C58.13 11.83 58.16 11.98 58.18 12.12C58.2 12.26 58.23 12.4 58.27 12.54C58.31 12.76 58.38 12.91 58.48 12.99C58.58 13.05 58.75 13.07 58.99 13.05C59.09 13.05 59.19 13.05 59.29 13.05C59.41 13.03 59.52 13.02 59.62 13.02C59.9 13 60.09 13.04 60.19 13.14C60.29 13.24 60.3 13.36 60.22 13.5C60.14 13.62 59.96 13.73 59.68 13.83C59.42 13.93 59.06 13.97 58.6 13.95Z" fill="#CCCCCC"/>
</svg>
