<svg width="113" height="27" viewBox="0 0 113 27" fill="none" xmlns="http://www.w3.org/2000/svg">
<path d="M11.08 2.19C11.18 2.33 11.19 2.45 11.11 2.55C11.03 2.65 10.96 2.74 10.9 2.82C10.68 3.16 10.46 3.49 10.24 3.81C10.02 4.11 9.79 4.42 9.55 4.74C8.17 6.64 6.91 8.61 5.77 10.65C5.21 11.65 4.66 12.66 4.12 13.68C3.6 14.68 3.07 15.69 2.53 16.71C2.23 17.31 1.96 17.92 1.72 18.54C1.48 19.16 1.29 19.8 1.15 20.46C1.11 20.66 1.07 20.85 1.03 21.03C1.01 21.21 1.02 21.39 1.06 21.57C1.1 22.29 1.43 22.58 2.05 22.44C2.55 22.4 3.02 22.26 3.46 22.02C4.12 21.68 4.74 21.3 5.32 20.88C5.9 20.46 6.47 20.02 7.03 19.56C8.89 18 10.66 16.38 12.34 14.7C14.04 13.02 15.68 11.25 17.26 9.39C18.28 8.21 19.26 7.02 20.2 5.82C21.16 4.62 22.14 3.42 23.14 2.22C23.24 2.04 23.4 1.87 23.62 1.71C23.82 1.67 24 1.68 24.16 1.74C24.22 1.88 24.24 2.04 24.22 2.22C24.18 2.32 24.14 2.41 24.1 2.49C24.08 2.57 24.05 2.65 24.01 2.73C22.89 4.41 21.85 6.11 20.89 7.83C19.93 9.53 18.99 11.27 18.07 13.05C17.37 14.41 16.7 15.76 16.06 17.1C15.42 18.44 14.85 19.82 14.35 21.24C14.11 21.94 13.9 22.64 13.72 23.34C13.54 24.04 13.43 24.76 13.39 25.5C13.39 25.8 13.35 25.97 13.27 26.01C13.21 26.07 13.13 26.06 13.03 25.98C12.95 25.9 12.87 25.77 12.79 25.59C12.73 25.43 12.7 25.27 12.7 25.11C12.7 24.85 12.7 24.6 12.7 24.36C12.72 24.12 12.77 23.88 12.85 23.64C13.11 22.46 13.47 21.28 13.93 20.1C14.69 18.1 15.54 16.17 16.48 14.31C17.44 12.43 18.44 10.56 19.48 8.7C19.58 8.48 19.69 8.26 19.81 8.04C19.93 7.8 20.03 7.57 20.11 7.35C20.07 7.39 20.02 7.43 19.96 7.47C19.92 7.49 19.88 7.53 19.84 7.59C19.08 8.47 18.32 9.35 17.56 10.23C16.82 11.09 16.05 11.94 15.25 12.78C14.39 13.7 13.52 14.59 12.64 15.45C11.78 16.31 10.9 17.16 10 18C9.3 18.64 8.58 19.25 7.84 19.83C7.12 20.41 6.4 20.99 5.68 21.57C5.28 21.87 4.87 22.16 4.45 22.44C4.03 22.7 3.59 22.91 3.13 23.07C2.97 23.11 2.8 23.16 2.62 23.22C2.46 23.26 2.3 23.3 2.14 23.34C1.56 23.4 1.11 23.28 0.79 22.98C0.47 22.66 0.3 22.19 0.28 21.57C0.28 20.81 0.44 20 0.76 19.14C1.04 18.24 1.37 17.37 1.75 16.53C2.15 15.67 2.58 14.82 3.04 13.98C3.6 12.94 4.18 11.92 4.78 10.92C5.4 9.9 6.01 8.88 6.61 7.86C7.13 6.96 7.69 6.1 8.29 5.28C8.91 4.44 9.57 3.61 10.27 2.79C10.37 2.65 10.48 2.51 10.6 2.37C10.72 2.23 10.88 2.17 11.08 2.19ZM24.0571 12.87C24.2371 12.69 24.3671 12.48 24.4471 12.24C24.5471 11.98 24.5771 11.76 24.5371 11.58C24.4971 11.38 24.3871 11.25 24.2071 11.19C24.0271 11.11 23.7671 11.17 23.4271 11.37C23.2671 11.47 23.0971 11.6 22.9171 11.76C22.7371 11.92 22.5871 12.1 22.4671 12.3C22.3471 12.48 22.2771 12.67 22.2571 12.87C22.2571 13.07 22.3471 13.24 22.5271 13.38C22.7271 13.58 22.9371 13.79 23.1571 14.01C23.3771 14.21 23.5971 14.4 23.8171 14.58C24.3971 14.32 24.9671 14.09 25.5271 13.89C26.0871 13.69 26.6571 13.42 27.2371 13.08C27.4771 12.94 27.6971 12.86 27.8971 12.84C27.9971 12.84 28.0971 12.86 28.1971 12.9C28.2971 12.92 28.3671 13 28.4071 13.14C28.3471 13.32 28.2471 13.45 28.1071 13.53C27.9671 13.59 27.8271 13.64 27.6871 13.68C27.4071 13.8 27.0771 13.93 26.6971 14.07C26.3171 14.19 25.9371 14.33 25.5571 14.49C25.1771 14.63 24.8271 14.79 24.5071 14.97C24.1871 15.15 23.9571 15.34 23.8171 15.54C23.6571 15.86 23.3871 16.15 23.0071 16.41C22.5871 16.69 22.1471 16.93 21.6871 17.13C21.2471 17.31 20.7671 17.43 20.2471 17.49C19.9871 17.51 19.7071 17.49 19.4071 17.43C19.3271 17.41 19.2671 17.36 19.2271 17.28C19.1671 17.2 19.1271 17.11 19.1071 17.01C19.0671 16.91 19.0871 16.84 19.1671 16.8C19.2471 16.76 19.3271 16.71 19.4071 16.65C19.8871 16.25 20.4071 15.9 20.9671 15.6C21.5071 15.28 22.1271 15.01 22.8271 14.79C22.7671 14.73 22.6971 14.68 22.6171 14.64C22.5571 14.58 22.4971 14.51 22.4371 14.43C22.2971 14.31 22.1571 14.19 22.0171 14.07C21.8971 13.95 21.7871 13.82 21.6871 13.68C21.4671 13.4 21.3571 13.11 21.3571 12.81C21.3571 12.49 21.4771 12.19 21.7171 11.91C22.0571 11.55 22.4271 11.25 22.8271 11.01C23.2471 10.77 23.7071 10.62 24.2071 10.56C24.8271 10.46 25.2271 10.63 25.4071 11.07C25.5271 11.29 25.5571 11.51 25.4971 11.73C25.4371 11.95 25.3271 12.15 25.1671 12.33C25.0071 12.53 24.8571 12.68 24.7171 12.78C24.5771 12.86 24.3971 12.95 24.1771 13.05C24.1571 13.01 24.1371 12.98 24.1171 12.96C24.0971 12.94 24.0771 12.91 24.0571 12.87ZM20.4871 16.56C20.3471 16.8 20.3471 16.93 20.4871 16.95C20.6271 16.97 20.8371 16.92 21.1171 16.8C21.3771 16.68 21.6771 16.51 22.0171 16.29C22.3571 16.05 22.6671 15.8 22.9471 15.54C22.5671 15.54 22.1271 15.63 21.6271 15.81C21.1271 15.97 20.7471 16.22 20.4871 16.56ZM32.2696 13.71C31.8296 13.95 31.3796 14.18 30.9196 14.4C30.4796 14.62 30.0096 14.79 29.5096 14.91C29.3496 14.93 29.1896 14.95 29.0296 14.97C28.8696 14.97 28.7096 14.95 28.5496 14.91C28.2696 14.87 28.0696 14.74 27.9496 14.52C27.8096 14.3 27.7596 14.06 27.7996 13.8C27.7996 13.64 27.8196 13.47 27.8596 13.29C27.8796 13.11 27.9396 12.95 28.0396 12.81C28.2596 12.45 28.4596 12.05 28.6396 11.61C28.8396 11.17 29.0696 10.78 29.3296 10.44C29.4296 10.32 29.5496 10.26 29.6896 10.26C29.8296 10.24 29.9496 10.28 30.0496 10.38C30.1696 10.46 30.2396 10.59 30.2596 10.77C30.2796 10.93 30.2096 11.11 30.0496 11.31C29.8496 11.63 29.6496 11.94 29.4496 12.24C29.2496 12.54 29.0496 12.86 28.8496 13.2C28.6496 13.62 28.5596 13.93 28.5796 14.13C28.6196 14.31 28.7196 14.42 28.8796 14.46C29.0596 14.5 29.2796 14.48 29.5396 14.4C29.7996 14.32 30.0596 14.21 30.3196 14.07C30.5996 13.93 30.8596 13.79 31.0996 13.65C31.3396 13.49 31.5096 13.35 31.6096 13.23C31.8096 13.01 31.9896 12.9 32.1496 12.9C32.3096 12.88 32.4196 12.92 32.4796 13.02C32.5596 13.1 32.5896 13.22 32.5696 13.38C32.5496 13.52 32.4496 13.63 32.2696 13.71ZM31.5496 8.04C31.7096 8.04 31.8296 8.09 31.9096 8.19C32.0096 8.29 32.0396 8.41 31.9996 8.55C31.9596 8.71 31.8496 8.88 31.6696 9.06C31.4896 9.24 31.2996 9.39 31.0996 9.51C30.8196 9.67 30.6196 9.73 30.4996 9.69C30.3996 9.65 30.3896 9.44 30.4696 9.06C30.5096 8.82 30.6096 8.59 30.7696 8.37C30.9496 8.15 31.2096 8.04 31.5496 8.04ZM37.3933 15.03C37.9133 14.83 38.5133 14.56 39.1933 14.22C39.8733 13.86 40.4733 13.54 40.9933 13.26C41.3133 13.12 41.5633 13.06 41.7433 13.08C41.9433 13.08 42.0633 13.13 42.1033 13.23C42.1433 13.31 42.1033 13.43 41.9833 13.59C41.8833 13.73 41.6833 13.87 41.3833 14.01C40.7633 14.29 40.1333 14.57 39.4933 14.85C38.8733 15.11 38.2433 15.37 37.6033 15.63C37.1633 15.81 36.7533 15.83 36.3733 15.69C36.0133 15.51 35.8733 15.17 35.9533 14.67C35.9933 14.47 36.0533 14.3 36.1333 14.16C36.2133 14 36.2733 13.83 36.3133 13.65C36.3933 13.43 36.4633 13.23 36.5233 13.05C36.6033 12.87 36.6333 12.73 36.6133 12.63C36.6133 12.51 36.5433 12.44 36.4033 12.42C36.2833 12.4 36.0633 12.44 35.7433 12.54C35.4033 12.72 35.0633 12.91 34.7233 13.11C34.4033 13.29 34.0833 13.48 33.7633 13.68C33.4633 13.9 33.1633 14.12 32.8633 14.34C32.5833 14.56 32.2833 14.78 31.9633 15C31.9233 15.04 31.8833 15.09 31.8433 15.15C31.7833 15.19 31.7133 15.23 31.6333 15.27C31.5333 15.31 31.4333 15.35 31.3333 15.39C31.2133 15.43 31.0933 15.39 30.9733 15.27C30.8733 15.17 30.8333 15.07 30.8533 14.97C30.8533 14.85 30.8933 14.74 30.9733 14.64C31.1333 14.4 31.2933 14.16 31.4533 13.92C31.5933 13.68 31.7433 13.44 31.9033 13.2C32.1033 12.94 32.2933 12.68 32.4733 12.42C32.6533 12.16 32.8333 11.89 33.0133 11.61C33.1133 11.49 33.1833 11.37 33.2233 11.25C33.5633 10.83 33.8133 10.7 33.9733 10.86C34.1533 10.98 34.0933 11.27 33.7933 11.73C33.6533 11.95 33.5233 12.17 33.4033 12.39C33.2833 12.59 33.1433 12.79 32.9833 12.99C32.9233 13.07 32.8133 13.2 32.6533 13.38C32.4933 13.56 32.3533 13.73 32.2333 13.89C32.1133 14.03 32.0533 14.12 32.0533 14.16C32.0333 14.2 32.1433 14.11 32.3833 13.89C32.8233 13.53 33.2833 13.19 33.7633 12.87C34.2633 12.53 34.7633 12.24 35.2633 12C35.4633 11.9 35.6833 11.81 35.9233 11.73C36.1833 11.63 36.4133 11.59 36.6133 11.61C36.8333 11.61 37.0133 11.68 37.1533 11.82C37.3133 11.96 37.4133 12.19 37.4533 12.51C37.4933 12.83 37.4333 13.13 37.2733 13.41C37.1133 13.67 36.9633 13.95 36.8233 14.25C36.6833 14.63 36.6433 14.9 36.7033 15.06C36.7633 15.2 36.9933 15.19 37.3933 15.03ZM45.6562 14.52C46.2762 14.3 46.7362 14.14 47.0362 14.04C47.3562 13.94 47.6362 13.85 47.8762 13.77C48.1362 13.69 48.4162 13.6 48.7162 13.5C49.0362 13.38 49.5062 13.21 50.1262 12.99C50.3262 12.91 50.4662 12.88 50.5462 12.9C50.6262 12.92 50.7162 12.95 50.8162 12.99C50.9162 13.01 50.9962 13.06 51.0562 13.14C51.1362 13.24 51.1462 13.34 51.0862 13.44C51.0462 13.54 50.9862 13.61 50.9062 13.65C50.8062 13.71 50.6962 13.77 50.5762 13.83C50.4562 13.89 50.3462 13.93 50.2462 13.95C49.7862 14.11 49.4762 14.21 49.3162 14.25C49.1562 14.27 49.0262 14.28 48.9262 14.28C48.8462 14.28 48.7262 14.3 48.5662 14.34C48.4262 14.36 48.1262 14.45 47.6662 14.61C47.2062 14.77 46.7362 14.94 46.2562 15.12C45.7962 15.28 45.3162 15.44 44.8162 15.6C44.6562 15.68 44.4962 15.82 44.3362 16.02C44.1962 16.2 44.0762 16.38 43.9762 16.56C43.3762 17.54 42.7062 18.46 41.9662 19.32C41.2262 20.16 40.3662 20.89 39.3862 21.51C38.7462 21.91 38.1062 22.25 37.4662 22.53C36.8062 22.81 36.0962 22.98 35.3362 23.04C34.9362 23.08 34.5762 23.05 34.2562 22.95C33.8762 22.87 33.6162 22.69 33.4762 22.41C33.3362 22.13 33.3662 21.82 33.5662 21.48C33.7862 21.06 34.0762 20.68 34.4362 20.34C34.7762 20.06 35.1262 19.8 35.4862 19.56C35.8262 19.3 36.1662 19.04 36.5062 18.78C37.4662 18.14 38.4662 17.59 39.5062 17.13C40.5262 16.67 41.5462 16.22 42.5662 15.78C42.9662 15.66 43.3262 15.47 43.6462 15.21C43.9862 14.95 44.2462 14.64 44.4262 14.28C44.7662 13.78 44.9762 13.33 45.0562 12.93C45.1362 12.53 45.1962 12.33 45.2362 12.33C44.9762 12.45 44.6562 12.65 44.2762 12.93C43.8962 13.21 43.5862 13.41 43.3462 13.53C43.1262 13.65 42.9162 13.75 42.7162 13.83C42.5162 13.89 42.3062 13.95 42.0862 14.01C41.9262 14.09 41.7762 14.11 41.6362 14.07C41.4962 14.01 41.3662 13.92 41.2462 13.8C41.0862 13.52 41.1062 13.24 41.3062 12.96C41.4062 12.8 41.5262 12.64 41.6662 12.48C41.8062 12.32 41.9562 12.18 42.1162 12.06C42.4762 11.72 42.8562 11.45 43.2562 11.25C43.6562 11.05 44.0862 10.89 44.5462 10.77C44.6662 10.73 44.7862 10.71 44.9062 10.71C45.0462 10.71 45.1762 10.71 45.2962 10.71C45.3962 10.69 45.4762 10.68 45.5362 10.68C45.6162 10.68 45.7062 10.66 45.8062 10.62C45.9262 10.58 46.0362 10.56 46.1362 10.56C46.2562 10.54 46.3462 10.58 46.4062 10.68C46.5862 10.84 46.6062 11.07 46.4662 11.37C46.2062 11.95 45.9462 12.53 45.6862 13.11C45.4462 13.69 45.1862 14.24 44.9062 14.76L45.6562 14.52ZM35.9062 22.35C36.6262 22.15 37.3562 21.84 38.0962 21.42C38.8162 20.98 39.5062 20.48 40.1662 19.92C40.8262 19.36 41.4262 18.76 41.9662 18.12C42.5062 17.48 42.9462 16.84 43.2862 16.2C42.7462 16.36 42.1162 16.61 41.3962 16.95C40.6762 17.27 39.9562 17.64 39.2362 18.06C38.5162 18.48 37.8362 18.91 37.1962 19.35C36.5362 19.79 35.9962 20.19 35.5762 20.55C35.2162 20.81 34.9262 21.08 34.7062 21.36C34.4662 21.62 34.3462 21.85 34.3462 22.05C34.3262 22.25 34.4362 22.39 34.6762 22.47C34.9162 22.53 35.3262 22.49 35.9062 22.35ZM42.5062 12.87C42.3662 13.13 42.3762 13.26 42.5362 13.26C42.7162 13.24 42.9562 13.15 43.2562 12.99C43.5562 12.83 43.8862 12.62 44.2462 12.36C44.6262 12.08 44.9562 11.8 45.2362 11.52C45.0362 11.52 44.8062 11.56 44.5462 11.64C44.2862 11.7 44.0262 11.79 43.7662 11.91C43.5262 12.03 43.2862 12.18 43.0462 12.36C42.8262 12.52 42.6462 12.69 42.5062 12.87ZM63.9288 21.3C63.1088 21.64 62.2788 22 61.4388 22.38C60.5988 22.74 59.7988 23.05 59.0388 23.31C58.2988 23.57 57.6387 23.75 57.0587 23.85C56.4587 23.93 55.9987 23.86 55.6787 23.64C55.6787 23.6 55.6787 23.58 55.6787 23.58C55.6587 23.56 55.6487 23.53 55.6487 23.49C55.4687 23.27 55.6287 23.05 56.1287 22.83C56.6287 22.61 57.3087 22.37 58.1688 22.11C59.0488 21.85 60.0388 21.56 61.1388 21.24C62.2388 20.92 63.2988 20.54 64.3188 20.1C64.4788 20.02 64.6188 19.94 64.7388 19.86C64.8788 19.76 65.0088 19.62 65.1288 19.44C66.7488 16.94 68.3588 14.45 69.9588 11.97C71.5588 9.49 73.1688 6.99 74.7888 4.47C74.8488 4.37 74.8988 4.27 74.9388 4.17C74.9988 4.07 75.0688 3.95 75.1488 3.81C74.8488 3.81 74.5688 3.8 74.3088 3.78C74.0688 3.76 73.8188 3.77 73.5587 3.81C72.2188 3.93 70.9188 4.08 69.6588 4.26C68.4188 4.42 67.1688 4.64 65.9088 4.92C65.8088 4.96 65.6888 5.01 65.5488 5.07C65.4088 5.11 65.2888 5.03 65.1888 4.83C65.1488 4.71 65.1788 4.55 65.2788 4.35C65.3988 4.13 65.5688 4 65.7888 3.96C67.3288 3.46 68.8888 3.17 70.4688 3.09C72.0488 3.01 73.6388 2.97 75.2388 2.97C75.4188 2.97 75.5588 2.94 75.6588 2.88C75.7788 2.8 75.8888 2.69 75.9888 2.55C76.1488 2.29 76.2988 2.05 76.4388 1.83C76.5788 1.59 76.7388 1.36 76.9188 1.14C77.0788 0.899999 77.2788 0.689999 77.5188 0.509998C77.5588 0.469999 77.6088 0.449999 77.6688 0.449999C77.7488 0.449999 77.7988 0.469999 77.8188 0.509998C77.8588 0.549999 77.8888 0.61 77.9088 0.69C77.9288 0.769999 77.9288 0.839998 77.9088 0.899999C77.8888 1.06 77.8088 1.21 77.6688 1.35C77.5088 1.63 77.3588 1.9 77.2188 2.16C77.0788 2.42 76.9188 2.69 76.7388 2.97C77.2388 3.01 77.7188 3.05 78.1788 3.09C78.6388 3.13 79.0988 3.19 79.5588 3.27C80.5988 3.43 81.6288 3.62 82.6488 3.84C83.6888 4.04 84.6988 4.33 85.6788 4.71C86.0988 4.87 86.4988 5.05 86.8788 5.25C87.2588 5.45 87.6188 5.72 87.9588 6.06C88.4188 6.52 88.6888 7.03 88.7688 7.59C88.8488 8.13 88.7288 8.69 88.4088 9.27C88.1888 9.69 87.9088 10.06 87.5688 10.38C87.2488 10.7 86.9188 11 86.5788 11.28C85.8188 11.88 85.0388 12.42 84.2388 12.9C83.4388 13.38 82.6188 13.82 81.7788 14.22C80.5788 14.8 79.3788 15.35 78.1788 15.87C76.9788 16.39 75.7588 16.91 74.5188 17.43C73.1188 17.99 71.7188 18.52 70.3188 19.02C68.9388 19.5 67.5488 20 66.1488 20.52C65.8688 20.62 65.6388 20.74 65.4588 20.88C65.2988 21.02 65.1388 21.2 64.9788 21.42C64.7588 21.78 64.5188 22.18 64.2588 22.62C64.0188 23.04 63.7688 23.42 63.5088 23.76C63.1288 24.2 62.8688 24.47 62.7288 24.57C62.5888 24.67 62.5088 24.66 62.4888 24.54C62.4888 24.42 62.5488 24.22 62.6688 23.94C62.7888 23.66 62.9188 23.36 63.0588 23.04C63.2188 22.7 63.3788 22.38 63.5388 22.08C63.6988 21.76 63.8288 21.5 63.9288 21.3ZM66.4788 19.2C66.5188 19.28 66.5387 19.32 66.5387 19.32C66.6788 19.3 66.7888 19.26 66.8688 19.2C67.2688 19.08 67.6688 18.95 68.0688 18.81C68.4688 18.67 68.8688 18.53 69.2688 18.39C71.2088 17.67 73.1088 16.94 74.9688 16.2C76.8488 15.46 78.7288 14.64 80.6088 13.74C81.5688 13.28 82.4988 12.79 83.3988 12.27C84.3188 11.75 85.1988 11.14 86.0388 10.44C86.2988 10.22 86.5388 9.99 86.7588 9.75C86.9988 9.51 87.2188 9.25 87.4188 8.97C87.7788 8.51 87.9188 8.07 87.8388 7.65C87.7788 7.23 87.5188 6.86 87.0588 6.54C86.7788 6.34 86.4788 6.16 86.1588 6C85.8388 5.84 85.5088 5.69 85.1688 5.55C83.7888 5.09 82.3888 4.73 80.9688 4.47C79.5688 4.19 78.1388 4 76.6788 3.9C76.2988 3.88 76.0388 4.02 75.8988 4.32C75.4588 5.08 75.0088 5.83 74.5488 6.57C74.1088 7.29 73.6588 8 73.1988 8.7C72.1788 10.3 71.1488 11.9 70.1088 13.5C69.0888 15.08 68.0688 16.66 67.0488 18.24C66.9488 18.4 66.8488 18.56 66.7488 18.72C66.6688 18.88 66.5788 19.04 66.4788 19.2ZM96.0032 12.99C96.1032 12.95 96.1932 12.92 96.2732 12.9C96.3532 12.86 96.4432 12.82 96.5432 12.78C96.7832 12.74 96.9532 12.81 97.0532 12.99C97.1532 13.23 97.0932 13.4 96.8732 13.5C96.1332 13.88 95.3632 14.17 94.5632 14.37C93.7632 14.57 92.9632 14.69 92.1632 14.73C91.8832 14.75 91.5832 14.75 91.2632 14.73C90.9632 14.71 90.6832 14.64 90.4232 14.52C90.1832 14.4 90.0032 14.23 89.8832 14.01C89.7632 13.77 89.7532 13.45 89.8532 13.05C89.9932 12.65 90.1232 12.37 90.2432 12.21C90.3632 12.05 90.5932 11.88 90.9332 11.7C91.2932 11.54 91.6632 11.43 92.0432 11.37C92.4432 11.29 92.8232 11.25 93.1832 11.25C93.5232 11.29 93.7232 11.46 93.7832 11.76C93.8432 12.08 93.7332 12.32 93.4532 12.48C93.2532 12.6 93.0432 12.71 92.8232 12.81C92.6032 12.89 92.3732 12.97 92.1332 13.05C91.9532 13.09 91.7632 13.12 91.5632 13.14C91.3632 13.16 91.1632 13.17 90.9632 13.17C90.6632 13.17 90.4932 13.24 90.4532 13.38C90.4332 13.5 90.4932 13.63 90.6332 13.77C90.8332 13.97 91.1832 14.08 91.6832 14.1C92.1832 14.1 92.7132 14.06 93.2732 13.98C93.8532 13.88 94.3932 13.74 94.8932 13.56C95.4132 13.38 95.7832 13.19 96.0032 12.99ZM92.9732 12.12C93.1132 11.94 93.1132 11.85 92.9732 11.85C92.8532 11.83 92.6632 11.86 92.4032 11.94C92.1632 12.02 91.8832 12.14 91.5632 12.3C91.2432 12.46 90.9632 12.62 90.7232 12.78C91.0232 12.82 91.4132 12.78 91.8932 12.66C92.3732 12.52 92.7332 12.34 92.9732 12.12ZM102.869 13.65C102.789 13.71 102.649 13.78 102.449 13.86C101.789 14.14 101.119 14.39 100.439 14.61C99.7792 14.83 99.0892 14.96 98.3692 15C98.2092 15.04 98.0292 15.06 97.8292 15.06C97.6492 15.04 97.4692 15.01 97.2892 14.97C96.8292 14.85 96.5092 14.62 96.3292 14.28C96.1292 13.92 96.1392 13.5 96.3592 13.02C96.3992 12.96 96.4292 12.9 96.4492 12.84C96.4692 12.76 96.4992 12.69 96.5392 12.63C96.9192 12.13 97.3392 11.72 97.7992 11.4C98.2592 11.06 98.7992 10.82 99.4192 10.68C99.5992 10.62 99.7892 10.6 99.9892 10.62C100.189 10.62 100.379 10.65 100.559 10.71C100.859 10.81 101.049 11.02 101.129 11.34C101.229 11.64 101.169 11.91 100.949 12.15C100.909 12.19 100.859 12.23 100.799 12.27C100.739 12.29 100.669 12.3 100.589 12.3C100.549 12.3 100.519 12.27 100.499 12.21C100.479 12.13 100.449 12.07 100.409 12.03C100.369 11.71 100.299 11.51 100.199 11.43C100.099 11.35 99.8992 11.35 99.5992 11.43C99.1192 11.57 98.6892 11.78 98.3092 12.06C97.9292 12.34 97.5992 12.66 97.3192 13.02C97.2392 13.12 97.1692 13.25 97.1092 13.41C96.9892 13.81 97.1192 14.05 97.4992 14.13C97.7792 14.21 98.0892 14.22 98.4292 14.16C98.9692 14.12 99.4892 14.03 99.9892 13.89C100.489 13.75 100.969 13.57 101.429 13.35C101.629 13.27 101.819 13.19 101.999 13.11C102.179 13.03 102.369 12.97 102.569 12.93C103.069 12.81 103.349 12.84 103.409 13.02C103.469 13.18 103.289 13.39 102.869 13.65ZM103.638 11.79C103.398 11.57 103.288 11.43 103.308 11.37C103.328 11.29 103.448 11.17 103.668 11.01C104.168 10.67 104.578 10.23 104.898 9.69C105.358 9.01 105.818 8.33 106.278 7.65C106.738 6.97 107.198 6.29 107.658 5.61C107.938 5.21 108.238 4.84 108.558 4.5C108.878 4.14 109.238 3.81 109.638 3.51C109.738 3.43 109.848 3.36 109.968 3.3C110.108 3.22 110.238 3.15 110.358 3.09C110.458 3.05 110.568 3.03 110.688 3.03C110.808 3.03 110.918 3.08 111.018 3.18C111.118 3.28 111.178 3.38 111.198 3.48C111.238 3.58 111.218 3.69 111.138 3.81C111.038 4.01 110.938 4.22 110.838 4.44C110.758 4.64 110.648 4.84 110.508 5.04C109.808 6 109.068 6.9 108.288 7.74C107.528 8.58 106.698 9.39 105.798 10.17C105.658 10.31 105.528 10.45 105.408 10.59C105.308 10.71 105.218 10.85 105.138 11.01C104.918 11.39 104.648 11.86 104.328 12.42C104.008 12.98 103.678 13.57 103.338 14.19C102.998 14.79 102.668 15.38 102.348 15.96C102.028 16.52 101.768 16.99 101.568 17.37C101.548 17.41 101.608 17.36 101.748 17.22C101.888 17.08 102.078 16.89 102.318 16.65C102.538 16.41 102.788 16.14 103.068 15.84C103.348 15.54 103.608 15.25 103.848 14.97C104.108 14.69 104.338 14.43 104.538 14.19C104.738 13.95 104.878 13.78 104.958 13.68C104.898 13.56 104.868 13.46 104.868 13.38C104.768 13.22 104.758 13.08 104.838 12.96C104.918 12.84 105.048 12.78 105.228 12.78C105.588 12.78 105.898 12.71 106.158 12.57C106.418 12.41 106.678 12.25 106.938 12.09C107.298 11.87 107.658 11.65 108.018 11.43C108.378 11.21 108.738 10.99 109.098 10.77C109.298 10.63 109.528 10.56 109.788 10.56C109.928 10.56 110.088 10.63 110.268 10.77C110.408 10.93 110.388 11.1 110.208 11.28C110.048 11.46 109.878 11.6 109.698 11.7C109.298 11.94 108.908 12.16 108.528 12.36C108.168 12.56 107.798 12.77 107.418 12.99C107.318 13.07 107.208 13.13 107.088 13.17C106.988 13.21 106.868 13.27 106.728 13.35C106.968 13.53 107.218 13.64 107.478 13.68C107.738 13.72 107.998 13.75 108.258 13.77C108.658 13.81 109.038 13.78 109.398 13.68C109.778 13.58 110.158 13.44 110.538 13.26C110.678 13.2 110.818 13.14 110.958 13.08C111.098 13 111.238 12.93 111.378 12.87C111.498 12.83 111.608 12.81 111.708 12.81C111.808 12.79 111.918 12.77 112.038 12.75C111.978 13.15 111.778 13.45 111.438 13.65C110.638 14.15 109.808 14.45 108.948 14.55C108.088 14.65 107.208 14.5 106.308 14.1C106.148 14.02 106.018 13.99 105.918 14.01C105.838 14.03 105.728 14.09 105.588 14.19C104.788 14.93 104.018 15.68 103.278 16.44C102.538 17.2 101.848 18 101.208 18.84C101.168 18.9 101.128 18.97 101.088 19.05C101.028 19.11 100.948 19.16 100.848 19.2C100.808 19.22 100.738 19.24 100.638 19.26C100.538 19.26 100.458 19.24 100.398 19.2C100.358 19.18 100.328 19.13 100.308 19.05C100.268 18.97 100.248 18.89 100.248 18.81C100.208 18.77 100.208 18.72 100.248 18.66C100.268 18.6 100.288 18.54 100.308 18.48C100.608 17.84 100.918 17.22 101.238 16.62C101.538 16 101.828 15.37 102.108 14.73C102.328 14.29 102.558 13.86 102.798 13.44C103.038 13 103.268 12.57 103.488 12.15C103.528 12.09 103.548 12.04 103.548 12C103.568 11.94 103.598 11.87 103.638 11.79ZM106.428 8.88C106.968 8.38 107.498 7.85 108.018 7.29C108.538 6.71 108.988 6.19 109.368 5.73C109.748 5.25 110.008 4.88 110.148 4.62C110.308 4.34 110.278 4.24 110.058 4.32C109.878 4.42 109.618 4.65 109.278 5.01C108.938 5.37 108.588 5.78 108.228 6.24C107.868 6.7 107.518 7.18 107.178 7.68C106.858 8.16 106.608 8.56 106.428 8.88Z" fill="#CCCCCC"/>
</svg>
