<svg width="98" height="25" viewBox="0 0 98 25" fill="none" xmlns="http://www.w3.org/2000/svg">
<path d="M3.01 23.22C3.13 22.92 3.28 22.66 3.46 22.44C3.64 22.2 3.82 21.94 4 21.66C4.9 20.16 5.8 18.68 6.7 17.22C7.6 15.76 8.51 14.29 9.43 12.81C10.29 11.43 11.17 10.06 12.07 8.7C12.97 7.34 13.91 6.01 14.89 4.71C14.95 4.61 15.01 4.52 15.07 4.44C15.13 4.36 15.19 4.27 15.25 4.17C15.13 4.13 15.06 4.11 15.04 4.11C13.6 4.09 12.17 4.07 10.75 4.05C9.35 4.03 7.93 4 6.49 3.96C5.59 3.94 4.72 3.97 3.88 4.05C3.04 4.11 2.17 4.13 1.27 4.11C0.95 4.13 0.73 4.09 0.61 3.99C0.47 3.89 0.42 3.78 0.46 3.66C0.48 3.54 0.57 3.43 0.73 3.33C0.89 3.23 1.1 3.18 1.36 3.18C2.36 3.2 3.36 3.22 4.36 3.24C5.36 3.26 6.35 3.28 7.33 3.3C9.09 3.36 10.84 3.39 12.58 3.39C13.06 3.41 13.53 3.43 13.99 3.45C14.47 3.45 14.95 3.45 15.43 3.45C15.71 3.47 15.94 3.38 16.12 3.18C16.24 2.94 16.39 2.75 16.57 2.61C16.73 2.49 16.88 2.47 17.02 2.55C17.08 2.59 17.11 2.65 17.11 2.73C17.11 2.81 17.09 2.88 17.05 2.94C16.99 3.1 16.91 3.25 16.81 3.39C16.91 3.43 17.03 3.45 17.17 3.45C18.51 3.45 19.85 3.45 21.19 3.45C22.53 3.43 23.87 3.42 25.21 3.42C26.25 3.4 27.3 3.35 28.36 3.27C29.42 3.17 30.48 3.12 31.54 3.12C31.92 3.12 32.21 3.17 32.41 3.27C32.63 3.37 32.74 3.49 32.74 3.63C32.74 3.75 32.64 3.87 32.44 3.99C32.26 4.11 31.97 4.18 31.57 4.2C30.81 4.22 30.02 4.21 29.2 4.17C28.38 4.13 27.58 4.11 26.8 4.11H16.63C16.47 4.11 16.34 4.15 16.24 4.23C16.16 4.29 16.08 4.37 16 4.47C15.34 5.47 14.67 6.45 13.99 7.41C13.33 8.35 12.68 9.33 12.04 10.35C10.98 11.97 9.95 13.59 8.95 15.21C7.95 16.81 6.94 18.42 5.92 20.04C5.56 20.62 5.21 21.26 4.87 21.96C4.55 22.64 4.22 23.27 3.88 23.85C3.78 23.99 3.65 24.09 3.49 24.15C3.33 24.21 3.19 24.22 3.07 24.18C2.95 24.14 2.87 24.04 2.83 23.88C2.79 23.72 2.85 23.5 3.01 23.22ZM19.169 14.58C19.309 14.52 19.419 14.47 19.499 14.43C19.579 14.39 19.659 14.34 19.739 14.28C20.119 14.08 20.489 13.88 20.849 13.68C21.209 13.48 21.579 13.28 21.959 13.08C22.159 12.96 22.369 12.9 22.589 12.9C22.669 12.9 22.749 12.93 22.829 12.99C22.909 13.05 22.969 13.1 23.009 13.14C23.109 13.32 23.029 13.49 22.769 13.65C22.569 13.77 22.359 13.88 22.139 13.98C21.919 14.08 21.699 14.2 21.479 14.34C20.959 14.68 20.439 15.02 19.919 15.36C19.399 15.68 18.879 16.01 18.359 16.35C18.039 16.57 17.779 16.83 17.579 17.13C17.379 17.43 17.169 17.73 16.949 18.03C16.329 18.99 15.689 19.91 15.029 20.79C14.349 21.67 13.609 22.52 12.809 23.34C12.469 23.66 12.119 23.94 11.759 24.18C11.639 24.28 11.519 24.36 11.399 24.42C11.259 24.5 11.109 24.56 10.949 24.6C10.729 24.64 10.539 24.6 10.379 24.48C10.219 24.36 10.159 24.17 10.199 23.91C10.199 23.67 10.269 23.43 10.409 23.19C10.689 22.61 11.029 22.08 11.429 21.6C11.809 21.12 12.229 20.66 12.689 20.22C13.369 19.58 14.049 18.95 14.729 18.33C15.409 17.69 16.099 17.05 16.799 16.41C16.899 16.29 16.999 16.17 17.099 16.05C17.219 15.91 17.329 15.77 17.429 15.63C17.769 15.11 18.099 14.58 18.419 14.04C18.739 13.48 19.069 12.92 19.409 12.36C19.249 12.36 19.119 12.4 19.019 12.48C18.939 12.54 18.859 12.6 18.779 12.66C18.419 12.92 18.049 13.18 17.669 13.44C17.309 13.68 16.909 13.88 16.469 14.04C16.329 14.14 16.199 14.19 16.079 14.19C15.679 14.25 15.369 14.18 15.149 13.98C14.929 13.76 14.869 13.45 14.969 13.05C15.029 12.85 15.099 12.66 15.179 12.48C15.259 12.3 15.349 12.12 15.449 11.94C15.609 11.66 15.769 11.39 15.929 11.13C16.109 10.87 16.289 10.61 16.469 10.35C16.569 10.23 16.679 10.15 16.799 10.11C16.919 10.05 17.059 10.1 17.219 10.26C17.179 10.34 17.139 10.43 17.099 10.53C17.079 10.61 17.029 10.69 16.949 10.77C16.789 11.11 16.619 11.43 16.439 11.73C16.259 12.03 16.079 12.34 15.899 12.66C15.859 12.76 15.819 12.87 15.779 12.99C15.759 13.11 15.709 13.25 15.629 13.41C15.789 13.37 15.919 13.35 16.019 13.35C16.139 13.35 16.249 13.33 16.349 13.29C16.629 13.13 16.899 12.97 17.159 12.81C17.419 12.65 17.679 12.48 17.939 12.3C18.279 12.04 18.599 11.78 18.899 11.52C19.199 11.26 19.519 10.99 19.859 10.71C19.979 10.59 20.109 10.5 20.249 10.44C20.389 10.36 20.559 10.37 20.759 10.47C21.039 10.63 21.049 10.96 20.789 11.46C20.569 11.9 20.339 12.34 20.099 12.78C19.859 13.22 19.629 13.67 19.409 14.13C19.369 14.17 19.329 14.22 19.289 14.28C19.269 14.34 19.229 14.44 19.169 14.58ZM14.879 19.38C14.539 19.66 14.189 19.98 13.829 20.34C13.449 20.7 13.099 21.06 12.779 21.42C12.459 21.78 12.179 22.12 11.939 22.44C11.699 22.76 11.539 23.02 11.459 23.22C11.659 23.1 11.929 22.89 12.269 22.59C12.589 22.29 12.919 21.95 13.259 21.57C13.579 21.19 13.889 20.81 14.189 20.43C14.489 20.03 14.719 19.68 14.879 19.38ZM23.4932 14.22C22.8332 14.84 22.2432 15.46 21.7232 16.08C21.2032 16.68 20.7232 17.3 20.2832 17.94C19.8232 18.56 19.3932 19.21 18.9932 19.89C18.5732 20.55 18.1532 21.24 17.7332 21.96C17.6532 22.04 17.5932 22.12 17.5532 22.2C17.4932 22.28 17.4132 22.37 17.3132 22.47C17.2332 22.55 17.1432 22.6 17.0432 22.62C16.9232 22.64 16.8132 22.61 16.7132 22.53C16.6132 22.45 16.5532 22.36 16.5332 22.26C16.5132 22.16 16.5232 22.06 16.5632 21.96C16.6432 21.78 16.7332 21.62 16.8332 21.48C17.9332 19.98 18.9632 18.45 19.9232 16.89C20.8832 15.33 21.8532 13.77 22.8332 12.21C23.0532 11.87 23.2532 11.54 23.4332 11.22C23.6332 10.9 23.8432 10.57 24.0632 10.23C24.1232 10.13 24.1932 10.04 24.2732 9.96C24.3732 9.88 24.5132 9.84 24.6932 9.84C24.8332 9.96 24.8732 10.08 24.8132 10.2C24.7732 10.32 24.7332 10.45 24.6932 10.59C24.5532 10.83 24.4132 11.07 24.2732 11.31C24.1532 11.55 24.0232 11.8 23.8832 12.06C23.7432 12.24 23.6432 12.43 23.5832 12.63C23.5832 12.63 23.6032 12.65 23.6432 12.69C23.7432 12.59 23.8232 12.51 23.8832 12.45C23.9632 12.39 24.0532 12.31 24.1532 12.21C24.5532 11.87 24.9332 11.54 25.2932 11.22C25.6532 10.88 26.0332 10.55 26.4332 10.23C26.6532 10.07 26.8832 9.94 27.1232 9.84C27.3832 9.74 27.6432 9.64 27.9032 9.54C28.0032 9.48 28.1132 9.45 28.2332 9.45C28.3732 9.43 28.5032 9.43 28.6232 9.45C28.9632 9.49 29.2232 9.62 29.4032 9.84C29.6032 10.04 29.7032 10.29 29.7032 10.59C29.7032 10.89 29.6432 11.17 29.5232 11.43C29.4232 11.67 29.2932 11.9 29.1332 12.12C29.0132 12.24 28.8832 12.4 28.7432 12.6C28.8432 12.62 28.9232 12.63 28.9832 12.63C29.0632 12.63 29.1232 12.63 29.1632 12.63C29.4232 12.65 29.6732 12.66 29.9132 12.66C30.1732 12.66 30.4332 12.67 30.6932 12.69C30.8332 12.71 30.9632 12.73 31.0832 12.75C31.2232 12.77 31.3532 12.81 31.4732 12.87C31.7532 12.97 31.8532 13.16 31.7732 13.44C31.6932 13.66 31.5232 13.74 31.2632 13.68C30.6832 13.56 30.1132 13.51 29.5532 13.53C29.0132 13.53 28.4632 13.58 27.9032 13.68C27.7032 13.7 27.5132 13.74 27.3332 13.8C27.1532 13.84 26.9832 13.9 26.8232 13.98C26.4432 14.12 26.0732 14.26 25.7132 14.4C25.3532 14.54 25.0032 14.68 24.6632 14.82C24.4232 14.9 24.2032 14.91 24.0032 14.85C23.8032 14.77 23.6332 14.56 23.4932 14.22ZM24.1232 13.53C24.5832 13.41 25.0132 13.31 25.4132 13.23C25.8132 13.13 26.2032 13.02 26.5832 12.9C27.0432 12.76 27.4332 12.54 27.7532 12.24C28.0732 11.94 28.3632 11.6 28.6232 11.22C28.6632 11.16 28.6932 11.1 28.7132 11.04C28.7532 10.98 28.7832 10.91 28.8032 10.83C28.8632 10.43 28.7032 10.25 28.3232 10.29C28.1632 10.31 28.0032 10.35 27.8432 10.41C27.7032 10.47 27.5632 10.53 27.4232 10.59C26.9032 10.87 26.4332 11.2 26.0132 11.58C25.5932 11.96 25.1832 12.35 24.7832 12.75C24.6832 12.87 24.5832 12.99 24.4832 13.11C24.3832 13.23 24.2632 13.37 24.1232 13.53ZM37.468 12.99C37.568 12.95 37.658 12.92 37.738 12.9C37.818 12.86 37.908 12.82 38.008 12.78C38.248 12.74 38.418 12.81 38.518 12.99C38.618 13.23 38.558 13.4 38.338 13.5C37.598 13.88 36.828 14.17 36.028 14.37C35.228 14.57 34.428 14.69 33.628 14.73C33.348 14.75 33.048 14.75 32.728 14.73C32.428 14.71 32.148 14.64 31.888 14.52C31.648 14.4 31.468 14.23 31.348 14.01C31.228 13.77 31.218 13.45 31.318 13.05C31.458 12.65 31.588 12.37 31.708 12.21C31.828 12.05 32.058 11.88 32.398 11.7C32.758 11.54 33.128 11.43 33.508 11.37C33.908 11.29 34.288 11.25 34.648 11.25C34.988 11.29 35.188 11.46 35.248 11.76C35.308 12.08 35.198 12.32 34.918 12.48C34.718 12.6 34.508 12.71 34.288 12.81C34.068 12.89 33.838 12.97 33.598 13.05C33.418 13.09 33.228 13.12 33.028 13.14C32.828 13.16 32.628 13.17 32.428 13.17C32.128 13.17 31.958 13.24 31.918 13.38C31.898 13.5 31.958 13.63 32.098 13.77C32.298 13.97 32.648 14.08 33.148 14.1C33.648 14.1 34.178 14.06 34.738 13.98C35.318 13.88 35.858 13.74 36.358 13.56C36.878 13.38 37.248 13.19 37.468 12.99ZM34.438 12.12C34.578 11.94 34.578 11.85 34.438 11.85C34.318 11.83 34.128 11.86 33.868 11.94C33.628 12.02 33.348 12.14 33.028 12.3C32.708 12.46 32.428 12.62 32.188 12.78C32.488 12.82 32.878 12.78 33.358 12.66C33.838 12.52 34.198 12.34 34.438 12.12ZM70.9811 21.48C70.2811 21.56 69.5711 21.63 68.8511 21.69C68.1511 21.73 67.4411 21.79 66.7211 21.87C66.0811 21.91 65.4311 21.97 64.7711 22.05C64.1111 22.13 63.4611 22.21 62.8211 22.29C61.8411 22.43 60.8711 22.58 59.9111 22.74C58.9511 22.9 57.9911 23.06 57.0311 23.22C56.0711 23.38 55.1111 23.53 54.1511 23.67C53.2111 23.79 52.2411 23.9 51.2411 24C50.7811 24.06 50.3011 24.09 49.8011 24.09C49.3211 24.09 48.8511 24.09 48.3911 24.09H48.2111C47.5911 24.01 47.1511 23.79 46.8911 23.43C46.6311 23.05 46.5811 22.57 46.7411 21.99C46.9811 21.25 47.2911 20.54 47.6711 19.86C48.3111 18.68 49.0011 17.55 49.7411 16.47C50.5011 15.37 51.2811 14.28 52.0811 13.2C52.4211 12.74 52.7611 12.31 53.1011 11.91C53.4411 11.49 53.7611 11.05 54.0611 10.59C54.1811 10.49 54.2611 10.33 54.3011 10.11C54.1211 10.23 53.9311 10.35 53.7311 10.47C53.5311 10.59 53.3311 10.71 53.1311 10.83C52.2311 11.39 51.3411 11.94 50.4611 12.48C49.5811 13.02 48.6811 13.57 47.7611 14.13C47.4411 14.31 47.1011 14.47 46.7411 14.61C46.4011 14.75 46.0511 14.9 45.6911 15.06C45.5911 15.1 45.4811 15.13 45.3611 15.15C45.2611 15.15 45.1411 15.09 45.0011 14.97C45.0611 14.93 45.1111 14.89 45.1511 14.85C45.2111 14.79 45.2711 14.74 45.3311 14.7C46.8911 13.94 48.3911 13.09 49.8311 12.15C51.2911 11.21 52.7611 10.28 54.2411 9.36C55.0811 8.86 55.8411 8.3 56.5211 7.68C57.2211 7.04 57.9111 6.37 58.5911 5.67C59.3111 4.91 60.0511 4.18 60.8111 3.48C61.5911 2.78 62.4211 2.13 63.3011 1.53C63.4611 1.41 63.6311 1.3 63.8111 1.2C63.9911 1.1 64.1711 0.999999 64.3511 0.899999C64.4311 0.859999 64.5011 0.84 64.5611 0.84C64.6411 0.819999 64.7011 0.799998 64.7411 0.779999C65.0211 0.679999 65.2411 0.709999 65.4011 0.869999C65.5811 1.05 65.5811 1.26 65.4011 1.5C65.2011 1.74 65.0111 1.98 64.8311 2.22C64.6511 2.44 64.4511 2.66 64.2311 2.88C63.3911 3.68 62.5111 4.43 61.5911 5.13C60.6911 5.81 59.7611 6.46 58.8011 7.08C58.2011 7.48 57.6511 7.92 57.1511 8.4C56.6511 8.88 56.1711 9.4 55.7111 9.96C54.6111 11.24 53.5611 12.56 52.5611 13.92C51.5611 15.28 50.5911 16.67 49.6511 18.09C49.3111 18.63 48.9911 19.19 48.6911 19.77C48.3911 20.33 48.0911 20.89 47.7911 21.45C47.7311 21.59 47.6711 21.74 47.6111 21.9C47.5711 22.06 47.5211 22.23 47.4611 22.41C47.4211 22.83 47.6011 23.09 48.0011 23.19C48.1811 23.23 48.3511 23.27 48.5111 23.31C48.6711 23.33 48.8311 23.33 48.9911 23.31C49.7111 23.27 50.4311 23.23 51.1511 23.19C51.8711 23.13 52.5911 23.05 53.3111 22.95C54.9111 22.73 56.4911 22.49 58.0511 22.23C59.6311 21.95 61.2211 21.69 62.8211 21.45C63.9011 21.27 64.9811 21.14 66.0611 21.06C67.1611 20.96 68.2611 20.87 69.3611 20.79C69.8211 20.79 70.2511 20.83 70.6511 20.91C70.7711 20.93 70.8611 20.98 70.9211 21.06C71.0011 21.12 71.0211 21.26 70.9811 21.48ZM60.3611 5.07C60.6611 4.91 60.9911 4.7 61.3511 4.44C61.7311 4.16 62.0911 3.87 62.4311 3.57C62.7911 3.27 63.1011 2.99 63.3611 2.73C63.6211 2.45 63.7911 2.23 63.8711 2.07C62.5511 2.99 61.3811 3.99 60.3611 5.07ZM74.3692 13.71C73.9292 13.95 73.4792 14.18 73.0192 14.4C72.5792 14.62 72.1092 14.79 71.6092 14.91C71.4492 14.93 71.2892 14.95 71.1292 14.97C70.9692 14.97 70.8092 14.95 70.6492 14.91C70.3692 14.87 70.1692 14.74 70.0492 14.52C69.9092 14.3 69.8592 14.06 69.8992 13.8C69.8992 13.64 69.9192 13.47 69.9592 13.29C69.9792 13.11 70.0392 12.95 70.1392 12.81C70.3592 12.45 70.5592 12.05 70.7392 11.61C70.9392 11.17 71.1692 10.78 71.4292 10.44C71.5292 10.32 71.6492 10.26 71.7892 10.26C71.9292 10.24 72.0492 10.28 72.1492 10.38C72.2692 10.46 72.3392 10.59 72.3592 10.77C72.3792 10.93 72.3092 11.11 72.1492 11.31C71.9492 11.63 71.7492 11.94 71.5492 12.24C71.3492 12.54 71.1492 12.86 70.9492 13.2C70.7492 13.62 70.6592 13.93 70.6792 14.13C70.7192 14.31 70.8192 14.42 70.9792 14.46C71.1592 14.5 71.3792 14.48 71.6392 14.4C71.8992 14.32 72.1592 14.21 72.4192 14.07C72.6992 13.93 72.9592 13.79 73.1992 13.65C73.4392 13.49 73.6092 13.35 73.7092 13.23C73.9092 13.01 74.0892 12.9 74.2492 12.9C74.4092 12.88 74.5192 12.92 74.5792 13.02C74.6592 13.1 74.6892 13.22 74.6692 13.38C74.6492 13.52 74.5492 13.63 74.3692 13.71ZM73.6492 8.04C73.8092 8.04 73.9292 8.09 74.0092 8.19C74.1092 8.29 74.1392 8.41 74.0992 8.55C74.0592 8.71 73.9492 8.88 73.7692 9.06C73.5892 9.24 73.3992 9.39 73.1992 9.51C72.9192 9.67 72.7192 9.73 72.5992 9.69C72.4992 9.65 72.4892 9.44 72.5692 9.06C72.6092 8.82 72.7092 8.59 72.8692 8.37C73.0492 8.15 73.3092 8.04 73.6492 8.04ZM76.7329 12.87C76.9129 12.69 77.0429 12.48 77.1229 12.24C77.2229 11.98 77.2529 11.76 77.2129 11.58C77.1729 11.38 77.0629 11.25 76.8829 11.19C76.7029 11.11 76.4429 11.17 76.1029 11.37C75.9429 11.47 75.7729 11.6 75.5929 11.76C75.4129 11.92 75.2629 12.1 75.1429 12.3C75.0229 12.48 74.9529 12.67 74.9329 12.87C74.9329 13.07 75.0229 13.24 75.2029 13.38C75.4029 13.58 75.6129 13.79 75.8329 14.01C76.0529 14.21 76.2729 14.4 76.4929 14.58C77.0729 14.32 77.6429 14.09 78.2029 13.89C78.7629 13.69 79.3329 13.42 79.9129 13.08C80.1529 12.94 80.3729 12.86 80.5729 12.84C80.6729 12.84 80.7729 12.86 80.8729 12.9C80.9729 12.92 81.0429 13 81.0829 13.14C81.0229 13.32 80.9229 13.45 80.7829 13.53C80.6429 13.59 80.5029 13.64 80.3629 13.68C80.0829 13.8 79.7529 13.93 79.3729 14.07C78.9929 14.19 78.6129 14.33 78.2329 14.49C77.8529 14.63 77.5029 14.79 77.1829 14.97C76.8629 15.15 76.6329 15.34 76.4929 15.54C76.3329 15.86 76.0629 16.15 75.6829 16.41C75.2629 16.69 74.8229 16.93 74.3629 17.13C73.9229 17.31 73.4429 17.43 72.9229 17.49C72.6629 17.51 72.3829 17.49 72.0829 17.43C72.0029 17.41 71.9429 17.36 71.9029 17.28C71.8429 17.2 71.8029 17.11 71.7829 17.01C71.7429 16.91 71.7629 16.84 71.8429 16.8C71.9229 16.76 72.0029 16.71 72.0829 16.65C72.5629 16.25 73.0829 15.9 73.6429 15.6C74.1829 15.28 74.8029 15.01 75.5029 14.79C75.4429 14.73 75.3729 14.68 75.2929 14.64C75.2329 14.58 75.1729 14.51 75.1129 14.43C74.9729 14.31 74.8329 14.19 74.6929 14.07C74.5729 13.95 74.4629 13.82 74.3629 13.68C74.1429 13.4 74.0329 13.11 74.0329 12.81C74.0329 12.49 74.1529 12.19 74.3929 11.91C74.7329 11.55 75.1029 11.25 75.5029 11.01C75.9229 10.77 76.3829 10.62 76.8829 10.56C77.5029 10.46 77.9029 10.63 78.0829 11.07C78.2029 11.29 78.2329 11.51 78.1729 11.73C78.1129 11.95 78.0029 12.15 77.8429 12.33C77.6829 12.53 77.5329 12.68 77.3929 12.78C77.2529 12.86 77.0729 12.95 76.8529 13.05C76.8329 13.01 76.8129 12.98 76.7929 12.96C76.7729 12.94 76.7529 12.91 76.7329 12.87ZM73.1629 16.56C73.0229 16.8 73.0229 16.93 73.1629 16.95C73.3029 16.97 73.5129 16.92 73.7929 16.8C74.0529 16.68 74.3529 16.51 74.6929 16.29C75.0329 16.05 75.3429 15.8 75.6229 15.54C75.2429 15.54 74.8029 15.63 74.3029 15.81C73.8029 15.97 73.4229 16.22 73.1629 16.56ZM80.7454 6.45C80.2854 6.51 80.0054 6.47 79.9054 6.33C79.7854 6.19 79.7454 6.09 79.7854 6.03C79.8454 5.93 79.9554 5.84 80.1154 5.76C80.2554 5.66 80.5354 5.63 80.9554 5.67C81.6154 5.73 82.2954 5.76 82.9954 5.76C83.7154 5.76 84.4254 5.71 85.1254 5.61C85.1854 5.57 85.2354 5.52 85.2754 5.46C85.5554 5.08 85.7654 4.78 85.9054 4.56C86.0454 4.34 86.1754 4.14 86.2954 3.96C86.4154 3.78 86.5454 3.59 86.6854 3.39C86.8454 3.17 87.0654 2.87 87.3454 2.49C87.4054 2.37 87.4954 2.27 87.6154 2.19C87.7554 2.09 87.8854 2.09 88.0054 2.19C88.0454 2.23 88.0754 2.3 88.0954 2.4C88.1154 2.5 88.1254 2.59 88.1254 2.67C88.1054 2.75 88.0654 2.83 88.0054 2.91C87.9454 2.99 87.8954 3.06 87.8554 3.12C87.6354 3.42 87.4754 3.64 87.3754 3.78C87.2954 3.92 87.2154 4.06 87.1354 4.2C87.0554 4.34 86.9554 4.51 86.8354 4.71C86.7154 4.91 86.5054 5.22 86.2054 5.64C86.6254 5.72 87.1654 5.78 87.8254 5.82C88.5054 5.84 89.2354 5.85 90.0154 5.85C90.7954 5.83 91.5954 5.8 92.4154 5.76C93.2554 5.7 94.0554 5.63 94.8154 5.55C95.2954 5.51 95.7454 5.47 96.1654 5.43C96.5854 5.39 96.9354 5.38 97.2154 5.4C97.7154 5.44 97.9454 5.54 97.9054 5.7C97.8654 5.86 97.6354 5.99 97.2154 6.09C96.8554 6.15 96.3554 6.2 95.7154 6.24C95.0954 6.28 94.4154 6.32 93.6754 6.36C92.9354 6.38 92.1554 6.4 91.3354 6.42C90.5354 6.42 89.7654 6.42 89.0254 6.42C88.3054 6.4 87.6454 6.39 87.0454 6.39C86.4654 6.39 86.0154 6.38 85.6954 6.36C85.3554 6.8 84.9954 7.28 84.6154 7.8C84.2554 8.32 83.8954 8.85 83.5354 9.39C83.1954 9.93 82.8754 10.46 82.5754 10.98C82.2754 11.48 82.0154 11.94 81.7954 12.36C81.6154 12.72 81.4354 13.12 81.2554 13.56C81.0754 13.98 80.9554 14.36 80.8954 14.7C80.8554 15.02 80.9154 15.26 81.0754 15.42C81.2354 15.56 81.5554 15.53 82.0354 15.33C82.2554 15.25 82.5054 15.13 82.7854 14.97C83.0654 14.81 83.3554 14.64 83.6554 14.46C83.9554 14.26 84.2454 14.06 84.5254 13.86C84.8054 13.64 85.0654 13.43 85.3054 13.23C85.4054 13.17 85.4854 13.11 85.5454 13.05C85.6054 12.97 85.6854 12.91 85.7854 12.87C85.9054 12.79 86.0054 12.74 86.0854 12.72C86.1854 12.68 86.2854 12.72 86.3854 12.84C86.4654 12.96 86.4754 13.08 86.4154 13.2C86.3754 13.3 86.3054 13.4 86.2054 13.5C86.0854 13.62 85.8754 13.79 85.5754 14.01C85.2754 14.23 84.9254 14.46 84.5254 14.7C84.1454 14.94 83.7354 15.18 83.2954 15.42C82.8754 15.64 82.4754 15.82 82.0954 15.96C81.4154 16.2 80.9454 16.23 80.6854 16.05C80.4054 15.85 80.2554 15.56 80.2354 15.18C80.1954 14.8 80.2454 14.38 80.3854 13.92C80.5254 13.46 80.6654 13.06 80.8054 12.72C81.0454 12.16 81.3254 11.6 81.6454 11.04C81.9654 10.48 82.2954 9.93 82.6354 9.39C82.9954 8.85 83.3454 8.33 83.6854 7.83C84.0454 7.31 84.3654 6.83 84.6454 6.39C83.9854 6.41 83.3054 6.43 82.6054 6.45C81.9254 6.45 81.3054 6.45 80.7454 6.45Z" fill="#CCCCCC"/>
</svg>
