<svg width="233" height="27" viewBox="0 0 233 27" fill="none" xmlns="http://www.w3.org/2000/svg">
<path d="M14.47 26.53C14.47 26.23 14.51 25.96 14.59 25.72C14.67 25.5 14.78 25.28 14.92 25.06C15.36 24.3 15.8 23.54 16.24 22.78C16.68 22 17.14 21.23 17.62 20.47C18.26 19.45 18.9 18.45 19.54 17.47C20.2 16.47 20.86 15.46 21.52 14.44C21.56 14.36 21.61 14.28 21.67 14.2C21.73 14.12 21.79 14.01 21.85 13.87H21.25C20.73 13.89 20.21 13.92 19.69 13.96C19.17 14 18.65 14.02 18.13 14.02C17.71 14.04 17.33 14.18 16.99 14.44C16.09 15.28 15.18 16.1 14.26 16.9C13.34 17.68 12.42 18.47 11.5 19.27C11.34 19.41 11.16 19.54 10.96 19.66C10.78 19.78 10.6 19.89 10.42 19.99C10.36 20.03 10.3 20.04 10.24 20.02C10.18 20 10.1 19.99 10 19.99C10.04 19.93 10.06 19.86 10.06 19.78C10.06 19.7 10.08 19.64 10.12 19.6C10.28 19.44 10.43 19.3 10.57 19.18C10.71 19.06 10.86 18.93 11.02 18.79C11.8 18.09 12.58 17.4 13.36 16.72C14.14 16.02 14.93 15.33 15.73 14.65C15.83 14.59 15.91 14.51 15.97 14.41C16.05 14.31 16.15 14.2 16.27 14.08C16.05 14.1 15.86 14.12 15.7 14.14C15.54 14.14 15.38 14.14 15.22 14.14C13.72 14.22 12.24 14.29 10.78 14.35C9.34 14.41 7.87 14.48 6.37 14.56C5.65 14.6 4.92 14.65 4.18 14.71C3.44 14.77 2.71 14.82 1.99 14.86C1.75 14.88 1.49 14.86 1.21 14.8C1.17 14.76 1.13 14.71 1.09 14.65C1.05 14.59 1.01 14.53 0.97 14.47C0.95 14.43 0.97 14.39 1.03 14.35C1.09 14.29 1.14 14.24 1.18 14.2C1.28 14.16 1.43 14.12 1.63 14.08C3.43 13.94 5.23 13.82 7.03 13.72C7.93 13.64 8.81 13.58 9.67 13.54C10.53 13.48 11.41 13.42 12.31 13.36C13.05 13.32 13.78 13.29 14.5 13.27C15.24 13.25 15.99 13.23 16.75 13.21C17.13 13.21 17.46 13.07 17.74 12.79C19.44 11.23 21.12 9.69 22.78 8.17C24.46 6.65 26.15 5.11 27.85 3.55C28.31 3.09 28.76 2.65 29.2 2.23C29.66 1.79 30.12 1.34 30.58 0.879999C30.68 0.799999 30.76 0.729999 30.82 0.669999C30.88 0.609999 30.96 0.559999 31.06 0.519999C31.12 0.499999 31.2 0.499999 31.3 0.519999C31.42 0.519999 31.51 0.539999 31.57 0.58C31.61 0.619999 31.64 0.689999 31.66 0.789999C31.7 0.889999 31.71 0.989999 31.69 1.09C31.67 1.19 31.62 1.29 31.54 1.39C31.48 1.47 31.42 1.56 31.36 1.66C30.2 3.34 29.05 5.01 27.91 6.67C26.77 8.31 25.62 9.98 24.46 11.68C24.34 11.84 24.22 12.03 24.1 12.25C23.98 12.45 23.84 12.66 23.68 12.88C24.2 12.94 24.71 13 25.21 13.06C25.71 13.1 26.22 13.23 26.74 13.45C26.58 13.49 26.44 13.52 26.32 13.54C26.2 13.56 26.08 13.58 25.96 13.6C25.54 13.64 25.11 13.68 24.67 13.72C24.25 13.76 23.83 13.8 23.41 13.84C23.13 13.84 22.93 13.94 22.81 14.14C21.73 15.88 20.64 17.6 19.54 19.3C18.46 20.98 17.38 22.7 16.3 24.46C16.14 24.68 15.99 24.9 15.85 25.12C15.71 25.36 15.56 25.59 15.4 25.81C15.3 25.97 15.17 26.11 15.01 26.23C14.87 26.35 14.69 26.45 14.47 26.53ZM18.76 12.97C18.76 12.99 18.78 13.02 18.82 13.06C19.34 13.04 19.86 13.02 20.38 13C20.9 12.98 21.42 12.97 21.94 12.97C22.3 12.97 22.6 12.81 22.84 12.49C23.54 11.41 24.25 10.35 24.97 9.31C25.69 8.27 26.4 7.22 27.1 6.16C27.34 5.82 27.57 5.49 27.79 5.17C28.03 4.83 28.26 4.49 28.48 4.15C28.48 4.13 28.46 4.12 28.42 4.12C26.82 5.58 25.21 7.05 23.59 8.53C21.99 9.99 20.38 11.47 18.76 12.97ZM29.9971 15.22C29.3371 15.84 28.7471 16.46 28.2271 17.08C27.7071 17.68 27.2271 18.3 26.7871 18.94C26.3271 19.56 25.8971 20.21 25.4971 20.89C25.0771 21.55 24.6571 22.24 24.2371 22.96C24.1571 23.04 24.0971 23.12 24.0571 23.2C23.9971 23.28 23.9171 23.37 23.8171 23.47C23.7371 23.55 23.6471 23.6 23.5471 23.62C23.4271 23.64 23.3171 23.61 23.2171 23.53C23.1171 23.45 23.0571 23.36 23.0371 23.26C23.0171 23.16 23.0271 23.06 23.0671 22.96C23.1471 22.78 23.2371 22.62 23.3371 22.48C24.4371 20.98 25.4671 19.45 26.4271 17.89C27.3871 16.33 28.3571 14.77 29.3371 13.21C29.5571 12.87 29.7571 12.54 29.9371 12.22C30.1371 11.9 30.3471 11.57 30.5671 11.23C30.6271 11.13 30.6971 11.04 30.7771 10.96C30.8771 10.88 31.0171 10.84 31.1971 10.84C31.3371 10.96 31.3771 11.08 31.3171 11.2C31.2771 11.32 31.2371 11.45 31.1971 11.59C31.0571 11.83 30.9171 12.07 30.7771 12.31C30.6571 12.55 30.5271 12.8 30.3871 13.06C30.2471 13.24 30.1471 13.43 30.0871 13.63C30.0871 13.63 30.1071 13.65 30.1471 13.69C30.2471 13.59 30.3271 13.51 30.3871 13.45C30.4671 13.39 30.5571 13.31 30.6571 13.21C31.0571 12.87 31.4371 12.54 31.7971 12.22C32.1571 11.88 32.5371 11.55 32.9371 11.23C33.1571 11.07 33.3871 10.94 33.6271 10.84C33.8871 10.74 34.1471 10.64 34.4071 10.54C34.5071 10.48 34.6171 10.45 34.7371 10.45C34.8771 10.43 35.0071 10.43 35.1271 10.45C35.4671 10.49 35.7271 10.62 35.9071 10.84C36.1071 11.04 36.2071 11.29 36.2071 11.59C36.2071 11.89 36.1471 12.17 36.0271 12.43C35.9271 12.67 35.7971 12.9 35.6371 13.12C35.5171 13.24 35.3871 13.4 35.2471 13.6C35.3471 13.62 35.4271 13.63 35.4871 13.63C35.5671 13.63 35.6271 13.63 35.6671 13.63C35.9271 13.65 36.1771 13.66 36.4171 13.66C36.6771 13.66 36.9371 13.67 37.1971 13.69C37.3371 13.71 37.4671 13.73 37.5871 13.75C37.7271 13.77 37.8571 13.81 37.9771 13.87C38.2571 13.97 38.3571 14.16 38.2771 14.44C38.1971 14.66 38.0271 14.74 37.7671 14.68C37.1871 14.56 36.6171 14.51 36.0571 14.53C35.5171 14.53 34.9671 14.58 34.4071 14.68C34.2071 14.7 34.0171 14.74 33.8371 14.8C33.6571 14.84 33.4871 14.9 33.3271 14.98C32.9471 15.12 32.5771 15.26 32.2171 15.4C31.8571 15.54 31.5071 15.68 31.1671 15.82C30.9271 15.9 30.7071 15.91 30.5071 15.85C30.3071 15.77 30.1371 15.56 29.9971 15.22ZM30.6271 14.53C31.0871 14.41 31.5171 14.31 31.9171 14.23C32.3171 14.13 32.7071 14.02 33.0871 13.9C33.5471 13.76 33.9371 13.54 34.2571 13.24C34.5771 12.94 34.8671 12.6 35.1271 12.22C35.1671 12.16 35.1971 12.1 35.2171 12.04C35.2571 11.98 35.2871 11.91 35.3071 11.83C35.3671 11.43 35.2071 11.25 34.8271 11.29C34.6671 11.31 34.5071 11.35 34.3471 11.41C34.2071 11.47 34.0671 11.53 33.9271 11.59C33.4071 11.87 32.9371 12.2 32.5171 12.58C32.0971 12.96 31.6871 13.35 31.2871 13.75C31.1871 13.87 31.0871 13.99 30.9871 14.11C30.8871 14.23 30.7671 14.37 30.6271 14.53ZM38.962 15.22C38.302 15.84 37.712 16.46 37.192 17.08C36.672 17.68 36.192 18.3 35.752 18.94C35.292 19.56 34.862 20.21 34.462 20.89C34.042 21.55 33.622 22.24 33.202 22.96C33.122 23.04 33.062 23.12 33.022 23.2C32.962 23.28 32.882 23.37 32.782 23.47C32.702 23.55 32.612 23.6 32.512 23.62C32.392 23.64 32.282 23.61 32.182 23.53C32.082 23.45 32.022 23.36 32.002 23.26C31.982 23.16 31.992 23.06 32.032 22.96C32.112 22.78 32.202 22.62 32.302 22.48C33.402 20.98 34.432 19.45 35.392 17.89C36.352 16.33 37.322 14.77 38.302 13.21C38.522 12.87 38.722 12.54 38.902 12.22C39.102 11.9 39.312 11.57 39.532 11.23C39.592 11.13 39.662 11.04 39.742 10.96C39.842 10.88 39.982 10.84 40.162 10.84C40.302 10.96 40.342 11.08 40.282 11.2C40.242 11.32 40.202 11.45 40.162 11.59C40.022 11.83 39.882 12.07 39.742 12.31C39.622 12.55 39.492 12.8 39.352 13.06C39.212 13.24 39.112 13.43 39.052 13.63C39.052 13.63 39.072 13.65 39.112 13.69C39.212 13.59 39.292 13.51 39.352 13.45C39.432 13.39 39.522 13.31 39.622 13.21C40.022 12.87 40.402 12.54 40.762 12.22C41.122 11.88 41.502 11.55 41.902 11.23C42.122 11.07 42.352 10.94 42.592 10.84C42.852 10.74 43.112 10.64 43.372 10.54C43.472 10.48 43.582 10.45 43.702 10.45C43.842 10.43 43.972 10.43 44.092 10.45C44.432 10.49 44.692 10.62 44.872 10.84C45.072 11.04 45.172 11.29 45.172 11.59C45.172 11.89 45.112 12.17 44.992 12.43C44.892 12.67 44.762 12.9 44.602 13.12C44.482 13.24 44.352 13.4 44.212 13.6C44.312 13.62 44.392 13.63 44.452 13.63C44.532 13.63 44.592 13.63 44.632 13.63C44.892 13.65 45.142 13.66 45.382 13.66C45.642 13.66 45.902 13.67 46.162 13.69C46.302 13.71 46.432 13.73 46.552 13.75C46.692 13.77 46.822 13.81 46.942 13.87C47.222 13.97 47.322 14.16 47.242 14.44C47.162 14.66 46.992 14.74 46.732 14.68C46.152 14.56 45.582 14.51 45.022 14.53C44.482 14.53 43.932 14.58 43.372 14.68C43.172 14.7 42.982 14.74 42.802 14.8C42.622 14.84 42.452 14.9 42.292 14.98C41.912 15.12 41.542 15.26 41.182 15.4C40.822 15.54 40.472 15.68 40.132 15.82C39.892 15.9 39.672 15.91 39.472 15.85C39.272 15.77 39.102 15.56 38.962 15.22ZM39.592 14.53C40.052 14.41 40.482 14.31 40.882 14.23C41.282 14.13 41.672 14.02 42.052 13.9C42.512 13.76 42.902 13.54 43.222 13.24C43.542 12.94 43.832 12.6 44.092 12.22C44.132 12.16 44.162 12.1 44.182 12.04C44.222 11.98 44.252 11.91 44.272 11.83C44.332 11.43 44.172 11.25 43.792 11.29C43.632 11.31 43.472 11.35 43.312 11.41C43.172 11.47 43.032 11.53 42.892 11.59C42.372 11.87 41.902 12.2 41.482 12.58C41.062 12.96 40.652 13.35 40.252 13.75C40.152 13.87 40.052 13.99 39.952 14.11C39.852 14.23 39.732 14.37 39.592 14.53ZM47.4468 18.43C48.0868 17.77 48.7268 17.07 49.3668 16.33C50.0268 15.59 50.6168 14.96 51.1368 14.44C51.6568 13.9 51.9968 13.69 52.1568 13.81C52.3168 13.93 52.1368 14.33 51.6168 15.01C51.1168 15.67 50.5668 16.28 49.9668 16.84C49.3868 17.38 48.8068 17.93 48.2268 18.49C48.0668 18.65 47.8968 18.79 47.7168 18.91C47.5368 19.03 47.3668 19.15 47.2068 19.27C47.1268 19.31 47.0368 19.36 46.9368 19.42C46.8368 19.46 46.7368 19.5 46.6368 19.54C46.2568 19.64 45.9568 19.6 45.7368 19.42C45.5168 19.24 45.3868 18.96 45.3468 18.58C45.3068 18.26 45.3368 17.95 45.4368 17.65C45.5968 16.87 45.8368 16.13 46.1568 15.43C46.4568 14.73 46.7868 14.03 47.1468 13.33C47.2668 13.05 47.4068 12.8 47.5668 12.58C47.6668 12.4 47.7468 12.23 47.8068 12.07C47.8668 11.89 47.8168 11.72 47.6568 11.56C47.7168 11.44 47.7668 11.36 47.8068 11.32C48.1868 11.16 48.4768 10.92 48.6768 10.6C48.8968 10.28 49.1168 9.97 49.3368 9.67C49.9168 8.85 50.4968 8.04 51.0768 7.24C51.6568 6.42 52.2968 5.66 52.9968 4.96C53.2368 4.72 53.4968 4.49 53.7768 4.27C53.8768 4.13 54.0568 4.01 54.3168 3.91C54.4568 3.85 54.5968 3.81 54.7368 3.79C54.8768 3.77 55.0168 3.81 55.1568 3.91C55.2968 4.03 55.3668 4.17 55.3668 4.33C55.3868 4.47 55.3568 4.61 55.2768 4.75C55.1768 4.97 55.0668 5.19 54.9468 5.41C54.8468 5.61 54.7268 5.81 54.5868 6.01C53.9468 6.85 53.2568 7.64 52.5168 8.38C51.7768 9.1 51.0068 9.81 50.2068 10.51C49.9668 10.73 49.7368 10.96 49.5168 11.2C49.2968 11.44 49.0868 11.7 48.8868 11.98C48.4868 12.7 48.0968 13.42 47.7168 14.14C47.3368 14.84 46.9968 15.57 46.6968 16.33C46.6168 16.59 46.5468 16.85 46.4868 17.11C46.4068 17.37 46.3368 17.63 46.2768 17.89C46.1768 18.23 46.1668 18.47 46.2468 18.61C46.3068 18.75 46.4068 18.82 46.5468 18.82C46.6868 18.82 46.8368 18.78 46.9968 18.7C47.1768 18.62 47.3268 18.53 47.4468 18.43ZM53.8068 5.44C53.6268 5.62 53.3368 5.92 52.9368 6.34C52.5568 6.74 52.1668 7.18 51.7668 7.66C51.3668 8.14 51.0068 8.6 50.6868 9.04C50.3668 9.48 50.1868 9.81 50.1468 10.03C50.3068 9.87 50.5568 9.61 50.8968 9.25C51.2568 8.89 51.6268 8.5 52.0068 8.08C52.4068 7.66 52.7868 7.24 53.1468 6.82C53.5268 6.4 53.8268 6.05 54.0468 5.77C54.2668 5.47 54.3668 5.28 54.3468 5.2C54.3468 5.1 54.1668 5.18 53.8068 5.44ZM55.7608 15.58C55.9008 15.52 56.0108 15.47 56.0908 15.43C56.1708 15.39 56.2508 15.34 56.3308 15.28C56.7108 15.08 57.0808 14.88 57.4408 14.68C57.8008 14.48 58.1708 14.28 58.5508 14.08C58.7508 13.96 58.9608 13.9 59.1808 13.9C59.2608 13.9 59.3408 13.93 59.4208 13.99C59.5008 14.05 59.5608 14.1 59.6008 14.14C59.7008 14.32 59.6208 14.49 59.3608 14.65C59.1608 14.77 58.9508 14.88 58.7308 14.98C58.5108 15.08 58.2908 15.2 58.0708 15.34C57.5508 15.68 57.0308 16.02 56.5108 16.36C55.9908 16.68 55.4708 17.01 54.9508 17.35C54.6308 17.57 54.3708 17.83 54.1708 18.13C53.9708 18.43 53.7608 18.73 53.5408 19.03C52.9208 19.99 52.2808 20.91 51.6208 21.79C50.9408 22.67 50.2008 23.52 49.4008 24.34C49.0608 24.66 48.7108 24.94 48.3508 25.18C48.2308 25.28 48.1108 25.36 47.9908 25.42C47.8508 25.5 47.7008 25.56 47.5408 25.6C47.3208 25.64 47.1308 25.6 46.9708 25.48C46.8108 25.36 46.7508 25.17 46.7908 24.91C46.7908 24.67 46.8608 24.43 47.0008 24.19C47.2808 23.61 47.6208 23.08 48.0208 22.6C48.4008 22.12 48.8208 21.66 49.2808 21.22C49.9608 20.58 50.6408 19.95 51.3208 19.33C52.0008 18.69 52.6908 18.05 53.3908 17.41C53.4908 17.29 53.5908 17.17 53.6908 17.05C53.8108 16.91 53.9208 16.77 54.0208 16.63C54.3608 16.11 54.6908 15.58 55.0108 15.04C55.3308 14.48 55.6608 13.92 56.0008 13.36C55.8408 13.36 55.7108 13.4 55.6108 13.48C55.5308 13.54 55.4508 13.6 55.3708 13.66C55.0108 13.92 54.6408 14.18 54.2608 14.44C53.9008 14.68 53.5008 14.88 53.0608 15.04C52.9208 15.14 52.7908 15.19 52.6708 15.19C52.2708 15.25 51.9608 15.18 51.7408 14.98C51.5208 14.76 51.4608 14.45 51.5608 14.05C51.6208 13.85 51.6908 13.66 51.7708 13.48C51.8508 13.3 51.9408 13.12 52.0408 12.94C52.2008 12.66 52.3608 12.39 52.5208 12.13C52.7008 11.87 52.8808 11.61 53.0608 11.35C53.1608 11.23 53.2708 11.15 53.3908 11.11C53.5108 11.05 53.6508 11.1 53.8108 11.26C53.7708 11.34 53.7308 11.43 53.6908 11.53C53.6708 11.61 53.6208 11.69 53.5408 11.77C53.3808 12.11 53.2108 12.43 53.0308 12.73C52.8508 13.03 52.6708 13.34 52.4908 13.66C52.4508 13.76 52.4108 13.87 52.3708 13.99C52.3508 14.11 52.3008 14.25 52.2208 14.41C52.3808 14.37 52.5108 14.35 52.6108 14.35C52.7308 14.35 52.8408 14.33 52.9408 14.29C53.2208 14.13 53.4908 13.97 53.7508 13.81C54.0108 13.65 54.2708 13.48 54.5308 13.3C54.8708 13.04 55.1908 12.78 55.4908 12.52C55.7908 12.26 56.1108 11.99 56.4508 11.71C56.5708 11.59 56.7008 11.5 56.8408 11.44C56.9808 11.36 57.1508 11.37 57.3508 11.47C57.6308 11.63 57.6408 11.96 57.3808 12.46C57.1608 12.9 56.9308 13.34 56.6908 13.78C56.4508 14.22 56.2208 14.67 56.0008 15.13C55.9608 15.17 55.9208 15.22 55.8808 15.28C55.8608 15.34 55.8208 15.44 55.7608 15.58ZM51.4708 20.38C51.1308 20.66 50.7808 20.98 50.4208 21.34C50.0408 21.7 49.6908 22.06 49.3708 22.42C49.0508 22.78 48.7708 23.12 48.5308 23.44C48.2908 23.76 48.1308 24.02 48.0508 24.22C48.2508 24.1 48.5208 23.89 48.8608 23.59C49.1808 23.29 49.5108 22.95 49.8508 22.57C50.1708 22.19 50.4808 21.81 50.7808 21.43C51.0808 21.03 51.3108 20.68 51.4708 20.38ZM69.212 13.03C69.852 12.43 70.472 11.8 71.072 11.14C71.672 10.46 72.192 9.67 72.632 8.77C72.432 8.85 72.132 9.08 71.732 9.46C71.352 9.84 70.952 10.29 70.532 10.81C70.112 11.31 69.702 11.83 69.302 12.37C68.922 12.91 68.642 13.36 68.462 13.72C68.942 13.8 69.462 13.85 70.022 13.87C70.602 13.89 71.172 13.89 71.732 13.87C72.292 13.85 72.832 13.81 73.352 13.75C73.872 13.69 74.342 13.63 74.762 13.57C74.882 13.55 74.982 13.57 75.062 13.63C75.162 13.69 75.222 13.84 75.242 14.08C75.262 14.22 75.222 14.31 75.122 14.35C75.022 14.39 74.922 14.41 74.822 14.41C74.182 14.37 73.582 14.36 73.022 14.38C72.462 14.4 71.922 14.47 71.402 14.59C71.462 15.23 71.382 15.82 71.162 16.36C70.942 16.9 70.692 17.37 70.412 17.77C69.772 18.69 69.062 19.53 68.282 20.29C67.522 21.03 66.692 21.68 65.792 22.24C65.632 22.32 65.472 22.39 65.312 22.45C65.132 22.51 64.942 22.57 64.742 22.63C64.382 22.69 64.092 22.59 63.872 22.33C63.652 22.05 63.572 21.69 63.632 21.25C63.672 21.09 63.722 20.93 63.782 20.77C63.822 20.61 63.882 20.45 63.962 20.29C64.422 19.33 64.892 18.37 65.372 17.41C65.832 16.43 66.242 15.56 66.602 14.8C66.422 14.8 66.272 14.74 66.152 14.62C66.032 14.5 65.962 14.37 65.942 14.23C65.922 14.07 65.972 13.93 66.092 13.81C66.192 13.69 66.362 13.62 66.602 13.6C66.782 13.58 66.922 13.58 67.022 13.6C67.122 13.6 67.212 13.6 67.292 13.6C67.372 13.58 67.442 13.54 67.502 13.48C67.562 13.42 67.642 13.31 67.742 13.15C68.322 12.19 68.922 11.33 69.542 10.57C70.182 9.81 70.882 9.05 71.642 8.29C71.742 8.19 71.842 8.09 71.942 7.99C72.062 7.89 72.182 7.8 72.302 7.72C72.382 7.66 72.452 7.61 72.512 7.57C72.572 7.53 72.642 7.49 72.722 7.45C72.962 7.37 73.172 7.43 73.352 7.63C73.552 7.81 73.632 8.06 73.592 8.38C73.552 8.58 73.512 8.77 73.472 8.95C73.432 9.13 73.362 9.3 73.262 9.46C72.822 10.2 72.342 10.89 71.822 11.53C71.322 12.15 70.752 12.69 70.112 13.15C69.992 13.25 69.862 13.32 69.722 13.36C69.582 13.38 69.412 13.27 69.212 13.03ZM70.622 14.62C70.362 14.68 70.072 14.71 69.752 14.71C69.432 14.69 69.122 14.68 68.822 14.68C68.522 14.66 68.252 14.67 68.012 14.71C67.772 14.73 67.602 14.81 67.502 14.95C67.422 15.05 67.322 15.21 67.202 15.43C67.082 15.65 66.962 15.89 66.842 16.15C66.722 16.39 66.612 16.62 66.512 16.84C66.412 17.06 66.332 17.23 66.272 17.35C65.992 17.97 65.712 18.59 65.432 19.21C65.152 19.83 64.862 20.45 64.562 21.07C64.522 21.13 64.502 21.21 64.502 21.31C64.502 21.39 64.492 21.46 64.472 21.52C64.472 21.56 64.502 21.61 64.562 21.67C64.702 21.61 64.852 21.56 65.012 21.52C65.152 21.48 65.292 21.43 65.432 21.37C66.392 20.77 67.262 20.05 68.042 19.21C68.842 18.37 69.572 17.43 70.232 16.39C70.312 16.23 70.392 15.97 70.472 15.61C70.572 15.25 70.622 14.92 70.622 14.62ZM78.456 13.99C78.696 13.95 78.926 13.92 79.146 13.9C79.366 13.86 79.586 13.82 79.806 13.78C79.966 13.74 80.166 13.71 80.406 13.69C80.646 13.67 80.856 13.64 81.036 13.6C81.136 13.6 81.206 13.6 81.246 13.6C81.306 13.6 81.386 13.62 81.486 13.66C81.546 13.7 81.596 13.76 81.636 13.84C81.696 13.9 81.716 13.97 81.696 14.05C81.696 14.09 81.656 14.14 81.576 14.2C81.496 14.26 81.436 14.29 81.396 14.29C81.196 14.33 81.006 14.37 80.826 14.41C80.666 14.43 80.486 14.45 80.286 14.47C79.906 14.55 79.526 14.62 79.146 14.68C78.786 14.72 78.426 14.78 78.066 14.86C77.846 14.9 77.666 15 77.526 15.16C77.106 15.56 76.756 15.89 76.476 16.15C76.216 16.41 75.896 16.6 75.516 16.72C75.236 16.8 74.976 16.82 74.736 16.78C74.496 16.72 74.316 16.58 74.196 16.36C74.076 16.14 74.056 15.84 74.136 15.46C74.216 15.06 74.436 14.57 74.796 13.99C75.056 13.59 75.356 13.23 75.696 12.91C76.056 12.57 76.436 12.24 76.836 11.92C76.996 11.8 77.166 11.7 77.346 11.62C77.526 11.52 77.736 11.46 77.976 11.44C78.316 11.4 78.576 11.46 78.756 11.62C78.936 11.76 79.016 12 78.996 12.34C78.996 12.5 78.966 12.67 78.906 12.85C78.846 13.01 78.796 13.18 78.756 13.36C78.716 13.46 78.666 13.56 78.606 13.66C78.566 13.74 78.516 13.85 78.456 13.99ZM75.576 14.14C75.236 14.56 75.066 14.92 75.066 15.22C75.066 15.5 75.156 15.69 75.336 15.79C75.536 15.87 75.766 15.85 76.026 15.73C76.306 15.59 76.546 15.31 76.746 14.89C76.426 14.89 76.166 14.84 75.966 14.74C75.766 14.62 75.636 14.42 75.576 14.14ZM78.126 12.16C77.426 12.38 76.906 12.79 76.566 13.39C76.526 13.47 76.506 13.55 76.506 13.63C76.506 13.71 76.556 13.79 76.656 13.87C76.776 13.99 76.936 14.04 77.136 14.02C77.356 14 77.506 13.91 77.586 13.75C77.706 13.59 77.806 13.41 77.886 13.21C77.986 13.01 78.066 12.82 78.126 12.64C78.166 12.6 78.176 12.54 78.156 12.46C78.136 12.38 78.126 12.28 78.126 12.16ZM86.2563 14.95C86.0163 14.93 85.8263 14.87 85.6863 14.77C85.5463 14.67 85.4263 14.54 85.3263 14.38C85.2463 14.22 85.1763 14.05 85.1162 13.87C85.0763 13.69 85.0363 13.51 84.9963 13.33C84.8763 13.05 84.7063 12.91 84.4863 12.91C84.2663 12.91 84.0363 12.98 83.7963 13.12C83.5763 13.24 83.3663 13.4 83.1663 13.6C82.9663 13.8 82.8063 13.95 82.6863 14.05C81.9863 14.63 81.4463 15.28 81.0662 16C81.0062 16.16 80.9162 16.29 80.7962 16.39C80.6562 16.49 80.5262 16.56 80.4062 16.6C80.2862 16.62 80.1862 16.6 80.1062 16.54C80.0062 16.48 79.9562 16.36 79.9562 16.18C79.9562 16.08 79.9762 16 80.0162 15.94C80.0562 15.88 80.0962 15.81 80.1362 15.73C80.5162 15.05 80.8862 14.37 81.2463 13.69C81.6063 13.01 81.9763 12.33 82.3563 11.65C82.4563 11.45 82.5863 11.27 82.7463 11.11C82.7863 11.07 82.8363 11.04 82.8963 11.02C82.9763 11 83.0363 11.01 83.0763 11.05C83.2163 11.13 83.2663 11.24 83.2263 11.38C83.2263 11.52 83.1863 11.69 83.1063 11.89C82.9663 12.15 82.8363 12.41 82.7163 12.67C82.5963 12.93 82.4863 13.2 82.3863 13.48C82.5463 13.36 82.6463 13.28 82.6863 13.24C82.8863 13.08 83.0663 12.93 83.2263 12.79C83.4063 12.63 83.5863 12.49 83.7663 12.37C84.0063 12.17 84.2763 12.05 84.5763 12.01C85.1763 11.87 85.5663 12.09 85.7463 12.67C85.7863 12.83 85.8163 12.98 85.8363 13.12C85.8563 13.26 85.8863 13.4 85.9263 13.54C85.9663 13.76 86.0363 13.91 86.1363 13.99C86.2363 14.05 86.4063 14.07 86.6463 14.05C86.7463 14.05 86.8463 14.05 86.9463 14.05C87.0663 14.03 87.1763 14.02 87.2763 14.02C87.5563 14 87.7463 14.04 87.8463 14.14C87.9463 14.24 87.9563 14.36 87.8763 14.5C87.7963 14.62 87.6163 14.73 87.3363 14.83C87.0763 14.93 86.7163 14.97 86.2563 14.95ZM96.8186 24.22C96.9386 23.92 97.0886 23.66 97.2686 23.44C97.4486 23.2 97.6286 22.94 97.8086 22.66C98.7086 21.16 99.6086 19.68 100.509 18.22C101.409 16.76 102.319 15.29 103.239 13.81C104.099 12.43 104.979 11.06 105.879 9.7C106.779 8.34 107.719 7.01 108.699 5.71C108.759 5.61 108.819 5.52 108.879 5.44C108.939 5.36 108.999 5.27 109.059 5.17C108.939 5.13 108.869 5.11 108.849 5.11C107.409 5.09 105.979 5.07 104.559 5.05C103.159 5.03 101.739 5 100.299 4.96C99.3986 4.94 98.5286 4.97 97.6886 5.05C96.8486 5.11 95.9786 5.13 95.0786 5.11C94.7586 5.13 94.5386 5.09 94.4186 4.99C94.2786 4.89 94.2286 4.78 94.2686 4.66C94.2886 4.54 94.3786 4.43 94.5386 4.33C94.6986 4.23 94.9086 4.18 95.1686 4.18C96.1686 4.2 97.1686 4.22 98.1686 4.24C99.1686 4.26 100.159 4.28 101.139 4.3C102.899 4.36 104.649 4.39 106.389 4.39C106.869 4.41 107.339 4.43 107.799 4.45C108.279 4.45 108.759 4.45 109.239 4.45C109.519 4.47 109.749 4.38 109.929 4.18C110.049 3.94 110.199 3.75 110.379 3.61C110.539 3.49 110.689 3.47 110.829 3.55C110.889 3.59 110.919 3.65 110.919 3.73C110.919 3.81 110.899 3.88 110.859 3.94C110.799 4.1 110.719 4.25 110.619 4.39C110.719 4.43 110.839 4.45 110.979 4.45C112.319 4.45 113.659 4.45 114.999 4.45C116.339 4.43 117.679 4.42 119.019 4.42C120.059 4.4 121.109 4.35 122.169 4.27C123.229 4.17 124.289 4.12 125.349 4.12C125.729 4.12 126.019 4.17 126.219 4.27C126.439 4.37 126.549 4.49 126.549 4.63C126.549 4.75 126.449 4.87 126.249 4.99C126.069 5.11 125.779 5.18 125.379 5.2C124.619 5.22 123.829 5.21 123.009 5.17C122.189 5.13 121.389 5.11 120.609 5.11H110.439C110.279 5.11 110.149 5.15 110.049 5.23C109.969 5.29 109.889 5.37 109.809 5.47C109.149 6.47 108.479 7.45 107.799 8.41C107.139 9.35 106.489 10.33 105.849 11.35C104.789 12.97 103.759 14.59 102.759 16.21C101.759 17.81 100.749 19.42 99.7286 21.04C99.3686 21.62 99.0186 22.26 98.6786 22.96C98.3586 23.64 98.0286 24.27 97.6886 24.85C97.5886 24.99 97.4586 25.09 97.2986 25.15C97.1386 25.21 96.9986 25.22 96.8786 25.18C96.7586 25.14 96.6786 25.04 96.6386 24.88C96.5986 24.72 96.6586 24.5 96.8186 24.22ZM117.208 14.38C116.988 14.6 116.648 14.83 116.188 15.07C115.748 15.31 115.298 15.48 114.838 15.58C114.398 15.68 114.008 15.67 113.668 15.55C113.328 15.43 113.158 15.11 113.158 14.59C113.158 14.43 113.168 14.27 113.188 14.11C113.208 13.93 113.238 13.74 113.278 13.54C112.758 13.86 112.248 14.18 111.748 14.5C111.268 14.8 110.768 15.09 110.248 15.37C110.128 15.47 109.988 15.53 109.828 15.55C109.688 15.57 109.548 15.59 109.408 15.61C108.968 15.67 108.658 15.54 108.478 15.22C108.298 14.9 108.328 14.57 108.568 14.23C108.668 14.11 108.758 14 108.838 13.9C108.918 13.8 109.018 13.7 109.138 13.6C109.658 13.14 110.228 12.8 110.848 12.58C111.468 12.36 112.138 12.28 112.858 12.34C113.118 12.38 113.328 12.3 113.488 12.1C113.628 11.96 113.758 11.82 113.878 11.68C114.018 11.54 114.158 11.4 114.298 11.26C114.338 11.2 114.388 11.14 114.448 11.08C114.508 11.02 114.568 10.98 114.628 10.96C114.688 10.94 114.758 10.93 114.838 10.93C114.938 10.93 115.018 10.95 115.078 10.99C115.178 11.13 115.218 11.28 115.198 11.44C115.178 11.6 115.098 11.8 114.958 12.04C114.898 12.16 114.778 12.41 114.598 12.79C114.418 13.15 114.278 13.51 114.178 13.87C114.098 14.23 114.098 14.53 114.178 14.77C114.258 14.99 114.528 15.03 114.988 14.89C115.228 14.83 115.488 14.73 115.768 14.59C116.048 14.43 116.328 14.28 116.608 14.14C116.688 14.1 116.768 14.06 116.848 14.02C116.928 13.96 117.018 13.94 117.118 13.96C117.218 14 117.288 14.07 117.328 14.17C117.388 14.25 117.348 14.32 117.208 14.38ZM109.318 14.74C109.898 14.64 110.508 14.42 111.148 14.08C111.788 13.72 112.308 13.34 112.708 12.94C112.108 12.98 111.478 13.16 110.818 13.48C110.158 13.8 109.658 14.22 109.318 14.74ZM122.028 14.95C121.788 14.93 121.598 14.87 121.458 14.77C121.318 14.67 121.198 14.54 121.098 14.38C121.018 14.22 120.948 14.05 120.888 13.87C120.848 13.69 120.808 13.51 120.768 13.33C120.648 13.05 120.478 12.91 120.258 12.91C120.038 12.91 119.808 12.98 119.568 13.12C119.348 13.24 119.138 13.4 118.938 13.6C118.738 13.8 118.578 13.95 118.458 14.05C117.758 14.63 117.218 15.28 116.838 16C116.778 16.16 116.688 16.29 116.568 16.39C116.428 16.49 116.298 16.56 116.178 16.6C116.058 16.62 115.958 16.6 115.878 16.54C115.778 16.48 115.728 16.36 115.728 16.18C115.728 16.08 115.748 16 115.788 15.94C115.828 15.88 115.868 15.81 115.908 15.73C116.288 15.05 116.658 14.37 117.018 13.69C117.378 13.01 117.748 12.33 118.128 11.65C118.228 11.45 118.358 11.27 118.518 11.11C118.558 11.07 118.608 11.04 118.668 11.02C118.748 11 118.808 11.01 118.848 11.05C118.988 11.13 119.038 11.24 118.998 11.38C118.998 11.52 118.958 11.69 118.878 11.89C118.738 12.15 118.608 12.41 118.488 12.67C118.368 12.93 118.258 13.2 118.158 13.48C118.318 13.36 118.418 13.28 118.458 13.24C118.658 13.08 118.838 12.93 118.998 12.79C119.178 12.63 119.358 12.49 119.538 12.37C119.778 12.17 120.048 12.05 120.348 12.01C120.948 11.87 121.338 12.09 121.518 12.67C121.558 12.83 121.588 12.98 121.608 13.12C121.628 13.26 121.658 13.4 121.698 13.54C121.738 13.76 121.808 13.91 121.908 13.99C122.008 14.05 122.178 14.07 122.418 14.05C122.518 14.05 122.618 14.05 122.718 14.05C122.838 14.03 122.948 14.02 123.048 14.02C123.328 14 123.518 14.04 123.618 14.14C123.718 14.24 123.728 14.36 123.648 14.5C123.568 14.62 123.388 14.73 123.108 14.83C122.848 14.93 122.488 14.97 122.028 14.95ZM126.913 13.99C127.153 13.95 127.383 13.92 127.603 13.9C127.823 13.86 128.043 13.82 128.263 13.78C128.423 13.74 128.623 13.71 128.863 13.69C129.103 13.67 129.313 13.64 129.493 13.6C129.593 13.6 129.663 13.6 129.703 13.6C129.763 13.6 129.843 13.62 129.943 13.66C130.003 13.7 130.053 13.76 130.093 13.84C130.153 13.9 130.173 13.97 130.153 14.05C130.153 14.09 130.113 14.14 130.033 14.2C129.953 14.26 129.893 14.29 129.853 14.29C129.653 14.33 129.463 14.37 129.283 14.41C129.123 14.43 128.943 14.45 128.743 14.47C128.363 14.55 127.983 14.62 127.603 14.68C127.243 14.72 126.883 14.78 126.523 14.86C126.303 14.9 126.123 15 125.983 15.16C125.563 15.56 125.213 15.89 124.933 16.15C124.673 16.41 124.353 16.6 123.973 16.72C123.693 16.8 123.433 16.82 123.193 16.78C122.953 16.72 122.773 16.58 122.653 16.36C122.533 16.14 122.513 15.84 122.593 15.46C122.673 15.06 122.893 14.57 123.253 13.99C123.513 13.59 123.813 13.23 124.153 12.91C124.513 12.57 124.893 12.24 125.293 11.92C125.453 11.8 125.623 11.7 125.803 11.62C125.983 11.52 126.193 11.46 126.433 11.44C126.773 11.4 127.033 11.46 127.213 11.62C127.393 11.76 127.473 12 127.453 12.34C127.453 12.5 127.423 12.67 127.363 12.85C127.303 13.01 127.253 13.18 127.213 13.36C127.173 13.46 127.123 13.56 127.063 13.66C127.023 13.74 126.973 13.85 126.913 13.99ZM124.033 14.14C123.693 14.56 123.523 14.92 123.523 15.22C123.523 15.5 123.613 15.69 123.793 15.79C123.993 15.87 124.223 15.85 124.483 15.73C124.763 15.59 125.003 15.31 125.203 14.89C124.883 14.89 124.623 14.84 124.423 14.74C124.223 14.62 124.093 14.42 124.033 14.14ZM126.583 12.16C125.883 12.38 125.363 12.79 125.023 13.39C124.983 13.47 124.963 13.55 124.963 13.63C124.963 13.71 125.013 13.79 125.113 13.87C125.233 13.99 125.393 14.04 125.593 14.02C125.813 14 125.963 13.91 126.043 13.75C126.163 13.59 126.263 13.41 126.343 13.21C126.443 13.01 126.523 12.82 126.583 12.64C126.623 12.6 126.633 12.54 126.613 12.46C126.593 12.38 126.583 12.28 126.583 12.16ZM129.583 7.45C129.123 7.51 128.843 7.47 128.743 7.33C128.623 7.19 128.583 7.09 128.623 7.03C128.683 6.93 128.793 6.84 128.953 6.76C129.093 6.66 129.373 6.63 129.793 6.67C130.453 6.73 131.133 6.76 131.833 6.76C132.553 6.76 133.263 6.71 133.963 6.61C134.023 6.57 134.073 6.52 134.113 6.46C134.393 6.08 134.603 5.78 134.743 5.56C134.883 5.34 135.013 5.14 135.133 4.96C135.253 4.78 135.383 4.59 135.523 4.39C135.683 4.17 135.903 3.87 136.183 3.49C136.243 3.37 136.333 3.27 136.453 3.19C136.593 3.09 136.723 3.09 136.843 3.19C136.883 3.23 136.913 3.3 136.933 3.4C136.953 3.5 136.963 3.59 136.963 3.67C136.943 3.75 136.903 3.83 136.843 3.91C136.783 3.99 136.733 4.06 136.693 4.12C136.473 4.42 136.313 4.64 136.213 4.78C136.133 4.92 136.053 5.06 135.973 5.2C135.893 5.34 135.793 5.51 135.673 5.71C135.553 5.91 135.343 6.22 135.043 6.64C135.463 6.72 136.003 6.78 136.663 6.82C137.343 6.84 138.073 6.85 138.853 6.85C139.633 6.83 140.433 6.8 141.253 6.76C142.093 6.7 142.893 6.63 143.653 6.55C144.133 6.51 144.583 6.47 145.003 6.43C145.423 6.39 145.773 6.38 146.053 6.4C146.553 6.44 146.783 6.54 146.743 6.7C146.703 6.86 146.473 6.99 146.053 7.09C145.693 7.15 145.193 7.2 144.553 7.24C143.933 7.28 143.253 7.32 142.513 7.36C141.773 7.38 140.993 7.4 140.173 7.42C139.373 7.42 138.603 7.42 137.863 7.42C137.143 7.4 136.483 7.39 135.883 7.39C135.303 7.39 134.853 7.38 134.533 7.36C134.193 7.8 133.833 8.28 133.453 8.8C133.093 9.32 132.733 9.85 132.373 10.39C132.033 10.93 131.713 11.46 131.413 11.98C131.113 12.48 130.853 12.94 130.633 13.36C130.453 13.72 130.273 14.12 130.093 14.56C129.913 14.98 129.793 15.36 129.733 15.7C129.693 16.02 129.753 16.26 129.913 16.42C130.073 16.56 130.393 16.53 130.873 16.33C131.093 16.25 131.343 16.13 131.623 15.97C131.903 15.81 132.193 15.64 132.493 15.46C132.793 15.26 133.083 15.06 133.363 14.86C133.643 14.64 133.903 14.43 134.143 14.23C134.243 14.17 134.323 14.11 134.383 14.05C134.443 13.97 134.523 13.91 134.623 13.87C134.743 13.79 134.843 13.74 134.923 13.72C135.023 13.68 135.123 13.72 135.223 13.84C135.303 13.96 135.313 14.08 135.253 14.2C135.213 14.3 135.143 14.4 135.043 14.5C134.923 14.62 134.713 14.79 134.413 15.01C134.113 15.23 133.763 15.46 133.363 15.7C132.983 15.94 132.573 16.18 132.133 16.42C131.713 16.64 131.313 16.82 130.933 16.96C130.253 17.2 129.783 17.23 129.523 17.05C129.243 16.85 129.093 16.56 129.073 16.18C129.033 15.8 129.083 15.38 129.223 14.92C129.363 14.46 129.503 14.06 129.643 13.72C129.883 13.16 130.163 12.6 130.483 12.04C130.803 11.48 131.133 10.93 131.473 10.39C131.833 9.85 132.183 9.33 132.523 8.83C132.883 8.31 133.203 7.83 133.483 7.39C132.823 7.41 132.143 7.43 131.443 7.45C130.763 7.45 130.143 7.45 129.583 7.45ZM159.674 9.1C159.574 8.88 159.554 8.71 159.614 8.59C159.694 8.45 159.754 8.3 159.794 8.14C159.894 7.86 160.004 7.57 160.124 7.27C160.244 6.97 160.324 6.68 160.364 6.4C160.404 6 160.364 5.61 160.244 5.23C160.124 4.85 159.934 4.51 159.674 4.21C159.434 3.91 159.144 3.67 158.804 3.49C158.484 3.29 158.134 3.17 157.754 3.13C157.334 3.11 156.914 3.16 156.494 3.28C156.074 3.38 155.664 3.52 155.264 3.7C153.604 4.42 152.074 5.38 150.674 6.58C149.594 7.48 148.594 8.43 147.674 9.43C146.774 10.41 145.964 11.49 145.244 12.67C144.704 13.57 144.234 14.48 143.834 15.4C143.454 16.32 143.214 17.29 143.114 18.31C143.074 18.81 143.084 19.29 143.144 19.75C143.204 20.21 143.374 20.64 143.654 21.04C143.974 21.56 144.384 21.91 144.884 22.09C145.404 22.25 145.984 22.31 146.624 22.27C147.244 22.23 147.854 22.12 148.454 21.94C149.054 21.74 149.644 21.51 150.224 21.25C151.664 20.65 153.024 19.94 154.304 19.12C155.584 18.28 156.804 17.32 157.964 16.24C158.364 15.9 158.754 15.57 159.134 15.25C159.534 14.93 159.954 14.63 160.394 14.35C160.374 14.39 160.354 14.45 160.334 14.53C160.334 14.59 160.314 14.64 160.274 14.68C159.754 15.54 159.134 16.31 158.414 16.99C157.714 17.67 156.964 18.3 156.164 18.88C155.064 19.7 153.944 20.42 152.804 21.04C151.664 21.66 150.464 22.17 149.204 22.57C148.684 22.77 148.144 22.93 147.584 23.05C147.044 23.15 146.494 23.2 145.934 23.2C145.034 23.22 144.244 22.96 143.564 22.42C142.884 21.86 142.464 21.08 142.304 20.08C142.204 19.44 142.184 18.8 142.244 18.16C142.324 17.52 142.474 16.88 142.694 16.24C142.994 15.24 143.384 14.29 143.864 13.39C144.344 12.47 144.904 11.59 145.544 10.75C146.464 9.57 147.434 8.47 148.454 7.45C149.494 6.43 150.624 5.5 151.844 4.66C152.584 4.18 153.334 3.75 154.094 3.37C154.854 2.97 155.654 2.67 156.494 2.47C157.174 2.29 157.794 2.27 158.354 2.41C158.914 2.53 159.394 2.75 159.794 3.07C160.194 3.39 160.504 3.79 160.724 4.27C160.964 4.73 161.094 5.2 161.114 5.68C161.174 6.22 161.114 6.74 160.934 7.24C160.754 7.74 160.504 8.22 160.184 8.68C160.144 8.76 160.074 8.83 159.974 8.89C159.874 8.95 159.774 9.02 159.674 9.1ZM166.522 13.99C166.762 13.95 166.992 13.92 167.212 13.9C167.432 13.86 167.652 13.82 167.872 13.78C168.032 13.74 168.232 13.71 168.472 13.69C168.712 13.67 168.922 13.64 169.102 13.6C169.202 13.6 169.272 13.6 169.312 13.6C169.372 13.6 169.452 13.62 169.552 13.66C169.612 13.7 169.662 13.76 169.702 13.84C169.762 13.9 169.782 13.97 169.762 14.05C169.762 14.09 169.722 14.14 169.642 14.2C169.562 14.26 169.502 14.29 169.462 14.29C169.262 14.33 169.072 14.37 168.892 14.41C168.732 14.43 168.552 14.45 168.352 14.47C167.972 14.55 167.592 14.62 167.212 14.68C166.852 14.72 166.492 14.78 166.132 14.86C165.912 14.9 165.732 15 165.592 15.16C165.172 15.56 164.822 15.89 164.542 16.15C164.282 16.41 163.962 16.6 163.582 16.72C163.302 16.8 163.042 16.82 162.802 16.78C162.562 16.72 162.382 16.58 162.262 16.36C162.142 16.14 162.122 15.84 162.202 15.46C162.282 15.06 162.502 14.57 162.862 13.99C163.122 13.59 163.422 13.23 163.762 12.91C164.122 12.57 164.502 12.24 164.902 11.92C165.062 11.8 165.232 11.7 165.412 11.62C165.592 11.52 165.802 11.46 166.042 11.44C166.382 11.4 166.642 11.46 166.822 11.62C167.002 11.76 167.082 12 167.062 12.34C167.062 12.5 167.032 12.67 166.972 12.85C166.912 13.01 166.862 13.18 166.822 13.36C166.782 13.46 166.732 13.56 166.672 13.66C166.632 13.74 166.582 13.85 166.522 13.99ZM163.642 14.14C163.302 14.56 163.132 14.92 163.132 15.22C163.132 15.5 163.222 15.69 163.402 15.79C163.602 15.87 163.832 15.85 164.092 15.73C164.372 15.59 164.612 15.31 164.812 14.89C164.492 14.89 164.232 14.84 164.032 14.74C163.832 14.62 163.702 14.42 163.642 14.14ZM166.192 12.16C165.492 12.38 164.972 12.79 164.632 13.39C164.592 13.47 164.572 13.55 164.572 13.63C164.572 13.71 164.622 13.79 164.722 13.87C164.842 13.99 165.002 14.04 165.202 14.02C165.422 14 165.572 13.91 165.652 13.75C165.772 13.59 165.872 13.41 165.952 13.21C166.052 13.01 166.132 12.82 166.192 12.64C166.232 12.6 166.242 12.54 166.222 12.46C166.202 12.38 166.192 12.28 166.192 12.16ZM173.393 13.75C173.553 13.83 173.693 13.85 173.813 13.81C173.933 13.75 174.053 13.69 174.173 13.63C174.593 13.39 175.003 13.16 175.403 12.94C175.803 12.7 176.213 12.47 176.633 12.25C176.793 12.15 176.963 12.07 177.143 12.01C177.343 11.93 177.533 11.87 177.713 11.83C178.333 11.69 178.693 11.93 178.793 12.55C178.873 12.91 178.883 13.29 178.823 13.69C178.783 14.15 178.853 14.44 179.033 14.56C179.233 14.68 179.533 14.68 179.933 14.56C180.213 14.5 180.513 14.4 180.833 14.26C181.153 14.12 181.443 14 181.703 13.9C181.943 13.82 182.113 13.79 182.213 13.81C182.333 13.81 182.413 13.85 182.453 13.93C182.513 14.03 182.513 14.15 182.453 14.29C182.413 14.41 182.273 14.52 182.033 14.62C181.653 14.84 181.263 15.03 180.863 15.19C180.483 15.35 180.073 15.45 179.633 15.49C178.573 15.61 178.023 15.13 177.983 14.05C177.983 13.93 177.983 13.82 177.983 13.72C178.003 13.62 178.013 13.51 178.013 13.39C178.013 12.97 177.993 12.67 177.953 12.49C177.933 12.31 177.723 12.36 177.323 12.64C176.923 12.86 176.483 13.13 176.003 13.45C175.543 13.77 175.113 14.04 174.713 14.26C174.453 14.44 174.153 14.56 173.813 14.62C173.213 14.8 172.803 14.57 172.583 13.93C172.523 13.77 172.473 13.63 172.433 13.51C172.413 13.39 172.383 13.3 172.343 13.24C172.323 13.18 172.273 13.17 172.193 13.21C172.113 13.23 171.983 13.3 171.803 13.42C171.403 13.72 171.003 14.09 170.603 14.53C170.203 14.97 169.803 15.35 169.403 15.67C169.303 15.75 169.213 15.83 169.133 15.91C169.053 15.97 168.963 16.03 168.863 16.09C168.683 16.15 168.533 16.14 168.413 16.06C168.293 15.96 168.253 15.81 168.293 15.61C168.313 15.47 168.383 15.31 168.503 15.13C168.723 14.67 168.953 14.22 169.193 13.78C169.413 13.34 169.653 12.89 169.913 12.43C169.933 12.37 169.953 12.31 169.973 12.25C170.013 12.17 170.053 12.11 170.093 12.07C170.153 12.03 170.223 11.99 170.303 11.95C170.383 11.91 170.453 11.91 170.513 11.95C170.653 11.99 170.723 12.11 170.723 12.31C170.683 12.41 170.643 12.51 170.603 12.61C170.583 12.69 170.553 12.78 170.513 12.88C170.473 12.96 170.413 13.07 170.333 13.21C170.273 13.35 170.203 13.5 170.123 13.66C170.043 13.8 169.973 13.95 169.913 14.11C169.853 14.25 169.823 14.36 169.823 14.44C169.903 14.38 170.003 14.29 170.123 14.17C170.243 14.05 170.363 13.93 170.483 13.81C170.623 13.67 170.753 13.54 170.873 13.42C170.993 13.28 171.103 13.18 171.203 13.12C171.323 13.02 171.443 12.94 171.563 12.88C171.683 12.82 171.803 12.76 171.923 12.7C172.603 12.42 173.063 12.64 173.303 13.36C173.323 13.42 173.333 13.49 173.333 13.57C173.353 13.63 173.373 13.69 173.393 13.75ZM186.254 13.75C186.414 13.83 186.554 13.85 186.674 13.81C186.794 13.75 186.914 13.69 187.034 13.63C187.454 13.39 187.864 13.16 188.264 12.94C188.664 12.7 189.074 12.47 189.494 12.25C189.654 12.15 189.824 12.07 190.004 12.01C190.204 11.93 190.394 11.87 190.574 11.83C191.194 11.69 191.554 11.93 191.654 12.55C191.734 12.91 191.744 13.29 191.684 13.69C191.644 14.15 191.714 14.44 191.894 14.56C192.094 14.68 192.394 14.68 192.794 14.56C193.074 14.5 193.374 14.4 193.694 14.26C194.014 14.12 194.304 14 194.564 13.9C194.804 13.82 194.974 13.79 195.074 13.81C195.194 13.81 195.274 13.85 195.314 13.93C195.374 14.03 195.374 14.15 195.314 14.29C195.274 14.41 195.134 14.52 194.894 14.62C194.514 14.84 194.124 15.03 193.724 15.19C193.344 15.35 192.934 15.45 192.494 15.49C191.434 15.61 190.884 15.13 190.844 14.05C190.844 13.93 190.844 13.82 190.844 13.72C190.864 13.62 190.874 13.51 190.874 13.39C190.874 12.97 190.854 12.67 190.814 12.49C190.794 12.31 190.584 12.36 190.184 12.64C189.784 12.86 189.344 13.13 188.864 13.45C188.404 13.77 187.974 14.04 187.574 14.26C187.314 14.44 187.014 14.56 186.674 14.62C186.074 14.8 185.664 14.57 185.444 13.93C185.384 13.77 185.334 13.63 185.294 13.51C185.274 13.39 185.244 13.3 185.204 13.24C185.184 13.18 185.134 13.17 185.054 13.21C184.974 13.23 184.844 13.3 184.664 13.42C184.264 13.72 183.864 14.09 183.464 14.53C183.064 14.97 182.664 15.35 182.264 15.67C182.164 15.75 182.074 15.83 181.994 15.91C181.914 15.97 181.824 16.03 181.724 16.09C181.544 16.15 181.394 16.14 181.274 16.06C181.154 15.96 181.114 15.81 181.154 15.61C181.174 15.47 181.244 15.31 181.364 15.13C181.584 14.67 181.814 14.22 182.054 13.78C182.274 13.34 182.514 12.89 182.774 12.43C182.794 12.37 182.814 12.31 182.834 12.25C182.874 12.17 182.914 12.11 182.954 12.07C183.014 12.03 183.084 11.99 183.164 11.95C183.244 11.91 183.314 11.91 183.374 11.95C183.514 11.99 183.584 12.11 183.584 12.31C183.544 12.41 183.504 12.51 183.464 12.61C183.444 12.69 183.414 12.78 183.374 12.88C183.334 12.96 183.274 13.07 183.194 13.21C183.134 13.35 183.064 13.5 182.984 13.66C182.904 13.8 182.834 13.95 182.774 14.11C182.714 14.25 182.684 14.36 182.684 14.44C182.764 14.38 182.864 14.29 182.984 14.17C183.104 14.05 183.224 13.93 183.344 13.81C183.484 13.67 183.614 13.54 183.734 13.42C183.854 13.28 183.964 13.18 184.064 13.12C184.184 13.02 184.304 12.94 184.424 12.88C184.544 12.82 184.664 12.76 184.784 12.7C185.464 12.42 185.924 12.64 186.164 13.36C186.184 13.42 186.194 13.49 186.194 13.57C186.214 13.63 186.234 13.69 186.254 13.75ZM199.115 14.71C198.675 14.95 198.225 15.18 197.765 15.4C197.325 15.62 196.855 15.79 196.355 15.91C196.195 15.93 196.035 15.95 195.875 15.97C195.715 15.97 195.555 15.95 195.395 15.91C195.115 15.87 194.915 15.74 194.795 15.52C194.655 15.3 194.605 15.06 194.645 14.8C194.645 14.64 194.665 14.47 194.705 14.29C194.725 14.11 194.785 13.95 194.885 13.81C195.105 13.45 195.305 13.05 195.485 12.61C195.685 12.17 195.915 11.78 196.175 11.44C196.275 11.32 196.395 11.26 196.535 11.26C196.675 11.24 196.795 11.28 196.895 11.38C197.015 11.46 197.085 11.59 197.105 11.77C197.125 11.93 197.055 12.11 196.895 12.31C196.695 12.63 196.495 12.94 196.295 13.24C196.095 13.54 195.895 13.86 195.695 14.2C195.495 14.62 195.405 14.93 195.425 15.13C195.465 15.31 195.565 15.42 195.725 15.46C195.905 15.5 196.125 15.48 196.385 15.4C196.645 15.32 196.905 15.21 197.165 15.07C197.445 14.93 197.705 14.79 197.945 14.65C198.185 14.49 198.355 14.35 198.455 14.23C198.655 14.01 198.835 13.9 198.995 13.9C199.155 13.88 199.265 13.92 199.325 14.02C199.405 14.1 199.435 14.22 199.415 14.38C199.395 14.52 199.295 14.63 199.115 14.71ZM198.395 9.04C198.555 9.04 198.675 9.09 198.755 9.19C198.855 9.29 198.885 9.41 198.845 9.55C198.805 9.71 198.695 9.88 198.515 10.06C198.335 10.24 198.145 10.39 197.945 10.51C197.665 10.67 197.465 10.73 197.345 10.69C197.245 10.65 197.235 10.44 197.315 10.06C197.355 9.82 197.455 9.59 197.615 9.37C197.795 9.15 198.055 9.04 198.395 9.04ZM201.479 13.87C201.659 13.69 201.789 13.48 201.869 13.24C201.969 12.98 201.999 12.76 201.959 12.58C201.919 12.38 201.809 12.25 201.629 12.19C201.449 12.11 201.189 12.17 200.849 12.37C200.689 12.47 200.519 12.6 200.339 12.76C200.159 12.92 200.009 13.1 199.889 13.3C199.769 13.48 199.699 13.67 199.679 13.87C199.679 14.07 199.769 14.24 199.949 14.38C200.149 14.58 200.359 14.79 200.579 15.01C200.799 15.21 201.019 15.4 201.239 15.58C201.819 15.32 202.389 15.09 202.949 14.89C203.509 14.69 204.079 14.42 204.659 14.08C204.899 13.94 205.119 13.86 205.319 13.84C205.419 13.84 205.519 13.86 205.619 13.9C205.719 13.92 205.789 14 205.829 14.14C205.769 14.32 205.669 14.45 205.529 14.53C205.389 14.59 205.249 14.64 205.109 14.68C204.829 14.8 204.499 14.93 204.119 15.07C203.739 15.19 203.359 15.33 202.979 15.49C202.599 15.63 202.249 15.79 201.929 15.97C201.609 16.15 201.379 16.34 201.239 16.54C201.079 16.86 200.809 17.15 200.429 17.41C200.009 17.69 199.569 17.93 199.109 18.13C198.669 18.31 198.189 18.43 197.669 18.49C197.409 18.51 197.129 18.49 196.829 18.43C196.749 18.41 196.689 18.36 196.649 18.28C196.589 18.2 196.549 18.11 196.529 18.01C196.489 17.91 196.509 17.84 196.589 17.8C196.669 17.76 196.749 17.71 196.829 17.65C197.309 17.25 197.829 16.9 198.389 16.6C198.929 16.28 199.549 16.01 200.249 15.79C200.189 15.73 200.119 15.68 200.039 15.64C199.979 15.58 199.919 15.51 199.859 15.43C199.719 15.31 199.579 15.19 199.439 15.07C199.319 14.95 199.209 14.82 199.109 14.68C198.889 14.4 198.779 14.11 198.779 13.81C198.779 13.49 198.899 13.19 199.139 12.91C199.479 12.55 199.849 12.25 200.249 12.01C200.669 11.77 201.129 11.62 201.629 11.56C202.249 11.46 202.649 11.63 202.829 12.07C202.949 12.29 202.979 12.51 202.919 12.73C202.859 12.95 202.749 13.15 202.589 13.33C202.429 13.53 202.279 13.68 202.139 13.78C201.999 13.86 201.819 13.95 201.599 14.05C201.579 14.01 201.559 13.98 201.539 13.96C201.519 13.94 201.499 13.91 201.479 13.87ZM197.909 17.56C197.769 17.8 197.769 17.93 197.909 17.95C198.049 17.97 198.259 17.92 198.539 17.8C198.799 17.68 199.099 17.51 199.439 17.29C199.779 17.05 200.089 16.8 200.369 16.54C199.989 16.54 199.549 16.63 199.049 16.81C198.549 16.97 198.169 17.22 197.909 17.56ZM208.041 13.87C208.221 13.69 208.351 13.48 208.431 13.24C208.531 12.98 208.561 12.76 208.521 12.58C208.481 12.38 208.371 12.25 208.191 12.19C208.011 12.11 207.751 12.17 207.411 12.37C207.251 12.47 207.081 12.6 206.901 12.76C206.721 12.92 206.571 13.1 206.451 13.3C206.331 13.48 206.261 13.67 206.241 13.87C206.241 14.07 206.331 14.24 206.511 14.38C206.711 14.58 206.921 14.79 207.141 15.01C207.361 15.21 207.581 15.4 207.801 15.58C208.381 15.32 208.951 15.09 209.511 14.89C210.071 14.69 210.641 14.42 211.221 14.08C211.461 13.94 211.681 13.86 211.881 13.84C211.981 13.84 212.081 13.86 212.181 13.9C212.281 13.92 212.351 14 212.391 14.14C212.331 14.32 212.231 14.45 212.091 14.53C211.951 14.59 211.811 14.64 211.671 14.68C211.391 14.8 211.061 14.93 210.681 15.07C210.301 15.19 209.921 15.33 209.541 15.49C209.161 15.63 208.811 15.79 208.491 15.97C208.171 16.15 207.941 16.34 207.801 16.54C207.641 16.86 207.371 17.15 206.991 17.41C206.571 17.69 206.131 17.93 205.671 18.13C205.231 18.31 204.751 18.43 204.231 18.49C203.971 18.51 203.691 18.49 203.391 18.43C203.311 18.41 203.251 18.36 203.211 18.28C203.151 18.2 203.111 18.11 203.091 18.01C203.051 17.91 203.071 17.84 203.151 17.8C203.231 17.76 203.311 17.71 203.391 17.65C203.871 17.25 204.391 16.9 204.951 16.6C205.491 16.28 206.111 16.01 206.811 15.79C206.751 15.73 206.681 15.68 206.601 15.64C206.541 15.58 206.481 15.51 206.421 15.43C206.281 15.31 206.141 15.19 206.001 15.07C205.881 14.95 205.771 14.82 205.671 14.68C205.451 14.4 205.341 14.11 205.341 13.81C205.341 13.49 205.461 13.19 205.701 12.91C206.041 12.55 206.411 12.25 206.811 12.01C207.231 11.77 207.691 11.62 208.191 11.56C208.811 11.46 209.211 11.63 209.391 12.07C209.511 12.29 209.541 12.51 209.481 12.73C209.421 12.95 209.311 13.15 209.151 13.33C208.991 13.53 208.841 13.68 208.701 13.78C208.561 13.86 208.381 13.95 208.161 14.05C208.141 14.01 208.121 13.98 208.101 13.96C208.081 13.94 208.061 13.91 208.041 13.87ZM204.471 17.56C204.331 17.8 204.331 17.93 204.471 17.95C204.611 17.97 204.821 17.92 205.101 17.8C205.361 17.68 205.661 17.51 206.001 17.29C206.341 17.05 206.651 16.8 206.931 16.54C206.551 16.54 206.111 16.63 205.611 16.81C205.111 16.97 204.731 17.22 204.471 17.56ZM216.254 14.71C215.814 14.95 215.364 15.18 214.904 15.4C214.464 15.62 213.994 15.79 213.494 15.91C213.334 15.93 213.174 15.95 213.014 15.97C212.854 15.97 212.694 15.95 212.534 15.91C212.254 15.87 212.054 15.74 211.934 15.52C211.794 15.3 211.744 15.06 211.784 14.8C211.784 14.64 211.804 14.47 211.844 14.29C211.864 14.11 211.924 13.95 212.024 13.81C212.244 13.45 212.444 13.05 212.624 12.61C212.824 12.17 213.054 11.78 213.314 11.44C213.414 11.32 213.534 11.26 213.674 11.26C213.814 11.24 213.934 11.28 214.034 11.38C214.154 11.46 214.224 11.59 214.244 11.77C214.264 11.93 214.194 12.11 214.034 12.31C213.834 12.63 213.634 12.94 213.434 13.24C213.234 13.54 213.034 13.86 212.834 14.2C212.634 14.62 212.544 14.93 212.564 15.13C212.604 15.31 212.704 15.42 212.864 15.46C213.044 15.5 213.264 15.48 213.524 15.4C213.784 15.32 214.044 15.21 214.304 15.07C214.584 14.93 214.844 14.79 215.084 14.65C215.324 14.49 215.494 14.35 215.594 14.23C215.794 14.01 215.974 13.9 216.134 13.9C216.294 13.88 216.404 13.92 216.464 14.02C216.544 14.1 216.574 14.22 216.554 14.38C216.534 14.52 216.434 14.63 216.254 14.71ZM215.534 9.04C215.694 9.04 215.814 9.09 215.894 9.19C215.994 9.29 216.024 9.41 215.984 9.55C215.944 9.71 215.834 9.88 215.654 10.06C215.474 10.24 215.284 10.39 215.084 10.51C214.804 10.67 214.604 10.73 214.484 10.69C214.384 10.65 214.374 10.44 214.454 10.06C214.494 9.82 214.594 9.59 214.754 9.37C214.934 9.15 215.194 9.04 215.534 9.04ZM219.638 13.99C219.878 13.95 220.108 13.92 220.328 13.9C220.548 13.86 220.768 13.82 220.988 13.78C221.148 13.74 221.348 13.71 221.588 13.69C221.828 13.67 222.038 13.64 222.218 13.6C222.318 13.6 222.388 13.6 222.428 13.6C222.488 13.6 222.568 13.62 222.668 13.66C222.728 13.7 222.778 13.76 222.818 13.84C222.878 13.9 222.898 13.97 222.878 14.05C222.878 14.09 222.838 14.14 222.758 14.2C222.678 14.26 222.618 14.29 222.578 14.29C222.378 14.33 222.188 14.37 222.008 14.41C221.848 14.43 221.668 14.45 221.468 14.47C221.088 14.55 220.708 14.62 220.328 14.68C219.968 14.72 219.608 14.78 219.248 14.86C219.028 14.9 218.848 15 218.708 15.16C218.288 15.56 217.938 15.89 217.658 16.15C217.398 16.41 217.078 16.6 216.698 16.72C216.418 16.8 216.158 16.82 215.918 16.78C215.678 16.72 215.498 16.58 215.378 16.36C215.258 16.14 215.238 15.84 215.318 15.46C215.398 15.06 215.618 14.57 215.978 13.99C216.238 13.59 216.538 13.23 216.878 12.91C217.238 12.57 217.618 12.24 218.018 11.92C218.178 11.8 218.348 11.7 218.528 11.62C218.708 11.52 218.918 11.46 219.158 11.44C219.498 11.4 219.758 11.46 219.938 11.62C220.118 11.76 220.198 12 220.178 12.34C220.178 12.5 220.148 12.67 220.088 12.85C220.028 13.01 219.978 13.18 219.938 13.36C219.898 13.46 219.848 13.56 219.788 13.66C219.748 13.74 219.698 13.85 219.638 13.99ZM216.758 14.14C216.418 14.56 216.248 14.92 216.248 15.22C216.248 15.5 216.338 15.69 216.518 15.79C216.718 15.87 216.948 15.85 217.208 15.73C217.488 15.59 217.728 15.31 217.928 14.89C217.608 14.89 217.348 14.84 217.148 14.74C216.948 14.62 216.818 14.42 216.758 14.14ZM219.308 12.16C218.608 12.38 218.088 12.79 217.748 13.39C217.708 13.47 217.688 13.55 217.688 13.63C217.688 13.71 217.738 13.79 217.838 13.87C217.958 13.99 218.118 14.04 218.318 14.02C218.538 14 218.688 13.91 218.768 13.75C218.888 13.59 218.988 13.41 219.068 13.21C219.168 13.01 219.248 12.82 219.308 12.64C219.348 12.6 219.358 12.54 219.338 12.46C219.318 12.38 219.308 12.28 219.308 12.16ZM227.618 16.03C228.138 15.83 228.738 15.56 229.418 15.22C230.098 14.86 230.698 14.54 231.218 14.26C231.538 14.12 231.788 14.06 231.968 14.08C232.168 14.08 232.288 14.13 232.328 14.23C232.368 14.31 232.328 14.43 232.208 14.59C232.108 14.73 231.908 14.87 231.608 15.01C230.988 15.29 230.358 15.57 229.718 15.85C229.098 16.11 228.468 16.37 227.828 16.63C227.388 16.81 226.978 16.83 226.598 16.69C226.238 16.51 226.098 16.17 226.178 15.67C226.218 15.47 226.278 15.3 226.358 15.16C226.438 15 226.498 14.83 226.538 14.65C226.618 14.43 226.688 14.23 226.748 14.05C226.828 13.87 226.858 13.73 226.838 13.63C226.838 13.51 226.768 13.44 226.628 13.42C226.508 13.4 226.288 13.44 225.968 13.54C225.628 13.72 225.288 13.91 224.948 14.11C224.628 14.29 224.308 14.48 223.988 14.68C223.688 14.9 223.388 15.12 223.088 15.34C222.808 15.56 222.508 15.78 222.188 16C222.148 16.04 222.108 16.09 222.068 16.15C222.008 16.19 221.938 16.23 221.858 16.27C221.758 16.31 221.658 16.35 221.558 16.39C221.438 16.43 221.318 16.39 221.198 16.27C221.098 16.17 221.058 16.07 221.078 15.97C221.078 15.85 221.118 15.74 221.198 15.64C221.358 15.4 221.518 15.16 221.678 14.92C221.818 14.68 221.968 14.44 222.128 14.2C222.328 13.94 222.518 13.68 222.698 13.42C222.878 13.16 223.058 12.89 223.238 12.61C223.338 12.49 223.408 12.37 223.448 12.25C223.788 11.83 224.038 11.7 224.198 11.86C224.378 11.98 224.318 12.27 224.018 12.73C223.878 12.95 223.748 13.17 223.628 13.39C223.508 13.59 223.368 13.79 223.208 13.99C223.148 14.07 223.038 14.2 222.878 14.38C222.718 14.56 222.578 14.73 222.458 14.89C222.338 15.03 222.278 15.12 222.278 15.16C222.258 15.2 222.368 15.11 222.608 14.89C223.048 14.53 223.508 14.19 223.988 13.87C224.488 13.53 224.988 13.24 225.488 13C225.688 12.9 225.908 12.81 226.148 12.73C226.408 12.63 226.638 12.59 226.838 12.61C227.058 12.61 227.238 12.68 227.378 12.82C227.538 12.96 227.638 13.19 227.678 13.51C227.718 13.83 227.658 14.13 227.498 14.41C227.338 14.67 227.188 14.95 227.048 15.25C226.908 15.63 226.868 15.9 226.928 16.06C226.988 16.2 227.218 16.19 227.618 16.03Z" fill="#CCCCCC"/>
</svg>
